<?xml version="1.0" encoding="utf-8"?>
<!-- Generator: Adobe Illustrator 27.5.0, SVG Export Plug-In . SVG Version: 6.00 Build 0)  -->
<svg version="1.1" xmlns="http://www.w3.org/2000/svg" xmlns:xlink="http://www.w3.org/1999/xlink" x="0px" y="0px"
	 viewBox="0 0 500 500" style="enable-background:new 0 0 500 500;" xml:space="preserve">
<g id="BACKGROUND">
	<rect transform="matrix(-1.836970e-16 1 -1 -1.836970e-16 500 5.684342e-14)" style="fill:#FFFAF5;" width="500" height="500"/>
</g>
<g id="OBJECTS">
	<g>
		<path style="fill:#FFF6CF;" d="M139.546,64.5C158.873,53,186.5,83,200.944,53.926c18.694-37.628,66.119-33.026,81.846-6.138
			C299,75.5,352.604,24.519,364,81.5c9.5,47.5,75.093,26.858,65.456,80.848C420.63,211.79,390.059,209.79,434,250
			c43.94,40.21,37.751,95.623-2.683,129.518c-42.32,35.477-80.8,3.397-144.457,65.169c-48.573,47.137-131.306,48.462-139.892-3.403
			c-8.586-51.864-6.635-67.95-54.178-76.604c-47.542-8.654-68.733-62.032-36.049-105.143c23.45-30.932-14.309-69.218-19.742-93.58
			c-9.061-40.634,16.228-65.603,48.928-59.068C124,114.5,109.763,82.221,139.546,64.5z"/>
		<g>
			<defs>
				<path id="SVGID_1_" d="M184.044,95.738c6.993-9.293,10.412-19.538,16.9-41.812c11.75-40.339,72.591-28.477,85.392-0.08
					c12.801,28.397,46.373,39.462,75.108,33.215c33.136-7.203,82.118,5.042,72.481,59.032
					c-8.826,49.442-54.833,67.215-10.892,107.425s48.718,92.104,8.284,126c-42.32,35.477-80.8,3.397-144.457,65.169
					c-48.573,47.137-131.306,48.462-139.892-3.403c-8.586-51.864-6.635-67.95-54.178-76.604
					c-47.542-8.654-68.733-62.032-36.049-105.143c23.45-30.932-3.567-61.258-8.999-85.619
					c-9.061-40.634,23.856-72.997,56.542-66.389C149.305,116.632,170.917,113.184,184.044,95.738z"/>
			</defs>
			<clipPath id="SVGID_00000163045472373765292970000013144933091828610974_">
				<use xlink:href="#SVGID_1_"  style="overflow:visible;"/>
			</clipPath>
			<g style="clip-path:url(#SVGID_00000163045472373765292970000013144933091828610974_);">
				<path style="fill:#F4D787;" d="M461.667,350.547c-47.358-12.93-130.154-22.382-211.667-22.382s-154.195,8.279-201.553,21.21
					v138.958h403.105L461.667,350.547z"/>
				<g>
					<g>
						<g>
							<g>
								<polygon style="fill:#FCE49A;" points="153.002,371.585 101.196,355.914 101.196,217.468 153.002,217.468 								"/>
								<g>
									<g>
										<path style="fill:#FCE49A;" d="M97.592,217.152v4.435h59.519v-4.435c0-9.328,4.808-9.789,4.808-9.789v-3.879h-9.295
											c9.696-17.355-3.965-25.818-13.247-29.091c-6.38-2.25-9.745-6.02-11.256-8.224c0.992-0.38,1.691-1.294,1.691-2.363
											c0-0.661-0.27-1.262-0.709-1.716c1.997-0.11,3.814-0.846,5.227-2.01c-0.919,0.399-1.942,0.623-3.02,0.623
											c-3.987,0-7.219-3.039-7.219-6.788s3.232-6.788,7.219-6.788c1.079,0,2.101,0.224,3.02,0.623
											c-1.534-1.265-3.543-2.033-5.744-2.033c-4.815,0-8.719,3.67-8.719,8.198c0,3.565,2.421,6.598,5.801,7.726
											c-0.769,0.45-1.283,1.25-1.283,2.165c0,1.069,0.7,1.983,1.691,2.363c-1.51,2.204-4.875,5.974-11.256,8.224
											c-9.282,3.273-22.943,11.736-13.247,29.091h-9.295v3.879C92.279,207.363,97.592,207.825,97.592,217.152z"/>
									</g>
								</g>
							</g>
							<g>
								<path style="fill:#FFF6CF;" d="M115.387,263.398v-9.473c0-2.55-1.996-4.636-4.435-4.636s-4.435,2.086-4.435,4.636v9.473
									H115.387z"/>
								<path style="fill:#FFF6CF;" d="M131.712,263.398v-9.473c0-2.55-1.996-4.636-4.435-4.636c-2.439,0-4.435,2.086-4.435,4.636
									v9.473H131.712z"/>
								<path style="fill:#FFF6CF;" d="M148.037,263.398v-9.473c0-2.55-1.996-4.636-4.435-4.636c-2.439,0-4.435,2.086-4.435,4.636
									v9.473H148.037z"/>
							</g>
							<g>
								<path style="fill:#FFF6CF;" d="M107.449,217.225v-7.449c0-2.005-1.407-3.645-3.127-3.645c-1.72,0-3.127,1.64-3.127,3.645
									v7.449H107.449z"/>
								<path style="fill:#FFF6CF;" d="M118.959,217.225v-7.449c0-2.005-1.407-3.645-3.127-3.645c-1.72,0-3.127,1.64-3.127,3.645
									v7.449H118.959z"/>
								<path style="fill:#FFF6CF;" d="M130.468,217.225v-7.449c0-2.005-1.407-3.645-3.127-3.645s-3.127,1.64-3.127,3.645v7.449
									H130.468z"/>
								<path style="fill:#FFF6CF;" d="M141.492,217.225v-7.449c0-2.005-1.407-3.645-3.127-3.645c-1.72,0-3.127,1.64-3.127,3.645
									v7.449H141.492z"/>
								<path style="fill:#FFF6CF;" d="M153.002,217.225v-7.449c0-2.005-1.407-3.645-3.127-3.645c-1.72,0-3.127,1.64-3.127,3.645
									v7.449H153.002z"/>
							</g>
							<g>
								<path style="fill:#FFF6CF;" d="M115.387,317.99v-9.473c0-2.55-1.996-4.636-4.435-4.636s-4.435,2.086-4.435,4.636v9.473
									H115.387z"/>
								<path style="fill:#FFF6CF;" d="M131.712,317.99v-9.473c0-2.55-1.996-4.636-4.435-4.636c-2.439,0-4.435,2.086-4.435,4.636
									v9.473H131.712z"/>
								<path style="fill:#FFF6CF;" d="M148.037,317.99v-9.473c0-2.55-1.996-4.636-4.435-4.636c-2.439,0-4.435,2.086-4.435,4.636
									v9.473H148.037z"/>
							</g>
						</g>
						<path style="fill:#FFEBB3;" d="M128.307,167.661c0,0,0.706,3.527,9.171,7.457c8.465,3.93,13.907,8.365,13.504,14.613
							c-0.403,6.248-8.062,6.55-10.581,0.605c-2.519-5.946-1.965-7.004-6.651-11.136
							C129.063,175.068,128.105,171.087,128.307,167.661z"/>
					</g>
					<g>
						<g>
							<g>
								<path style="fill:#FCE49A;" d="M339.506,244.118H314.85v-4.493c0-20.186,10.406-21.185,10.406-21.185v-8.394h-20.115
									c20.983-37.557-8.58-55.874-28.668-62.957c-13.808-4.869-21.09-13.027-24.358-17.797c2.146-0.822,3.66-2.8,3.66-5.113
									c0-1.432-0.585-2.732-1.535-3.713c4.322-0.239,8.255-1.831,11.312-4.351c-1.989,0.863-4.202,1.348-6.536,1.348
									c-8.629,0-15.623-6.577-15.623-14.69c0-8.113,6.995-14.69,15.623-14.69c2.334,0,4.547,0.485,6.536,1.348
									c-3.32-2.737-7.668-4.4-12.43-4.4c-10.421,0-18.87,7.943-18.87,17.742c0,7.716,5.24,14.278,12.555,16.72
									c-1.665,0.975-2.777,2.706-2.777,4.686c0,2.313,1.514,4.291,3.66,5.113c-3.269,4.77-10.55,12.928-24.358,17.797
									c-20.088,7.083-49.652,25.399-28.669,62.957h-20.115v8.394c0,0,11.497,0.999,11.497,21.185v4.493h-25.688v114.026h179.15
									V244.118z M253.408,223.895c0-2.185,2.248-3.956,5.022-3.956c2.773,0,5.022,1.771,5.022,3.956v10.988h-10.044V223.895z
									 M236.351,223.895c0-2.185,2.248-3.956,5.022-3.956s5.022,1.771,5.022,3.956v10.988h-10.044V223.895z M212.281,234.883
									h-10.044v-10.988c0-2.185,2.248-3.956,5.022-3.956s5.022,1.771,5.022,3.956V234.883z M219.294,223.895
									c0-2.185,2.248-3.956,5.022-3.956s5.022,1.771,5.022,3.956v10.988h-10.044V223.895z M280.509,234.883h-10.044v-10.988
									c0-2.185,2.248-3.956,5.022-3.956s5.022,1.771,5.022,3.956V234.883z M287.522,223.895c0-2.185,2.248-3.956,5.022-3.956
									c2.773,0,5.022,1.771,5.022,3.956v10.988h-10.044V223.895z"/>
							</g>
						</g>
						<path style="fill:#FFF6CF;" d="M262.83,274.586c-7.113-0.287-10.947-3.832-12.899-6.704
							c-1.953,2.872-5.786,6.417-12.899,6.704c-12.093,0.488-13.706,14.74-5.442,20.816v41.594c0,4.211,3.413,7.624,7.624,7.624
							h10.717h10.718c4.211,0,7.624-3.413,7.624-7.624v-41.594C276.536,289.326,274.923,275.075,262.83,274.586z"/>
						<path style="fill:#FFF6CF;" d="M312.815,293.556c-5.186-0.21-7.982-2.794-9.405-4.888c-1.424,2.094-4.219,4.679-9.405,4.888
							c-8.818,0.356-9.993,10.748-3.968,15.178v30.478c0,2.987,2.421,5.408,5.408,5.408h7.965h7.965
							c2.987,0,5.409-2.421,5.409-5.408v-30.478C322.808,304.303,321.632,293.912,312.815,293.556z"/>
						<path style="fill:#FFF6CF;" d="M199.88,293.556c-5.186-0.21-7.982-2.794-9.406-4.888c-1.424,2.094-4.219,4.679-9.406,4.888
							c-8.818,0.356-9.993,10.748-3.968,15.178v30.478c0,2.987,2.422,5.408,5.409,5.408h7.965h7.965
							c2.987,0,5.408-2.421,5.408-5.408v-30.478C209.873,304.303,208.697,293.912,199.88,293.556z"/>
						<path style="fill:#FFEBB3;" d="M251.008,131.264c0,0,1.627,8.136,21.154,17.202c19.526,9.066,32.079,19.294,31.149,33.706
							s-18.597,15.11-24.408,1.395c-5.812-13.715-4.533-16.156-15.342-25.686C252.752,148.35,250.543,139.168,251.008,131.264z"/>
					</g>
					<g>
						<g>
							<g>
								<polygon style="fill:#FCE49A;" points="398.804,371.585 346.998,365.637 346.998,217.468 398.804,217.468 								"/>
								<g>
									<g>
										<path style="fill:#FCE49A;" d="M343.394,217.152v4.435h59.519v-4.435c0-9.328,4.809-9.789,4.809-9.789v-3.879h-9.295
											c9.696-17.355-3.965-25.818-13.247-29.091c-6.381-2.25-9.745-6.02-11.256-8.224c0.992-0.38,1.691-1.294,1.691-2.363
											c0-0.661-0.27-1.262-0.709-1.716c1.997-0.11,3.815-0.846,5.227-2.01c-0.919,0.399-1.941,0.623-3.02,0.623
											c-3.987,0-7.219-3.039-7.219-6.788s3.232-6.788,7.219-6.788c1.079,0,2.101,0.224,3.02,0.623
											c-1.534-1.265-3.543-2.033-5.744-2.033c-4.816,0-8.719,3.67-8.719,8.198c0,3.565,2.421,6.598,5.801,7.726
											c-0.769,0.45-1.283,1.25-1.283,2.165c0,1.069,0.7,1.983,1.691,2.363c-1.511,2.204-4.875,5.974-11.256,8.224
											c-9.282,3.273-22.943,11.736-13.247,29.091h-9.295v3.879C338.081,207.363,343.394,207.825,343.394,217.152z"/>
									</g>
								</g>
							</g>
							<g>
								<path style="fill:#FFF6CF;" d="M361.189,263.398v-9.473c0-2.55-1.996-4.636-4.435-4.636c-2.439,0-4.435,2.086-4.435,4.636
									v9.473H361.189z"/>
								<path style="fill:#FFF6CF;" d="M377.514,263.398v-9.473c0-2.55-1.996-4.636-4.435-4.636c-2.439,0-4.435,2.086-4.435,4.636
									v9.473H377.514z"/>
								<path style="fill:#FFF6CF;" d="M393.839,263.398v-9.473c0-2.55-1.996-4.636-4.435-4.636c-2.439,0-4.435,2.086-4.435,4.636
									v9.473H393.839z"/>
							</g>
							<g>
								<path style="fill:#FFF6CF;" d="M353.251,217.225v-7.449c0-2.005-1.407-3.645-3.127-3.645s-3.127,1.64-3.127,3.645v7.449
									H353.251z"/>
								<path style="fill:#FFF6CF;" d="M364.761,217.225v-7.449c0-2.005-1.407-3.645-3.127-3.645c-1.72,0-3.127,1.64-3.127,3.645
									v7.449H364.761z"/>
								<path style="fill:#FFF6CF;" d="M376.27,217.225v-7.449c0-2.005-1.407-3.645-3.127-3.645c-1.72,0-3.127,1.64-3.127,3.645
									v7.449H376.27z"/>
								<path style="fill:#FFF6CF;" d="M387.294,217.225v-7.449c0-2.005-1.407-3.645-3.127-3.645c-1.72,0-3.127,1.64-3.127,3.645
									v7.449H387.294z"/>
								<path style="fill:#FFF6CF;" d="M398.804,217.225v-7.449c0-2.005-1.407-3.645-3.127-3.645s-3.127,1.64-3.127,3.645v7.449
									H398.804z"/>
							</g>
							<g>
								<path style="fill:#FFF6CF;" d="M361.189,317.99v-9.473c0-2.55-1.996-4.636-4.435-4.636c-2.439,0-4.435,2.086-4.435,4.636
									v9.473H361.189z"/>
								<path style="fill:#FFF6CF;" d="M377.514,317.99v-9.473c0-2.55-1.996-4.636-4.435-4.636c-2.439,0-4.435,2.086-4.435,4.636
									v9.473H377.514z"/>
								<path style="fill:#FFF6CF;" d="M393.839,317.99v-9.473c0-2.55-1.996-4.636-4.435-4.636c-2.439,0-4.435,2.086-4.435,4.636
									v9.473H393.839z"/>
							</g>
						</g>
						<path style="fill:#FFEBB3;" d="M373.986,167.661c0,0,0.705,3.527,9.171,7.457c8.465,3.93,13.907,8.365,13.504,14.613
							c-0.403,6.248-8.062,6.55-10.582,0.605c-2.519-5.946-1.965-7.004-6.651-11.136
							C374.742,175.068,373.785,171.087,373.986,167.661z"/>
					</g>
				</g>
			</g>
		</g>
	</g>
	<g>
		<path style="fill:#E2C771;" d="M423.71,377.774l0.218-0.712l-15.409-4.782c0.679-0.247,1.044-0.38,1.044-0.38
			s-49.776-15.033-93.322-19.433c-43.546-4.4-110.344-24.489-110.344-24.489l-20.551,4.825l-19.464-6.893l-0.265,0.653l18.461,6.538
			l-1.961,0.46l-19.32-6.92l-0.268,0.652l18.327,6.565l-1.966,0.462l-19.177-6.947l-0.271,0.65l18.195,6.591l-1.974,0.463
			l-19.035-6.975l-0.274,0.649l18.062,6.618l-1.979,0.465l-18.894-7.002l-0.277,0.648l17.931,6.645l-1.985,0.466l-18.754-7.029
			l-0.28,0.648l17.799,6.671l-1.989,0.467l-18.615-7.055l-0.283,0.647l17.669,6.697l-1.996,0.469l-18.475-7.081l-0.286,0.646
			l17.54,6.723l-2,0.47l-18.338-7.107l-0.289,0.644l17.412,6.748l-2.007,0.471l-18.2-7.133l-0.292,0.643l17.283,6.774l-2.012,0.472
			l-18.064-7.159l-0.295,0.642l17.157,6.799l-2.019,0.474l-17.928-7.185l-0.298,0.64l17.031,6.825l-2.023,0.475l-17.794-7.21
			l-0.301,0.639l16.906,6.85l-2.029,0.476l-17.66-7.234l-0.304,0.638l16.781,6.874l-2.035,0.478l-17.526-7.259l-0.308,0.637
			l16.657,6.899l-2.04,0.479l-17.395-7.284l-0.31,0.635l16.534,6.924l-2.046,0.48l-17.263-7.309l-0.313,0.634l16.411,6.949
			l-2.05,0.481l-17.132-7.333l-0.317,0.633l16.289,6.973l-2.056,0.483l-17.002-7.358l-0.32,0.632l16.168,6.997l-2.06,0.484
			l-16.872-7.381l-0.323,0.63l16.047,7.02l-2.066,0.485l-16.744-7.405l-0.326,0.629l15.928,7.044l-2.071,0.486l-16.615-7.428
			l-0.329,0.626l15.81,7.069l-2.077,0.488l-16.488-7.452l-0.332,0.625l15.691,7.092l-2.082,0.489l-16.361-7.475l-0.336,0.624
			l15.573,7.115l-2.087,0.49l-16.235-7.499l-0.339,0.623l15.456,7.139l-2.091,0.491l-16.111-7.521l-0.342,0.621l15.34,7.161
			l-2.095,0.492l-15.987-7.544l-0.345,0.62l15.224,7.184l-2.101,0.493l-15.863-7.567l-0.348,0.619l15.109,7.207l-2.105,0.494
			l-15.74-7.589l-0.352,0.616l14.995,7.23l-2.111,0.496L76.426,347.1l-0.355,0.615l14.881,7.253l-3.011,0.707
			c0,0,55.021,23.198,84.338,33.694c29.317,10.496,48.365,11.193,85.055,30.131c0.275-0.09,3.517-1.259,4.118-1.429l14.316,8.384
			l0.371-0.645l-13.689-8.016c0.577-0.158,1.237-0.337,1.98-0.536l14.238,8.242l0.368-0.646l-13.59-7.867
			c0.62-0.165,1.285-0.341,1.99-0.527l14.132,8.086l0.366-0.648l-13.472-7.709c0.636-0.168,1.302-0.342,1.994-0.524l14.013,7.926
			l0.363-0.649l-13.344-7.547c0.644-0.169,1.309-0.343,1.994-0.522l13.889,7.764l0.358-0.652l-13.209-7.384
			c0.648-0.169,1.315-0.344,1.993-0.521l13.758,7.602l0.355-0.654l-13.07-7.221c0.651-0.17,1.315-0.344,1.99-0.52l13.625,7.441
			l0.353-0.655l-12.928-7.06c0.653-0.171,1.316-0.344,1.988-0.52l13.487,7.28l0.35-0.656l-12.783-6.9
			c0.654-0.171,1.316-0.344,1.984-0.52l13.349,7.122l0.347-0.658l-12.637-6.741c0.654-0.171,1.315-0.345,1.981-0.52l13.21,6.965
			l0.342-0.661l-12.488-6.584c0.653-0.172,1.313-0.345,1.976-0.52l13.07,6.81l0.34-0.662l-12.34-6.43
			c0.654-0.172,1.311-0.346,1.972-0.52l12.929,6.658l0.337-0.664l-12.192-6.278c0.653-0.173,1.308-0.346,1.967-0.521l12.789,6.508
			l0.334-0.665l-12.045-6.129c0.652-0.173,1.306-0.347,1.962-0.521l12.649,6.361l0.331-0.667l-11.897-5.983
			c0.651-0.173,1.303-0.348,1.956-0.522l12.511,6.217l0.328-0.668l-11.752-5.84c0.65-0.174,1.3-0.348,1.95-0.523l12.375,6.077
			l0.324-0.669l-11.609-5.701c0.648-0.175,1.296-0.349,1.944-0.524l12.243,5.94l0.321-0.671l-11.47-5.565
			c0.647-0.175,1.292-0.35,1.936-0.526l12.113,5.807l0.318-0.672l-11.334-5.434c0.645-0.176,1.288-0.352,1.929-0.527l11.987,5.678
			l0.315-0.674l-11.202-5.306c0.643-0.177,1.283-0.353,1.919-0.529l11.868,5.555l0.312-0.675l-11.077-5.185
			c0.641-0.177,1.277-0.354,1.91-0.531l11.755,5.436l0.309-0.677l-10.959-5.068c0.638-0.178,1.271-0.356,1.899-0.533l11.652,5.323
			l0.305-0.678l-10.851-4.957c0.635-0.18,1.265-0.358,1.888-0.536l11.558,5.216l0.302-0.68l-10.753-4.853
			c0.631-0.181,1.257-0.361,1.874-0.539l11.479,5.117l0.299-0.681l-10.671-4.757c0.628-0.182,1.249-0.364,1.858-0.543l11.414,5.027
			l0.296-0.683l-10.605-4.671c0.623-0.184,1.238-0.367,1.839-0.548l11.37,4.947l0.293-0.684l-10.562-4.595
			c0.618-0.187,1.225-0.372,1.816-0.554l11.353,4.879l0.29-0.686l-10.548-4.532c0.614-0.191,1.206-0.378,1.786-0.563l11.372,4.827
			l0.288-0.687l-10.575-4.488c0.605-0.196,1.19-0.388,1.749-0.574l11.439,4.795l0.285-0.689l-10.656-4.467
			c0.378-0.129,0.746-0.256,1.098-0.38c0.196-0.069,0.398-0.14,0.598-0.211l11.577,4.792l0.282-0.69l-10.807-4.474
			c0.547-0.193,1.106-0.391,1.678-0.594l11.747,4.803l0.279-0.69l-10.974-4.487c0.547-0.194,1.103-0.392,1.669-0.593l11.927,4.815
			l0.275-0.691l-11.146-4.5c0.546-0.194,1.099-0.392,1.66-0.592l12.113,4.829l0.272-0.693l-11.325-4.515
			c0.544-0.194,1.095-0.392,1.651-0.59l12.303,4.844l0.269-0.694l-11.507-4.53c0.543-0.194,1.089-0.39,1.641-0.588l12.499,4.858
			l0.266-0.696l-11.695-4.546c0.542-0.194,1.086-0.389,1.634-0.586l12.696,4.873l0.263-0.696l-11.887-4.562
			c0.539-0.194,1.081-0.388,1.625-0.584l12.9,4.888l0.26-0.697l-12.083-4.578c0.538-0.194,1.077-0.388,1.617-0.582l13.106,4.903
			l0.257-0.699l-12.281-4.594c0.535-0.193,1.071-0.386,1.607-0.579l13.318,4.918l0.254-0.7l-12.484-4.61
			c0.534-0.193,1.067-0.385,1.6-0.577l13.53,4.932l0.251-0.7l-12.69-4.626c0.532-0.192,1.062-0.383,1.591-0.575l13.748,4.946
			l0.249-0.702l-12.9-4.641c0.53-0.191,1.058-0.382,1.584-0.572l13.969,4.96l0.246-0.703l-13.112-4.656
			c0.527-0.191,1.052-0.38,1.574-0.569l14.193,4.973l0.243-0.704l-13.327-4.67c0.526-0.19,1.048-0.379,1.566-0.567l14.419,4.987
			l0.24-0.704l-13.546-4.685c0.524-0.19,1.043-0.378,1.558-0.564l14.649,4.999l0.237-0.706l-13.768-4.698
			c0.523-0.19,1.039-0.376,1.549-0.562l14.883,5.012l0.234-0.707l-13.993-4.712c0.521-0.189,1.035-0.376,1.541-0.559l15.119,5.023
			l0.231-0.707l-14.221-4.725c0.522-0.189,1.031-0.374,1.533-0.556l15.358,5.034l0.228-0.709l-14.452-4.737
			c0.521-0.189,1.03-0.374,1.524-0.553l15.6,5.044l0.225-0.709l-14.687-4.749c0.523-0.19,1.03-0.374,1.516-0.551l15.846,5.054
			l0.224-0.71l-14.924-4.76c0.531-0.193,1.034-0.376,1.507-0.548l16.094,5.064l0.221-0.712l-15.164-4.771
			c0.556-0.202,1.057-0.385,1.497-0.545L423.71,377.774z"/>
		<g>
			<g>
				<g>
					<g>
						
							<rect x="269.755" y="410.425" transform="matrix(0.5026 -0.8645 0.8645 0.5026 -228.308 442.1722)" style="fill:#BC4646;" width="0.73" height="18.15"/>
					</g>
					<g>
						
							<rect x="272.575" y="409.5" transform="matrix(0.4983 -0.867 0.867 0.4983 -225.9879 446.6592)" style="fill:#BC4646;" width="0.73" height="18.188"/>
					</g>
					<g>
						
							<rect x="275.396" y="408.575" transform="matrix(0.4939 -0.8695 0.8695 0.4939 -223.6271 451.1446)" style="fill:#BC4646;" width="0.73" height="18.226"/>
					</g>
					<g>
						<polygon style="fill:#BC4646;" points="286.366,421.572 270.439,412.629 270.797,411.993 286.724,420.936 						"/>
					</g>
					<g>
						<polygon style="fill:#BC4646;" points="289.228,420.638 273.223,411.755 273.577,411.117 289.582,420 						"/>
					</g>
					<g>
						
							<rect x="283.858" y="405.799" transform="matrix(0.4809 -0.8767 0.8767 0.4809 -216.2997 464.5833)" style="fill:#BC4646;" width="0.73" height="18.345"/>
					</g>
					<g>
						
							<rect x="286.679" y="404.874" transform="matrix(0.4766 -0.8791 0.8791 0.4766 -213.7787 469.0414)" style="fill:#BC4646;" width="0.73" height="18.385"/>
					</g>
					<g>
						
							<rect x="289.499" y="403.948" transform="matrix(0.4723 -0.8814 0.8814 0.4723 -211.2176 473.4953)" style="fill:#BC4646;" width="0.729" height="18.426"/>
					</g>
					<g>
						<polygon style="fill:#BC4646;" points="300.673,416.9 284.354,408.256 284.696,407.612 301.015,416.255 						"/>
					</g>
					<g>
						<polygon style="fill:#BC4646;" points="303.535,415.965 287.137,407.382 287.475,406.734 303.873,415.318 						"/>
					</g>
					<g>
						
							<rect x="297.961" y="401.169" transform="matrix(0.4595 -0.8882 0.8882 0.4595 -203.3009 486.8238)" style="fill:#BC4646;" width="0.73" height="18.551"/>
					</g>
					<g>
						
							<rect x="300.781" y="400.242" transform="matrix(0.4552 -0.8904 0.8904 0.4552 -200.5843 491.2552)" style="fill:#BC4646;" width="0.73" height="18.594"/>
					</g>
					<g>
						
							<rect x="303.602" y="399.315" transform="matrix(0.4509 -0.8926 0.8926 0.4509 -197.8317 495.6705)" style="fill:#BC4646;" width="0.73" height="18.637"/>
					</g>
					<g>
						
							<rect x="306.422" y="398.388" transform="matrix(0.4467 -0.8947 0.8947 0.4467 -195.0416 500.0762)" style="fill:#BC4646;" width="0.73" height="18.68"/>
					</g>
					<g>
						
							<rect x="309.243" y="397.461" transform="matrix(0.4424 -0.8968 0.8968 0.4424 -192.2109 504.4919)" style="fill:#BC4646;" width="0.73" height="18.723"/>
					</g>
					<g>
						
							<rect x="312.064" y="396.533" transform="matrix(0.4382 -0.8989 0.8989 0.4382 -189.3491 508.8701)" style="fill:#BC4646;" width="0.729" height="18.768"/>
					</g>
					<g>
						
							<rect x="314.885" y="395.605" transform="matrix(0.434 -0.9009 0.9009 0.434 -186.4449 513.2672)" style="fill:#BC4646;" width="0.729" height="18.812"/>
					</g>
					<g>
						
							<rect x="317.705" y="394.677" transform="matrix(0.4298 -0.9029 0.9029 0.4298 -183.5109 517.6262)" style="fill:#BC4646;" width="0.729" height="18.858"/>
					</g>
					<g>
						
							<rect x="320.526" y="393.749" transform="matrix(0.4256 -0.9049 0.9049 0.4256 -180.5378 521.9888)" style="fill:#BC4646;" width="0.729" height="18.903"/>
					</g>
					<g>
						
							<rect x="323.347" y="392.821" transform="matrix(0.4214 -0.9069 0.9069 0.4214 -177.5332 526.3287)" style="fill:#BC4646;" width="0.73" height="18.948"/>
					</g>
					<g>
						
							<rect x="326.167" y="391.892" transform="matrix(0.4172 -0.9088 0.9088 0.4172 -174.4885 530.6758)" style="fill:#BC4646;" width="0.73" height="18.995"/>
					</g>
					<g>
						
							<rect x="328.988" y="390.963" transform="matrix(0.4131 -0.9107 0.9107 0.4131 -171.4122 535.0028)" style="fill:#BC4646;" width="0.729" height="19.042"/>
					</g>
					<g>
						
							<rect x="331.808" y="390.034" transform="matrix(0.4089 -0.9126 0.9126 0.4089 -168.2985 539.3279)" style="fill:#BC4646;" width="0.729" height="19.089"/>
					</g>
					<g>
						
							<rect x="334.629" y="389.105" transform="matrix(0.4048 -0.9144 0.9144 0.4048 -165.1533 543.6353)" style="fill:#BC4646;" width="0.729" height="19.136"/>
					</g>
					<g>
						
							<rect x="337.45" y="388.175" transform="matrix(0.4006 -0.9162 0.9162 0.4006 -161.9718 547.9377)" style="fill:#BC4646;" width="0.73" height="19.185"/>
					</g>
					<g>
						
							<rect x="340.27" y="387.246" transform="matrix(0.3965 -0.918 0.918 0.3965 -158.7629 552.2122)" style="fill:#BC4646;" width="0.73" height="19.232"/>
					</g>
					<g>
						
							<rect x="343.09" y="386.316" transform="matrix(0.3924 -0.9198 0.9198 0.3924 -155.5161 556.4887)" style="fill:#BC4646;" width="0.73" height="19.281"/>
					</g>
					<g>
						
							<rect x="345.911" y="385.386" transform="matrix(0.3883 -0.9215 0.9215 0.3883 -152.2377 560.7516)" style="fill:#BC4646;" width="0.73" height="19.33"/>
					</g>
					<g>
						
							<rect x="348.732" y="384.456" transform="matrix(0.3842 -0.9232 0.9232 0.3842 -148.9256 565.0049)" style="fill:#BC4646;" width="0.73" height="19.38"/>
					</g>
					<g>
						
							<rect x="351.552" y="383.525" transform="matrix(0.3801 -0.9249 0.9249 0.3801 -145.5781 569.2563)" style="fill:#BC4646;" width="0.731" height="19.429"/>
					</g>
					<g>
						<polygon style="fill:#BC4646;" points="363.625,396.336 345.576,389.009 345.851,388.333 363.9,395.66 						"/>
					</g>
					<g>
						
							<rect x="357.194" y="381.664" transform="matrix(0.3721 -0.9282 0.9282 0.3721 -138.8009 577.6872)" style="fill:#BC4646;" width="0.729" height="19.529"/>
					</g>
					<g>
						
							<rect x="360.014" y="380.733" transform="matrix(0.3681 -0.9298 0.9298 0.3681 -135.3703 581.8724)" style="fill:#BC4646;" width="0.729" height="19.581"/>
					</g>
					<g>
						
							<rect x="362.835" y="379.802" transform="matrix(0.364 -0.9314 0.9314 0.364 -131.903 586.0592)" style="fill:#BC4646;" width="0.73" height="19.632"/>
					</g>
					<g>
						
							<rect x="365.655" y="378.871" transform="matrix(0.36 -0.9329 0.9329 0.36 -128.4059 590.2347)" style="fill:#BC4646;" width="0.73" height="19.684"/>
					</g>
					<g>
						
							<rect x="368.477" y="377.939" transform="matrix(0.3561 -0.9345 0.9345 0.3561 -124.8796 594.3926)" style="fill:#BC4646;" width="0.729" height="19.736"/>
					</g>
					<g>
						
							<rect x="371.297" y="377.008" transform="matrix(0.3521 -0.936 0.936 0.3521 -121.326 598.5347)" style="fill:#BC4646;" width="0.729" height="19.788"/>
					</g>
					<g>
						
							<rect x="374.117" y="376.076" transform="matrix(0.3481 -0.9374 0.9374 0.3481 -117.7412 602.6656)" style="fill:#BC4646;" width="0.73" height="19.84"/>
					</g>
					<g>
						
							<rect x="376.938" y="375.144" transform="matrix(0.3442 -0.9389 0.9389 0.3442 -114.1259 606.789)" style="fill:#BC4646;" width="0.73" height="19.894"/>
					</g>
					<g>
						
							<rect x="379.759" y="374.211" transform="matrix(0.3403 -0.9403 0.9403 0.3403 -110.4835 610.8932)" style="fill:#BC4646;" width="0.729" height="19.947"/>
					</g>
					<g>
						
							<rect x="382.579" y="373.279" transform="matrix(0.3364 -0.9417 0.9417 0.3364 -106.8131 614.9855)" style="fill:#BC4646;" width="0.729" height="20.001"/>
					</g>
					<g>
						
							<rect x="385.4" y="372.346" transform="matrix(0.3325 -0.9431 0.9431 0.3325 -103.1152 619.0608)" style="fill:#BC4646;" width="0.73" height="20.055"/>
					</g>
					<g>
						
							<rect x="388.22" y="371.414" transform="matrix(0.3286 -0.9445 0.9445 0.3286 -99.384 623.1352)" style="fill:#BC4646;" width="0.73" height="20.109"/>
					</g>
					<g>
						
							<rect x="391.041" y="370.481" transform="matrix(0.3248 -0.9458 0.9458 0.3248 -95.6399 627.1663)" style="fill:#BC4646;" width="0.729" height="20.164"/>
					</g>
					<g>
						
							<rect x="393.861" y="369.548" transform="matrix(0.3209 -0.9471 0.9471 0.3209 -91.8504 631.22)" style="fill:#BC4646;" width="0.73" height="20.219"/>
					</g>
					<g>
						
							<rect x="396.682" y="368.615" transform="matrix(0.3171 -0.9484 0.9484 0.3171 -88.0535 635.2222)" style="fill:#BC4646;" width="0.73" height="20.275"/>
					</g>
					<g>
						
							<rect x="399.503" y="367.682" transform="matrix(0.3132 -0.9497 0.9497 0.3132 -84.2149 639.2394)" style="fill:#BC4646;" width="0.729" height="20.33"/>
					</g>
					<g>
						
							<rect x="402.323" y="366.748" transform="matrix(0.3095 -0.9509 0.9509 0.3095 -80.3638 643.2175)" style="fill:#BC4646;" width="0.73" height="20.387"/>
					</g>
					<g>
						
							<rect x="405.144" y="365.815" transform="matrix(0.3057 -0.9521 0.9521 0.3057 -76.4769 647.1998)" style="fill:#BC4646;" width="0.729" height="20.442"/>
					</g>
					<g>
						
							<rect x="407.964" y="364.88" transform="matrix(0.3019 -0.9533 0.9533 0.3019 -72.5755 651.1482)" style="fill:#BC4646;" width="0.73" height="20.499"/>
					</g>
					<g>
						
							<rect x="410.785" y="363.946" transform="matrix(0.2982 -0.9545 0.9545 0.2982 -68.6442 655.0903)" style="fill:#BC4646;" width="0.73" height="20.556"/>
					</g>
					<g>
						
							<rect x="413.606" y="363.012" transform="matrix(0.2944 -0.9557 0.9557 0.2944 -64.6837 659.027)" style="fill:#BC4646;" width="0.73" height="20.614"/>
					</g>
				</g>
				<g>
					<g>
						<polygon style="fill:#BC4646;" points="98.673,355.914 80.798,347.264 81.148,346.662 99.023,355.312 						"/>
					</g>
					<g>
						<polygon style="fill:#BC4646;" points="101.803,355.147 83.844,346.55 84.19,345.947 102.15,354.544 						"/>
					</g>
					<g>
						<polygon style="fill:#BC4646;" points="104.934,354.382 86.89,345.837 87.233,345.231 105.277,353.776 						"/>
					</g>
					<g>
						<polygon style="fill:#BC4646;" points="108.064,353.616 89.936,345.122 90.276,344.515 108.404,353.008 						"/>
					</g>
					<g>
						<polygon style="fill:#BC4646;" points="111.194,352.85 92.981,344.408 93.319,343.8 111.531,352.241 						"/>
					</g>
					<g>
						<polygon style="fill:#BC4646;" points="114.324,352.084 96.027,343.693 96.362,343.084 114.658,351.474 						"/>
					</g>
					<g>
						<polygon style="fill:#BC4646;" points="117.454,351.317 99.073,342.979 99.404,342.368 117.785,350.706 						"/>
					</g>
					<g>
						<polygon style="fill:#BC4646;" points="120.585,350.551 102.119,342.265 102.447,341.653 120.912,349.939 						"/>
					</g>
					<g>
						<polygon style="fill:#BC4646;" points="123.714,349.785 105.165,341.551 105.49,340.937 124.039,349.171 						"/>
					</g>
					<g>
						<polygon style="fill:#BC4646;" points="126.845,349.02 108.211,340.837 108.532,340.221 127.166,348.404 						"/>
					</g>
					<g>
						<polygon style="fill:#BC4646;" points="129.975,348.253 111.257,340.123 111.575,339.506 130.293,347.636 						"/>
					</g>
					<g>
						<polygon style="fill:#BC4646;" points="133.105,347.487 114.302,339.408 114.618,338.79 133.421,346.869 						"/>
					</g>
					<g>
						<polygon style="fill:#BC4646;" points="136.235,346.721 117.348,338.694 117.66,338.074 136.547,346.101 						"/>
					</g>
					<g>
						<polygon style="fill:#BC4646;" points="139.365,345.955 120.394,337.98 120.703,337.359 139.674,345.334 						"/>
					</g>
					<g>
						<polygon style="fill:#BC4646;" points="142.495,345.188 123.44,337.266 123.746,336.643 142.801,344.566 						"/>
					</g>
					<g>
						<polygon style="fill:#BC4646;" points="145.625,344.422 126.486,336.552 126.789,335.928 145.929,343.799 						"/>
					</g>
					<g>
						<polygon style="fill:#BC4646;" points="148.755,343.656 129.531,335.837 129.832,335.213 149.056,343.031 						"/>
					</g>
					<g>
						<polygon style="fill:#BC4646;" points="151.886,342.89 132.577,335.122 132.874,334.496 152.183,342.264 						"/>
					</g>
					<g>
						<polygon style="fill:#BC4646;" points="155.016,342.124 135.623,334.408 135.917,333.781 155.31,341.497 						"/>
					</g>
					<g>
						<polygon style="fill:#BC4646;" points="158.146,341.358 138.669,333.694 138.96,333.066 158.437,340.729 						"/>
					</g>
					<g>
						<polygon style="fill:#BC4646;" points="161.276,340.592 141.715,332.98 142.003,332.35 161.564,339.962 						"/>
					</g>
					<g>
						<polygon style="fill:#BC4646;" points="164.406,339.825 144.761,332.266 145.045,331.635 164.691,339.194 						"/>
					</g>
					<g>
						<polygon style="fill:#BC4646;" points="167.536,339.059 147.806,331.552 148.088,330.919 167.818,338.427 						"/>
					</g>
					<g>
						<polygon style="fill:#BC4646;" points="170.666,338.293 150.852,330.837 151.131,330.203 170.945,337.659 						"/>
					</g>
					<g>
						<polygon style="fill:#BC4646;" points="173.796,337.527 153.898,330.122 154.174,329.488 174.072,336.892 						"/>
					</g>
					<g>
						<polygon style="fill:#BC4646;" points="176.926,336.76 156.944,329.408 157.217,328.773 177.2,336.125 						"/>
					</g>
					<g>
						<polygon style="fill:#BC4646;" points="180.057,335.994 159.99,328.693 160.259,328.058 180.327,335.358 						"/>
					</g>
					<g>
						<polygon style="fill:#BC4646;" points="183.186,335.227 163.035,327.979 163.302,327.342 183.454,334.59 						"/>
					</g>
					<g>
						<polygon style="fill:#BC4646;" points="186.316,334.461 166.081,327.265 166.345,326.627 186.581,333.823 						"/>
					</g>
					<g>
						<polygon style="fill:#BC4646;" points="189.447,333.695 169.127,326.55 169.388,325.911 189.708,333.055 						"/>
					</g>
				</g>
			</g>
			<path style="fill:#BC4646;" d="M94.328,354.635l114.531-26.699c0,0,65.89,19.674,108.845,23.983
				c42.955,4.309,92.054,19.031,92.054,19.031s-41.163,14.892-61.004,21.834c-19.841,6.942-81.446,22.151-86.408,23.767
				c-36.192-18.546-53.987-19.282-82.905-29.561C150.523,376.711,94.328,354.635,94.328,354.635z"/>
			<path style="fill:#CE6161;" d="M112.349,354.958l97.136-21.749c0,0,52.086,16.805,95.041,21.114
				c42.955,4.309,82.531,15.944,82.531,15.944s-32.203,9.736-52.045,16.679s-69.604,17.952-74.566,19.569
				c-36.192-18.546-44.012-13.732-72.931-24.011C158.597,372.225,112.349,354.958,112.349,354.958z"/>
			<path style="fill:#BC5050;" d="M145.929,350.551c0,0-4.984,0.639-11.351,2.298c-11.757,3.064-6.101,5.614,1.97,7.092
				c8.071,1.478,17.618,2.822,24.351,6.181c6.734,3.359,31.052,9.819,50.672,14.377c37.489,8.709,48.578-3.628,41.117-8.256
				c9.378,0.958,26.773-0.004,31.442-5.987c4.669-5.982-5.286-10.268-10.715-11.556c-5.43-1.288-63.514-13.785-63.514-13.785
				L145.929,350.551z"/>
		</g>
		<g>
			<g>
				<g>
					<path style="fill:#ECB67B;" d="M158.947,360.424c0,0-4.952-1.547-9.958-1.661c-5.006-0.114-10.467-0.228-12.857-2.389
						c-2.389-2.162,0.613-3.569,2.807-3.034c2.194,0.535,7.433,0.531,10.088-1.82c2.655-2.351,3.381-7.203,8.327-7.129
						c4.947,0.074,7.981,5.777,7.677,7.211C164.728,353.036,158.947,360.424,158.947,360.424z"/>
				</g>
				<g>
					<path style="fill:#E2A569;" d="M160.291,345.147c-0.881-0.447-1.86-0.74-2.937-0.757c-4.947-0.074-5.672,4.777-8.327,7.129
						s-7.894,2.356-10.088,1.82c-2.194-0.535-5.196,0.872-2.807,3.034c1.416,1.281,3.915,1.841,6.755,2.109
						C150.849,357.031,158.144,352.771,160.291,345.147z"/>
				</g>
				<g>
					<path style="fill:#44270A;" d="M258.753,331.137c0,0,14.05,11.433,16.3,16.364c2.25,4.93,2.706,13.426-3.666,18.432
						s-20.379,1.743-26.826,0.226c-6.447-1.517-29.013-8.571-29.013-8.571s7.13-18.224,16.46-21.845
						C241.338,332.121,258.753,331.137,258.753,331.137z"/>
				</g>
				<g>
					<path style="fill:#513210;" d="M231.648,338.321c0,0,13.562,7.819,15.458,13.28c1.896,5.461,0.175,16.047-1.047,17.968
						c-1.222,1.921-5.434,9.731-16.382,8.271c-7.344-0.979-32.105-5.993-47.352-9.634c-15.246-3.641-24.728-7.609-24.728-7.609
						s3.378-9.69,5.047-10.82c-2.427-0.068-11.493-7.132-11.493-7.132s1.365-15.018,5.765-18.204
						C161.315,321.255,219.303,333.239,231.648,338.321z"/>
				</g>
				<path style="fill:#44270A;" d="M162.644,349.776c0,0,38.659,18.835,40.494,15.355c4.919-9.328,23.981-3.984,23.981-3.984
					c-1.996-2.72-10.425-4.198-14.418-3.089c7.542-2.958,13.457-1.701,14.418-1.405c-2.07-1.405-11.091-1.922-16.341-0.518
					c-5.25,1.405-4.288,1.331-4.288,1.331s6.729-11.666,12.126-13.076c3.771,4.056,6.555,2.865,7.098,2.059
					c2.366,3.179,5.081,3.346,6.433,1.405c2.662,2.144,4.767,1.004,5.246-0.518c0.479-1.522-8.869-10.204-8.869-10.204
					l-14.048,2.502l-23.809,6.667l-30.685-12.865l-4.584,12.792l3.105,1.996L162.644,349.776z"/>
			</g>
			<g>
				<g>
					<path style="fill:#F2E1D1;" d="M206.32,224.62l6.726,0.91c0,0,4.324,5.689,4.437,14.336c0.114,8.647,1.251,14.563,2.275,17.635
						c1.024,3.072,4.779,18.318,4.779,22.755c2.162,1.365,1.365,4.579,1.365,4.579c1.707,1.678,14.336,17.607,18.09,23.978
						c-4.324-0.228-12.629,5.575-13.198,11.378c-8.822-8.671-16.839-15.929-20.594-22.641c-3.755-6.713-2.958-37.546-2.958-37.888
						C207.243,259.322,206.32,224.62,206.32,224.62z"/>
				</g>
				<path style="fill:#C49576;" d="M244.347,309.142c0,0,2.07,2.777-1.848,4.441c-3.919,1.664-4.326-5.361-4.067-5.287
					C238.691,308.37,244.347,309.142,244.347,309.142z"/>
				<path style="fill:#DBB393;" d="M244.347,309.142c0,0-2.327-0.627-6.228,1.334c-3.902,1.961-5.085,6.126-5.085,6.126
					l-5.915-3.598c0,0,1.454-4.757,6.038-7.714c4.584-2.957,7.199-1.958,7.199-1.958L244.347,309.142z"/>
				<path style="fill:#EAD3C1;" d="M225.902,284.837c0,0-10.145-0.94-11.623,8.376C214.18,289.516,218.005,281.735,225.902,284.837z
					"/>
				<path style="fill:#EAD3C1;" d="M224.537,280.257c0,0-7.793-2.818-9.913,4.379C215.215,281.432,219.07,276.864,224.537,280.257z"
					/>
				<g>
					<g>
						<path style="fill:#E5CCB3;" d="M168.217,207.611c0,0-7.964,8.059-16.46,13.975c-8.495,5.916-8.116,14.412-8.116,14.412
							s3.186,29.582,2.048,41.87c-1.138,12.288,0.228,14.108,1.138,19.342c0.91,5.234-2.048,10.012-2.275,14.563
							c-0.228,4.551,1.593,11.15,2.048,14.336c0.455,3.186,1.138,24.121-7.054,26.624c6.827,6.599,19.342-6.371,20.935-16.156
							c23.21,12.06,38.001,23.665,39.139,25.486c13.881-20.252,22.983-25.031,30.947-22.073c7.964,2.958,14.563-9.102,29.582-5.689
							c-16.611-17.066-25.799-15.417-35.726-24.121c-3.527-3.093-6.277-5.166-8.306-10.012c-2.048-4.892-2.844-5.916-3.299-10.24
							c-0.455-4.323,1.138-8.647,1.365-12.516c0.228-3.868-2.958-23.21,0-27.079c2.958-3.868-1.138-24.803-1.138-24.803
							l-16.991-10.923L168.217,207.611z"/>
					</g>
					<path style="fill:#E2C5AA;" d="M146.704,296.539c0,0,3,11.817,5.81,17.702c2.81,5.885,8.133,2.61,11.091,5.061
						c2.958,2.451,6.063,5.795,12.274,8.633c6.211,2.838,15.586,6.239,18.81,7.57c3.224,1.331,6.847,0.296,7.956-1.849
						s5.841,4.663,8.429,6.103c2.588,1.439,3.771-4.698,3.771-4.698l-11.954-11.153l-20.16-7.307L146.704,296.539z"/>
					<path style="fill:#E2C5AA;" d="M210.631,232.583c0,0,6.162,7.859,4.227,16.165c-1.934,8.306-1.899,11.345-1.899,11.345
						s0.186-7.201-3.733-12.721c1.701,1.109,3.031,2.736,3.327,4.362c0.37-3.623-2.218-9.242-3.327-10.943
						c1.701,1.701,3.919,6.778,4.116,9.144C214.476,245.99,214.426,239.139,210.631,232.583z"/>
					<path style="fill:#E2C5AA;" d="M219.58,305.687c0,0-16.343-5.179-28.913,10.916
						C193.921,309.923,207.383,299.972,219.58,305.687z"/>
					<path style="fill:#E2C5AA;" d="M214.277,296.539c0,0-11.138-5.151-22.771,4.117C195.35,295.037,208.754,289.86,214.277,296.539
						z"/>
					<path style="fill:#E2C5AA;" d="M170.792,235.115c0,0,3.609,11.812-7.926,23.051c-5.767,11.682,2.218,22.921,2.218,22.921
						s10.647-6.359,12.274-18.781c-2.07,4.141-4.658,10.426-8.651,13.383c4.362-7.911,9.242-15.306,9.612-25.361
						c-1.331,4.88-3.327,13.531-7.172,16.488c-3.845,2.958-3.941-2.07-1.601-5.619c2.34-3.549,5.298-8.967,5.593-15.057
						c-1.553,4.262-2.573,9.437-7.719,12.617C171.961,249.589,173.69,239.791,170.792,235.115z"/>
					<g>
						<path style="fill:#DBB393;" d="M167.421,208.309c0,0-8.038,6.649-9.414,8.521c7.025-1.084,13.194,9.907,19.661,14.389
							c4.76,3.299,7.313,7.358,7.313,7.358s3.944,20.48,2.731,28.52c-1.214,8.04,1.669,12.743,1.669,12.743l14.791-3.641
							c0,0-1.289-15.474-1.138-24.727s-2.843-20.025-3.64-22.414c-0.797-2.389,4.664-10.012-0.74-13.426
							C193.248,212.219,167.421,208.309,167.421,208.309z"/>
					</g>
					<path style="fill:#B58B6F;" d="M192.907,225.531c0,0,2.883,13.559,3.132,23.762s0.491,17.598,0,20.407s1.875,3.648,1.678-1.282
						c-0.197-4.929-1.183-7.788-1.084-11.091c0.099-3.303-0.345-14.394-0.887-17.499
						C195.202,236.723,194.111,229.274,192.907,225.531z"/>
					<g>
						<path style="fill:#DBB393;" d="M199.62,362.062c13.881-20.252,22.983-25.031,30.947-22.073
							c7.964,2.958,14.563-9.102,29.582-5.689c-3.921-4.029-7.428-7.013-10.629-9.338c-4.191,0.764-7.702,2.573-9.903,4.36
							c-4.376,3.555-6.205,4.409-17.242,3.727c-11.036-0.683-17.673,7.926-22.852,16.179c-0.78-0.85-39.725-26.362-39.725-26.362
							s-2.579,3.091-7.889,6.58c2.124,3.034,0.91,10.164-1.757,16.232c-1.364,3.105-4.108,3.547-6.464,3.24
							c-1.031,1.883-2.382,3.276-4.144,3.814c6.827,6.599,19.342-6.371,20.935-16.156
							C183.691,348.637,198.482,360.242,199.62,362.062z"/>
					</g>
				</g>
			</g>
			<g>
				<g>
					<path style="fill:#E2A569;" d="M241.873,309.18c0,0,2.802,4.717,7.656,8.13c4.855,3.413,13.805,14.488,15.246,16.46
						c1.441,1.972,2.996,3.603,3.508,4.855c0.512,1.251-1.479,1.422-2.958,0.74c-1.365,0.796-3.875-0.648-6.315-3.129
						c-2.439-2.481-8.068-7.446-10.116-8.641c-2.048-1.195-3.935-1.372-4.219-0.291c-0.284,1.081,1.422,2.674,1.764,4.551
						c0.341,1.877-0.027,4.61-2.162,5.006c-2.134,0.396-2.332-2.901-3.072-5.177c-0.74-2.276-3.982-3.982-4.835-6.77
						c-0.853-2.788-0.341-4.039-0.626-5.404c-0.285-1.365-3.091-3.906-3.091-3.906S236.269,309.368,241.873,309.18z"/>
				</g>
				<g>
					<path style="fill:#ECB67B;" d="M241.873,309.18c0,0,2.802,4.717,7.656,8.13c4.855,3.413,13.805,14.488,15.246,16.46
						c1.441,1.972,2.996,3.603,3.508,4.855c0.512,1.251-1.479,1.422-2.958,0.74c-1.365,0.796-3.086-0.453-5.525-2.934
						s-8.562-8.861-10.61-10.056c-2.048-1.195-4.231-0.152-4.515,0.929c-0.284,1.081,1.422,2.674,1.764,4.551
						c0.341,1.877-0.027,4.61-2.162,5.006c-2.134,0.396-1.334-3.448-2.074-5.724c-0.74-2.276-4.101-3.879-4.954-6.667
						s-0.64-4.346-0.924-5.712c-0.285-1.365-3.672-3.155-3.672-3.155S236.269,309.368,241.873,309.18z"/>
				</g>
				<g>
					<path style="fill:#E2A569;" d="M243.061,310.913c-0.776-1.041-1.188-1.732-1.188-1.732c-5.604,0.188-9.22,6.423-9.22,6.423
						s2.537,2.299,3.028,3.699C236.571,315.084,238.526,310.348,243.061,310.913z"/>
				</g>
				<g>
					<path style="fill:#E2A569;" d="M265.577,339.635c-0.092,0-0.199-0.016-0.32-0.054l-0.339-0.106l0.238-0.264
						c0.77-0.851-2.111-4.223-4.214-6.686c-0.462-0.541-0.909-1.064-1.311-1.55c-2.406-2.909-8.219-7.886-8.278-7.936l-1.193-1.02
						l1.434,0.639c2.154,0.96,9.446,8.488,12.258,11.925c1.882,2.3,2.724,4.09,2.251,4.788
						C266.042,339.463,265.884,339.635,265.577,339.635z M263.098,334.39c1.759,2.167,2.85,3.817,2.596,4.76
						c0.012-0.009,0.023-0.019,0.032-0.033c0.157-0.232,0.064-1.447-2.226-4.245C263.375,334.72,263.241,334.559,263.098,334.39z"/>
				</g>
			</g>
			<g>
				<path style="fill:#C49576;" d="M197.544,332.179c0,0,3.327,2.292,5.792-3.87s1.232-6.507,2.169-8.725
					c0.936-2.218,0.887-4.88-0.493-5.447s-6.211,1.996-7.468,4.658S195.942,330.577,197.544,332.179z"/>
				<g>
					<path style="fill:#E2A569;" d="M201.743,313.29c0,0,6.144,4.475,9.254,5.689c3.11,1.214,9.861,5.234,13.122,8.04
						c3.262,2.807,8.609,7.851,9.69,8.988c1.081,1.138,4.267,5.973,5.063,7.396c0.797,1.422-1.593,1.745-1.479,1.745
						c0.948,1.327,0.872,1.176,1.062,1.631c0.19,0.455-0.076,1.896-2.541,1.1c-1.517-0.417-5.006-5.082-5.651-5.727
						c-0.645-0.645-5.624-5.328-6.989-6.239c-1.365-0.91-1.089-0.36-0.596-0.133c0.493,0.228,4.741,4.854,6.258,6.182
						c1.517,1.327,3.83,4.02,4.399,5.006c0.569,0.986-0.948,2.2-2.503,1.403c-1.555-0.796-3.982-3.489-4.816-4.21
						c-0.834-0.721-4.415-3.743-5.477-5.033c-1.062-1.289-2.224-2.032-2.982-2.07s0.912,0.049,1.86,1.148
						c0.948,1.1,4.324,4.399,5.044,5.272c0.72,0.872,1.896,1.972,1.972,2.617c0.076,0.645-1.214,1.555-3.072,0.038
						c-1.858-1.517-3.527-3.11-4.399-3.944c-0.872-0.834-2.351-1.673-3.679-2.429c-1.327-0.756-2.844-2.16-3.224-2.425
						c-0.379-0.266-5.234-2.655-8.419-7.737c-2.124-2.655-8.951-6.22-8.951-6.22S194.993,313.214,201.743,313.29z"/>
				</g>
				<g>
					<path style="fill:#ECB67B;" d="M201.743,313.29c0,0,6.144,4.475,9.254,5.689c3.11,1.214,9.861,5.234,13.122,8.04
						c3.262,2.807,8.609,7.851,9.69,8.988c1.081,1.138,4.267,5.973,5.063,7.396c0.797,1.422-1.593,1.745-1.479,1.745
						c0.948,1.327,0.872,1.176,1.062,1.631c0.19,0.455-0.076,1.896-2.541,1.1c-1.517-0.417-4.262-5.517-4.907-6.161
						c-0.645-0.645-6.016-5.467-7.382-6.377c-1.365-0.91-1.441,0.213-0.947,0.44c0.493,0.228,4.741,4.854,6.258,6.182
						c1.517,1.327,3.83,4.02,4.399,5.006c0.569,0.986-0.948,2.2-2.503,1.403c-1.555-0.796-3.618-3.9-4.452-4.621
						c-0.834-0.721-4.225-4.034-5.287-5.324c-1.062-1.289-1.753-1.888-2.511-1.926c-0.758-0.038-0.114,0.607,0.834,1.707
						c0.948,1.1,4.324,4.399,5.044,5.272c0.72,0.872,1.896,1.972,1.972,2.617c0.076,0.645-1.214,1.555-3.072,0.038
						c-1.858-1.517-3.527-3.11-4.399-3.944c-0.872-0.834-2.351-1.673-3.679-2.429c-1.327-0.756-2.844-2.16-3.224-2.425
						c-0.379-0.266-5.234-2.655-8.419-7.737c-2.124-2.655-8.951-6.22-8.951-6.22S194.993,313.214,201.743,313.29z"/>
				</g>
				<path style="fill:#E2A569;" d="M237.393,345.148c0,0-3.447-4.245-4.038-5.169c-0.591-0.924-5.028-5.261-6.852-6.592
					c-1.824-1.331-2.218-2.33-1.627-2.25c0.591,0.081,3.943,3.556,5.311,4.924c1.368,1.368,3.031,3.221,3.475,3.699
					C234.107,340.238,237.02,344.216,237.393,345.148z"/>
				<g>
					<path style="fill:#E2A569;" d="M208.048,317.465c-2.992-1.763-6.304-4.175-6.304-4.175c-6.751-0.076-7.054,10.088-7.054,10.088
						s4.372,2.284,7.207,4.557C201.236,322.804,202.413,317.03,208.048,317.465z"/>
				</g>
				<g>
					<path style="fill:#F2E1D1;" d="M137.649,244.949c0,0,2.85-14.048,8.707-17.795s19.586,3.687,21.065,13.547
						c1.479,9.861-1.555,12.591-1.555,15.777c0,3.186,1.214,5.158,0.758,9.709c-0.455,4.551,1.214,16.535,2.427,20.783
						c1.214,4.248,2.276,3.11,2.427,4.779s2.351,1.289,3.186,2.048c0.834,0.759,9.481,7.282,14.26,9.557
						c4.779,2.276,15.246,10.695,15.246,10.695s-7.282,5.71-8.078,17.088c-10.695-4.21-12.458-7.19-21.447-10.603
						c-8.988-3.413-10.41-3.527-13.71-5.803c-3.299-2.276-8.306-3.641-10.783-8.419c-1.71-3.298-5.004-9.277-8.787-24.803
						C137.152,264.213,137.118,251.965,137.649,244.949z"/>
				</g>
				<path style="fill:#DBB393;" d="M205.012,314.138c0,0-2.805,1.471-5.489,6.876c-2.684,5.405-2.127,10.352-1.979,11.165
					c-3.549-1.331-9.228-4.612-9.228-4.612s-0.089-4.631,3.756-12.469c3.845-7.837,7.775-4.412,7.775-4.412L205.012,314.138z"/>
				<path style="fill:#EAD3C1;" d="M171.848,292.587c0,0-9.722-0.632-11.496,8.759C159.761,296.54,164.934,289.226,171.848,292.587z
					"/>
				<path style="fill:#EAD3C1;" d="M170.063,290.058c0,0-6.95-3.894-11.189,3.155C160.352,288.924,166.267,285.277,170.063,290.058z
					"/>
				<path style="fill:#EAD3C1;" d="M146.55,235.392c0,0,6.843-2.169,11.456,5.619c4.613,7.788,3.358,9.437,7.88,16.154
					c-2.872-2.549-4.45-6-7.013-11.324S154.93,236.674,146.55,235.392z"/>
			</g>
			<g>
				<g>
					<path style="fill:#D3B092;" d="M177.667,196.708c0,0-3.535-1.54-5.846,2.654c-2.28,4.132,4.398,7.016,4.398,7.016
						L177.667,196.708z"/>
				</g>
				<g>
					<g>
						<path style="fill:#E2A569;" d="M176.713,193.152l-2.973,13.037l-1.917,6.371c0,0,19.007,12.295,20.988,12.295
							c-0.181-3.299,3.624-13.774,3.624-13.774s-11.695-9.427-13.198-13.105C181.733,194.298,176.713,193.152,176.713,193.152z"/>
					</g>
					<g>
						<path style="fill:#F4E7DC;" d="M195.827,209.341c0,0,3.489,4.281,3.565,8.149c0.076,3.868-6.485,8.04-6.485,8.04
							s-0.501-4.063,0-6.902C193.779,213.687,195.827,209.341,195.827,209.341z"/>
					</g>
					<g>
						<g>
							<path style="fill:#ECB67B;" d="M209.404,171.98c0,0,1.745,1.896,2.124,7.282c0.379,5.385,0.303,7.585,0,8.666
								c-0.303,1.081-0.312,3.015-0.934,4.153c-0.621,1.138-0.394,6.087-1.532,8.021c-1.138,1.934-2.105,4.608-2.56,6.94
								c-0.455,2.332-0.114,4.267-2.844,5.404c-2.731,1.138-7.452,1.138-11.947-1.251c-4.494-2.389-8.932-7.737-10.638-13.198
								c-1.707-5.461-4.551-10.126-3.641-15.587c0.91-5.461,2.617-14.563,9.216-16.725
								C193.248,163.523,209.404,171.98,209.404,171.98z"/>
						</g>
						<g>
							<path style="fill:#E2A569;" d="M197.359,172.729c2.901,1.308,8.463,4.163,10.795,3.993c2.332-0.171,3.014-3.187,3.014-3.187
								c0.171-11.643-29.828-14.222-35.062-7.623c-5.234,6.599-4.627,14.184-3.565,21.065c1.062,6.881,3.413,10.999,3.413,10.999
								l0.986-3.101c0,0-4.703-7.801-0.683-9.363c4.02-1.562,5.556,6.009,4.798,9.714c-0.758,3.705,0.588,6.562,2.181,8.989
								c1.593,2.427,7.358,8.875,14.639,9.406c3.941,0.287,6.042-0.415,7.106-1.298c0.04-0.021,0.079-0.055,0.117-0.099
								c0.003-0.002,0.005-0.005,0.008-0.007c0,0,0.001,0,0.001,0l0.001-0.001c0.304-0.278,0.511-0.57,0.646-0.853
								c2.179-5.68,2.905-10.526,2.905-10.526s-0.561-0.736-3.121-0.906c-2.183-0.146-10.454,0.225-12.94,2.251
								c-2.038-2.506-5.789-3.804-6.061-4.981c-0.341-1.479-0.796-7.168,0.74-8.988c1.536-1.82,4.391-4.037,4.391-5.686
								c0-1.65-3.305-3.633-2.736-8.355C189.499,169.449,194.458,171.42,197.359,172.729z"/>
						</g>
						<g>
							<path style="fill:#5B2D00;" d="M196.832,170.69c2.901,1.309,9.159,5.518,11.492,5.348c2.332-0.171,2.844-2.503,2.844-2.503
								c0.171-11.643-29.828-14.222-35.062-7.623c-5.234,6.599-4.627,14.184-3.565,21.065c1.062,6.881,3.413,10.999,3.413,10.999
								l0.986-3.101c0,0-4.703-7.801-0.683-9.363c4.02-1.562,7.357,5.658,6.599,9.363c-0.758,3.705-1.214,6.914,0.379,9.341
								c1.593,2.427,7.544,13.491,14.826,14.022c3.941,0.287,5.866-1.003,7.838-6.236c2.895-7.43,2.758-11.165,2.758-11.165
								s-0.561-0.736-3.121-0.906c-2.183-0.146-10.454,0.225-12.94,2.251c-2.038-2.506-5.789-3.804-6.061-4.981
								c-0.341-1.479-0.796-7.168,0.74-8.988c1.536-1.82,3.356-4.551,3.356-6.201s-3.47-3.243-2.901-7.964
								C188.299,169.325,193.931,169.382,196.832,170.69z"/>
						</g>
						<path style="fill:#6B3505;" d="M211.168,173.535c0.037-2.501-1.322-4.583-3.525-6.247c-5.292-2.951-6.069-0.068-6.069-0.068
							c0.111,0,5.878,4.251,6.876,6.285c0.555,1.109,0.191,2.108-0.126,2.533C211.169,175.816,211.168,173.535,211.168,173.535z"/>
						<path style="fill:#6B3505;" d="M200.427,206.593c0,0,2.921,2.033,5.065,0.37c0.444,3.66-0.074,6.322-1.183,8.429
							c-1.109,2.107-2.958,3.179-5.582,3.068c-2.625-0.111-5.065-1.516-6.322-2.662C196.324,216.87,200.058,210.327,200.427,206.593
							z"/>
						<g>
							<path style="fill:#F9EEE5;" d="M172.715,188.018c0,0,2.081,0.232,10.236-6.063c8.155-6.296,14.772-15.36,26.301-13.388
								c-2.124-3.565-12.819-12.06-28.065-7.357C170.265,164.85,169.056,182.1,172.715,188.018z"/>
						</g>
						<path style="fill:#FFFAF5;" d="M181.188,161.209c-2.531,0.844-4.535,2.424-6.083,4.419c10.216-2.13,18.081,1.592,22.235,5.001
							c3.459-1.868,7.291-2.853,11.913-2.063C207.129,165.002,196.434,156.506,181.188,161.209z"/>
						<g>
							<path style="fill:#F2E1D1;" d="M206.493,204.065c0,0-2.54,0.986-6.94-0.948C201.449,206.909,205.612,206.749,206.493,204.065
								z"/>
						</g>
						<g>
							<path style="fill:#5B2D00;" d="M205.384,187.605c0,0-3.262-1.934-5.954-2.086s-5.272,2.351-5.689,2.844
								c3.451-1.631,5.423-1.858,7.433-0.834C203.185,188.553,204.398,188.895,205.384,187.605z"/>
						</g>
						<g>
							<path style="fill:#5B2D00;" d="M208.324,188.184c0,0,1.877-1.707,2.958-2.02c1.081-0.313,0.882,0.29,0.882,0.813
								c0,0.524-0.378,1.064-0.378,1.064s-0.987-0.313-1.812,0.142C209.148,188.639,208.608,188.98,208.324,188.184z"/>
						</g>
						<g>
							<path style="fill:#E2A060;" d="M207.925,188.661c0,0-0.796,2.092,1.365,7.022c1.176,3.262,0.873,4.762,0,5.196
								c-0.873,0.433-5.082,0.228-5.689-0.91s0.796-2.313,1.783-2.313"/>
						</g>
						<g>
							<path style="fill:#ECB67B;" d="M207.925,188.661c0,0-1.394,2.13,0.768,7.06c1.176,3.262,1.011,4.355,0.138,4.788
								c-0.873,0.433-4.623,0.597-5.23-0.541s0.796-2.313,1.783-2.313"/>
						</g>
						<path style="fill:#E2A569;" d="M206.084,197.609c0,0-3.078,0.098-2.482,2.36C202.682,198.94,203.533,196.475,206.084,197.609z
							"/>
						<g>
							<path style="fill:#BA743A;" d="M202.199,190.525c0.054,0.734-0.137,1.544-0.698,2.126c-0.274,0.292-0.637,0.497-1.018,0.618
								c-0.387,0.111-0.801,0.126-1.195,0.058c-0.794-0.149-1.454-0.602-2.012-1.101c-0.563-0.504-1.027-1.092-1.449-1.702
								c0.555,0.494,1.099,0.992,1.675,1.428c0.289,0.216,0.586,0.417,0.9,0.577c0.309,0.166,0.634,0.297,0.969,0.35
								c0.657,0.132,1.373-0.039,1.886-0.485C201.77,191.949,202.078,191.253,202.199,190.525z"/>
						</g>
						<g>
							<path style="fill:#BA743A;" d="M208.21,190.677c0.149,0.323,0.288,0.633,0.457,0.912c0.168,0.275,0.362,0.53,0.603,0.658
								c0.218,0.143,0.472,0.098,0.751-0.055c0.273-0.152,0.53-0.379,0.795-0.614c-0.11,0.34-0.3,0.656-0.59,0.904
								c-0.144,0.126-0.324,0.226-0.538,0.275c-0.216,0.048-0.46-0.013-0.641-0.114c-0.365-0.213-0.578-0.562-0.7-0.904
								C208.221,191.395,208.173,191.033,208.21,190.677z"/>
						</g>
						<g>
							<path style="fill:#E2A569;" d="M179.68,186.422c0,0-2.219-3.755-4.608-2.105c-2.389,1.65-0.18,9.216,2.498,11.264
								c2.678,2.048,4.328,2.276,4.556-0.398C182.354,192.509,180.364,187.357,179.68,186.422z"/>
						</g>
						<g>
							<path style="fill:#ECB67B;" d="M179.68,186.422c0,0-2.219-3.755-4.608-2.105c-2.389,1.65-0.18,9.216,2.498,11.264
								c2.678,2.048,4.346,0.685,4.574-1.989C182.372,190.918,180.364,187.357,179.68,186.422z"/>
						</g>
						<path style="fill:#E2A569;" d="M177.667,193.764c0,0-1.566-1.577-2.158-3.87c-0.592-2.292-0.764-4.387,0.394-4.88
							c1.158-0.493,2.514,1.818,2.736,3.004c0.222,1.186,0.173,1.408,0.961,2.073c0.789,0.665,1.454,1.922,1.454,2.76
							c0,0.838-0.69,1.577-1.602,0.912c-0.912-0.665-0.493-1.898-0.37-2.489c0.123-0.592-1.107-1.306-1.416-1.306
							c-0.309,0-0.41,1.331-0.41,1.331c-0.614-0.542-0.811-1.577-0.343-2.193c0.468-0.616,1.184-0.025,1.184-0.025
							c-0.247-1.775-0.37-2.12-1.011-2.859c-0.641-0.739-1.553-0.789-1.651,0.468C175.337,187.948,176.103,191.842,177.667,193.764z
							"/>
					</g>
				</g>
				<g>
					<g>
						<path style="fill:#F2E1D1;" d="M171.822,199.362c0,0-0.533,2.238,4.701,5.158c5.234,2.92,18.63,10.909,16.384,21.011
							c-11.492-3.299-24.121-12.939-25.486-17.221C168.672,204.596,171.822,199.362,171.822,199.362z"/>
					</g>
				</g>
			</g>
		</g>
	</g>
</g>
</svg>
