<?xml version="1.0" encoding="utf-8"?>
<!DOCTYPE svg PUBLIC "-//W3C//DTD SVG 1.1//EN" "http://www.w3.org/Graphics/SVG/1.1/DTD/svg11.dtd">
<svg version="1.1" id="Layer_1" xmlns="http://www.w3.org/2000/svg" xmlns:xlink="http://www.w3.org/1999/xlink" x="0px" y="0px"
	 viewBox="-32 -21 2070 1762" enable-background="new -32 -21 2070 1762" xml:space="preserve">
<g id="_x23_000000ff">
	<path stroke="#000000" stroke-width="0.0938" d="M368.47,8.49c3.91-5.05,10.34-7.69,16.67-7.37c-4.36,0.97-8.71,2.83-11.49,6.49
		c-5.58,6.45-5.32,16.94,0.56,23.11c4.97,5.78,13.81,7.45,20.66,4.24c3.36-1.44,5.72-4.31,8.15-6.92c-2.73,7.15-9.43,12-16.87,13.22
		c0.04,4.42,0.02,8.84,0.03,13.26c1.94,1.41,4.42,2.76,4.83,5.37c0.81,2.68-0.95,5.04-2.3,7.16c-0.06,4.33-0.15,8.67-0.06,13
		c-0.22,3.5,3.94,5.4,3.77,8.96c0.41,3.5-2.21,6.12-4.69,8.14c0.19,2.2,0.4,4.4,0.62,6.6c2.49,1.86,5.21,3.98,5.8,7.24
		c1.1,3.5-0.72,6.87-2.45,9.8c4.74,14.42,7.28,29.44,9.72,44.39c3.67,23.85,6.16,47.87,8.04,71.93c0.18,1.14,0.06,2.45,0.76,3.45
		c4.9,6.26,12.69,10.6,15.23,18.48c-0.21,3.77-4.44,5.23-7.22,6.88c0.59,8.17,0.22,16.48,1.38,24.58
		c9.07,9.23,18.58,18.29,25.6,29.27c2.26,3.57,4.47,8.27,1.91,12.29c-4.57,6.96-13.04,9.79-20.61,12.19
		c0.01,22.31,0.4,44.63,0.5,66.94c7.18,0.03,14.35-0.01,21.53,0.03c0.23,8.33,0.38,16.67,0.74,25.01
		c6.72,2.84,12.55,8.47,14.2,15.74c1.61,7.58-0.35,15.72-4.8,22.01c-7.63,10.82-20.13,17.25-26.93,28.73
		c-3.34,5.46-4.61,11.91-4.41,18.25c-0.1,162.7599-0.04,325.52,0.07,488.27c3.74-0.02,7.47-0.06,11.21-0.18
		c-0.06,6.04,0.05,12.08,0.04,18.1301c4.32,1.6399,10.36,2.1599,12.56,6.7799c-1.64,11.4301-13.87,18.36-14.97,30.03
		c2.53,102,5.12,204,7.68,306.01c1.05,38.9399,1.82,77.91,3.04,116.84c2.08,0.1901,4.17,0.17,6.26,0.23
		c0.05-37.36-0.07-74.71-0.06-112.0599c-0.04-5.35-0.34-10.92,1.92-15.92c4.48-10.45,13.86-17.87,23.57-23.26
		c-1.06-0.7899-2.74-1.2-2.93-2.72c0.26-1.1899,0.65-2.29,1.01-3.41c-2-1.97-1.99-4.5699-0.15-6.61
		c-2.86-0.72-5.86-1.5599-7.95-3.75c-3.83-3.71-4.66-10-1.9-14.5599c1.32-2.6,4.04-3.89,6.13-5.73
		c-8.47-36.12-2.23-76.15,19.45-106.6001c8.96-12.6599,20.86-23.1699,34.43-30.6699c19.88-11.23,41.5-18.9601,63.27-25.65
		c1.86-0.3101,2.44-2.24,3.48-3.53c0.11-1.97-0.27-4.2999,1.38-5.73c1.51-1.5,2.67-3.24,2.8-5.41c-0.74-2.13-1.54-4.25-1.88-6.47
		c1.9-2.73,2.81-5.8,2.47-9.14c-1.34-4.51,1.44-8.85,0.79-13.4199c-3.44-0.9901-6.99-2.3501-9.2-5.3101
		c-4.81-5.58-3.94-14.9,1.83-19.48c3.12-2.9,7.5-3.47,11.59-3.51c-4.45,1.35-9.4,3.22-11.29,7.88c-3.62,6.98,1.34,16.33,9.08,17.4
		c4.57,1.08,8.7-1.53,12.17-4.1801c-2.93,4.36-7.7,6.91-12.89,7.4301c0.12,5.48,1.83,10.7899,1.5,16.3099
		c-0.34,2.26,1.08,4.1,1.79,6.12c-0.63,3.13-1.6,6.2201-1.59,9.4601c3.75,2.4199,3.56,7.0299,4.51,10.9099
		c20.56,6.61,40.83,14.5601,59.57,25.38c13.44,7.66,25.48,17.91,34.58,30.4701c22.45,30.5399,29.02,71.21,20.35,107.7999
		c2.59,2.33,5.98,4.25,6.87,7.91c2.65,6.91-2.91,15.9199-10.62,15.37c0.93,0.88,1.95,1.67,2.82,2.67
		c0.99,1.8899-0.91,3.4099-1.85,4.8199c0.6,0.9,1.21,1.8099,1.83,2.74c14.63-0.04,29.26-0.04,43.89,0.01
		c-5.69-2.4301-10.87-6.23-14.26-11.46c-6.43-9.4-6.72-22.52-0.66-32.16c3.06-5.1901,7.88-9.0601,13.19-11.77
		c-10.47-11.84-20.65-23.99-29.17-37.34c-11.86-18.23-20.74-38.5801-24.5699-60.05c-3.09-17.0699-3.59-34.58-2.09-51.84
		c1.85-19.92,7.26-39.74,17.43-57.0701c9.92-17.6599,24.33-32.3899,40.06-44.98c29.43-23.2599,63.11-40.3799,92.88-63.17
		c22.34-17.03,42.23-38.13,54.38-63.69c-1.73-0.86-4.19-1.19-4.85-3.3c-0.72-1.76,0.5-3.45,1.0099-5.06
		c-5.21-3.41-8.78-9.45-8.13-15.79c0.38-7.75,6.89-14.26,14.47-15.32c-1.18-1.62-2.69-3.35-2.2-5.51c0.04-2.14,2.05-3.31,3.41-4.64
		c0.1-21.44,0.02-42.88,0.04-64.32c-12.85-0.37-25.53-5.4-34.94-14.18c-10.59-9.66-17.1-23.66-17.43-38
		c-0.6-15.85,6.31-31.77,18.33-42.12c13.14-11.66,32.25-16.29,49.2-11.49c-11.61-1.07-23.5699,1.82-33.17,8.48
		c-13.14,8.85-21.53,24.28-21.75,40.12c-0.44,15.79,7.25,31.5,19.93,40.89c10.16,7.75,23.39,11.19,36.06,9.6
		c8.53-0.94,16.6-4.44,23.6-9.33c-9.75,9.97-23.42,15.71-37.32,16.11c0.06,21.39-0.01,42.79,0.03,64.18
		c1.29,1.33,3.25,2.44,3.42,4.5c0.52,2.21-0.91,4.07-2.08,5.77c7.58,1.53,13.87,8.37,13.8,16.27c0.28,5.61-2.9,10.61-7.07,14.08
		c1.48,1.61,3.56,3.61,2.29,6.02c-1.06,2.72-4.36,2.45-6.7,2.78c12.65,31.43,38.34,55.3799,65.92,73.98
		c30.9,21.55,64.93,38.86,92.93,64.3799c13.17,12.04,24.72,26.0601,32.75,42.0601c9.28,18.15,13.86,38.4299,14.86,58.71
		c0.88,20.49-0.35,41.3201-6.14,61.0801c-8.74,30.1399-28.48,55.5299-49.9299,77.8099c5.45,2.73,10.51,6.55,13.7,11.85
		c5.91,9.14,6.05,21.5601,0.5,30.9c-3.47,6.0701-9.1799,10.6901-15.71,13.1c16.87-0.23,33.74-0.09,50.62-0.0699
		c0.64-0.99,1.3099-1.9501,1.99-2.89c-2.62-1.62-2.51-4.45-0.8199-6.6899c-5.67-0.8401-10.9601-5.16-11.29-11.16
		c-0.74-5.61,3.1899-10.35,7.9199-12.75c-9.1599-37.64-1.7799-79.8101,22.2001-110.61c9.63-12.5,22.39-22.3,36.4-29.4501
		c19.12-10.0299,39.5499-17.34,60.21-23.47c0.45-1.05,0.92-2.09,1.42-3.11c-0.15-3.36,1.2-6.4401,4.22-8.0701
		c0.04-3.5-1.41-6.7699-1.64-10.2c0.66-1.04,1.53-1.9299,2.38-2.8199c0.0599-4.1801-0.99-8.4401,0.24-12.52
		c0.51-2.12,0.48-4.3101,0.53-6.4601c-4.49-1.11-8.89-3.62-10.88-7.98c-3.1801-6.1599-0.84-14.35,5.0499-17.96
		c3.3301-2.3199,7.53-2.25,11.42-2.3199c-4.86,0.84-10.27,2.58-12.4399,7.47c-3.8301,6.86,0.7899,16.4,8.5299,17.7
		c4.9501,1.24,9.62-1.48,12.9801-4.9c-2.8601,4.67-7.6801,7.8201-13.2201,8.0801c-0.0499,6.4,2.2101,12.59,1.37,19.0399
		c3.3501,3.29,0.36,7.52,0.1901,11.4301c0.01,0.39,0.02,1.1801,0.02,1.5699c3.89,2.41,3.5,7.1901,4.7799,11.0601
		c20.2001,6.3,39.99,14.25,58.4301,24.7c14.15,7.91,26.75,18.7001,36.16,31.9401c21.89,30.4299,28.2899,70.64,19.6499,106.85
		c1.9701,1.83,4.51,3.1801,5.8601,5.62c2.5,4.1801,2.08,9.86-1.01,13.63c-1.7101,2.26-4.48,3.1801-6.87,4.49
		c0.39,1.34,1.0299,2.65,1.33,4.0601c-0.49,1.09-1.45,1.87-2.1899,2.7899c0.6699,1.29,1.9299,2.66,1.24,4.26
		c-0.89,0.6801-1.79,1.3301-2.7101,1.9501c8.89,4.96,17.5801,11.24,22.7101,20.2699c2.4299,4.17,3.5,9,3.3899,13.8201
		c-0.1599,32.99,0,65.99-0.1299,98.99c4.2899-0.01,8.58,0,12.8899-0.01c3.24-133.99,6.51-267.98,9.6801-401.97
		c-0.05-3.3101,0.66-6.8101-0.7-9.9401c-3.9401-8.6699-9.9901-16.2999-13.3501-25.23c-1.0299-2.0699,0.9701-3.8099,2.77-4.36
		c4.41-1.54,9.16-1.04,13.75-1.1c0.09-5.64,0.04-11.27,0.15-16.89c2.67-0.46,5.36-0.93,8.0601-1.38
		c1.8099-157.37,3.3899-314.74,5.1899-472.11c0.87-10.41-0.91-20.99-4.89-30.63c-2.98-7.04-7.85-13.75-15.01-16.93
		c-9.8199-3.56-16.35-12.77-20.1-22.12c-2.29-5.2-0.16-10.89,2.22-15.63c3.38-6.57,9.91-10.89,16.88-12.88
		c0.1-8.29,0.25-16.57,0.36-24.86c7.27,0.27,14.54,0.16,21.8201,0.51c0.2-23.03,0.23-46.06,0.38-69.09
		c-7-1.65-14.9301-2.94-19.9601-8.58c-3.08-3.31-2.58-8.41-0.3199-12.03c8.04-13.49,19.3-24.88,32.09-33.9
		c0.49-7.72,0.11-15.49,0.14-23.22c-3.25-0.43-8.65-1.21-8.1799-5.63c3.46-8.19,11.23-13.46,16.24-20.5
		c2.4299-23.88,5.0199-47.8,9.63-71.39c3.35-16.03,7.0199-32,11.0299-47.88c-2.11-2.59-4.09-5.72-3.4099-9.22
		c0.2999-3.76,3.26-6.4,6.22-8.34c0.33-2.04,0.66-4.08,1.04-6.12c-3.05-2.2-6.16-5.43-5.2201-9.55c0.2201-3.8,5.41-4.98,4.98-8.93
		c0.2001-3.67,0.6901-7.36,0.4601-11.04c-1.79-2.09-4.54-3.97-4.03-7.13c0.01-3.19,2.8199-5.12,5.35-6.45
		c0.11-4.36,0.0701-8.72,0.0601-13.07c-5.66-0.84-11.41-3.09-14.9601-7.77c-5.83-7.06-5.8199-18.17,0.15-25.14
		c3.91-5.04,10.3201-7.7,16.65-7.36c-4.37,0.95-8.71,2.84-11.48,6.5c-5.41,6.27-5.35,16.39,0.14,22.6
		c4.71,5.9,13.36,7.93,20.3099,5.06c3.73-1.35,6.3301-4.47,9-7.26c-2.85,7.11-9.46,12.02-16.95,13.23
		c0.04,4.42,0.02,8.84,0.0499,13.27c1.9301,1.41,4.42,2.77,4.8301,5.39c0.78,2.68-0.98,5.03-2.3201,7.15
		c0.03,4.94-0.35,9.9,0.14,14.82c1.41,2.57,4.02,4.85,3.5701,8.08c0,3.15-2.51,5.29-4.67,7.17c0.17,2.2,0.38,4.39,0.61,6.59
		c2.49,1.89,5.23,4.02,5.8101,7.31c1.0699,3.48-0.74,6.81-2.4601,9.71c5.9801,18.62,8.8201,38.05,11.6001,57.35
		c2.7899,20.64,4.8199,41.38,6.4299,62.15c4.99,5.61,11.4401,10.11,15.0601,16.82c2.46,4.55-3.36,7.15-6.5601,8.85
		c0.39,7.71,0.53,15.45,1.04,23.16c-0.1,1.28,0.89,2.13,1.71,2.96c7.84,7.49,15.37,15.37,21.8101,24.11
		c2.2899,3.33,4.75,6.79,5.47,10.86c0.39,3.78-2.12,7.09-4.91,9.34c-4.9399,3.85-10.88,6.15-16.84,7.9
		c0.01,22.32,0.39,44.63,0.5,66.94c7.1799,0.03,14.35-0.02,21.54,0.04c0.22,8.33,0.37,16.67,0.73,25.01
		c6.5499,2.76,12.25,8.17,14.0699,15.2c1.9401,8.13-0.35,16.94-5.37,23.52c-6.86,9.08-16.91,15.11-23.8199,24.14
		c-4.35,5.63-6.88,12.67-6.8,19.81c-0.2,163.41,0.0601,326.82-0.03,490.23c3.75,0.08,7.52,0.05,11.29-0.08
		c-0.0599,6.03,0.04,12.07,0.05,18.1201c4.2899,1.63,10.34,2.1699,12.5199,6.75c-0.6,6.8999-6.0099,12.0099-9.58,17.59
		c-2.3199,3.83-5.2,7.8099-5.36,12.45c3.33,134.99,6.84,269.98,10.13,404.97c14.75,0.0901,29.51,0.1101,44.27-0.0099
		c0.0599-19.03,0.62-38.0601,0.58-57.0801c-1.64-2.41-4.02-4.24-5.41-6.8099c-3.84-6.5701-4.22-14.4301-3.6799-21.8201
		c3.45-0.03,6.9-0.03,10.37-0.02c0.76-31.09,1.42-62.1699,2.16-93.26c0.2899-3.3799-2.5-5.8099-3.88-8.61
		c-9.41-16.8099-11.8101-36.7699-9.65-55.71c1.24-0.02,2.49-0.02,3.77-0.01c-0.02,3.33-0.05,6.7001,0.61,10
		c1.7-3.0599,0.8199-6.7,1.02-10.01c1.58-0.01,3.1799-0.01,4.7999,0.02c-0.02,3.28-0.0699,6.58,0.35,9.86
		c2.17-2.79,0.9601-6.6,1.26-9.83c1.8101-0.0601,3.65-0.1,5.49-0.14c-0.1499-25.2,0.15-50.41-0.1399-75.61
		c-2.29-4.3301-5.74-8.03-7.5-12.6801c-5.8301-12.6899-6.9501-27.0499-5.29-40.7899c5.11-0.05,10.22-0.01,15.34-0.0701
		c-0.48-17.78,1.4-35.7999-2.48-53.3099c-0.51-2.28-2.3-3.9-3.59-5.7101c-4.3101-5.49-7.12-12.2999-7.13-19.33
		c-0.03-9.02,0.01-18.03,0-27.05c1.96,0.02,3.9299,0.06,5.9199,0.11c-0.0599,4.42-0.0499,8.85-0.0399,13.28
		c0.99,0.02,2.01,0.06,3.0399,0.11c0.02-4.4901,0.01-8.98,0.02-13.46c2.24-0.01,4.49-0.01,6.76,0c0,4.59,0.01,9.19-0.02,13.79
		c1.01-0.03,2.05-0.04,3.11-0.04c-0.0499-4.59-0.0399-9.17-0.0199-13.75c2.1699-0.01,4.37-0.01,6.58,0
		c-0.0601-5.68,0.09-11.36-0.02-17.04c-0.14-5.21-3.2999-10-7.86-12.44c1.67-1.78,3.59-3.3,5.6901-4.55
		c-5.6101-3.18-10.1001-9.18-9.2201-15.91c1-8.9,9.3101-14.34,16.73-17.86c-0.21-1.77-0.5199-3.53-0.4099-5.29
		c0.5299-3.97,3.5699-7.04,4.35-10.93c-1.52-3.69-2.4401-8.54,1.83-10.78c-0.61-4.13-6.14-5.65-5.6799-10.2
		c1.02-5.37,5.61-9.44,6.2-14.99c-0.53-4.04-2.25-7.86-2.34-11.97c-0.37-5.37,1.23-10.63,3.59-15.39c-0.36-1.13-0.72-2.27-1.04-3.38
		c-3.7699-1.56-7.34-4.93-6.73-9.37c0.15-4.37,4.0601-7.04,7.9-8.11c-2.13,1.77-4.98,3.27-5.5,6.25
		c-1.15,4.26,2.1901,8.91,6.5601,9.28c2.74,0.48,5.0199-1.35,7.1699-2.76c-1.6599,1.96-3.6799,3.54-5.97,4.68
		c-0.38,1.12-0.71,2.27-1.05,3.41c3.9401,7.16,4.74,15.84,2.05,23.58c-2.87,7,4.27,12.34,5.4399,18.76
		c0.41,4.51-5,6.12-5.7699,10.16c1.11,1.15,2.83,2.06,3.1699,3.8c1.02,3.22-2.5299,6.33-0.51,9.42c2.3,4.24,4.78,8.83,3.1801,13.82
		c7.45,3.53,15.72,8.98,16.76,17.91c0.85,6.72-3.66,12.67-9.23,15.86c2.0499,1.28,3.96,2.79,5.6699,4.52
		c-4.5299,2.49-7.73,7.24-7.83,12.47c-0.11,5.67,0.04,11.35-0.02,17.04c2.1801,0,4.36,0,6.58,0.01c0.02,4.57,0.03,9.14-0.0199,13.71
		c1,0.03,2.0299,0.08,3.08,0.14c0.01-4.63,0-9.2599,0.02-13.88c2.25,0.02,4.52,0.05,6.8099,0.11
		c-0.08,4.41-0.0599,8.83-0.0499,13.25c0.99,0.04,2,0.09,3.03,0.15c0.0299-4.5,0.0199-8.99,0.0299-13.48
		c1.9401-0.01,3.9-0.01,5.87,0c-0.01,8.99,0.04,17.99,0,26.98c-0.02,7.0701-2.85,13.91-7.1899,19.42
		c-1.4,1.89-3.25,3.61-3.63,6.0399c-3.7001,17.4301-2.04,35.3401-2.25,53.01c5.04-0.08,10.1-0.0599,15.16-0.0399
		c1.63,12.98,0.71,26.48-4.3201,38.6599c-1.95,5.39-5.5499,9.9-8.46,14.75c-0.3101,25.2201,0,50.4501-0.15,75.6801
		c1.8101,0.05,3.62,0.09,5.47,0.16c-0.02,3.2899-0.0599,6.61,0.4601,9.89c2-2.8401,0.76-6.53,1.2999-9.7301
		c1.54-0.25,3.12-0.2899,4.72-0.37c0.01,3.05,0.01,6.1101,0.03,9.17l1.52-0.05c-0.02-2.99-0.02-5.97-0.01-8.95
		c1.26-0.02,2.54-0.02,3.85,0c2.0601,18.95-0.1799,38.9401-9.6599,55.75c-1.39,2.8-4.2201,5.1901-3.88,8.5699
		c0.6499,27.6901,1.2799,55.38,1.9099,83.0701c0.1001,3.35-0.0599,6.73,0.42,10.0699c3.38,0.25,6.78,0.1001,10.1899,0.12
		c1.01,10.01-0.72,21.5701-9.1299,28.15c0.11,19.1,0.46,38.2001,0.6599,57.3c6.61-3.12,13.7001-5.17,20.97-5.9501
		c-0.45-1.95-0.8199-3.8899-1.2599-5.8099c0.1699-0.6901,0.36-1.37,0.59-2.01c-4.46-0.8199-8.0701-5.34-6.41-9.89
		c0.61-2.86,5.27-3.83,4.0701-7.0699c-3.9401-18.02-1.66-37.37,6.46-53.9401c5.48-11.1699,13.97-20.96,24.6799-27.39
		c9.54-5.87,20.1001-9.75,30.52-13.71c4.0701-1.5699,8.4301-2.35,12.38-4.25c0.8101-2.47,1.41-5.1,3.4401-6.91
		c-0.3-1.97-0.67-3.9099-1.11-5.83c0.37-0.49,1.11-1.48,1.49-1.97c-0.2101-3.8401,0.09-7.66,0.6899-11.4401
		c-4.21-1.27-8.25-4.73-7.75-9.52c0.11-5.3999,5.63-8.9399,10.6901-8.0599c-2.9501,0.5699-6.2101,1.6699-7.4801,4.66
		c-1.84,3.71-0.0199,8.5699,3.8101,10.1699c2.98,1.6901,6.25,0.02,9.03-1.26c-2.11,2.0601-4.7101,3.47-7.61,4.02
		c0.49,3.79,0.85,7.59,1.11,11.42c1.24,2.51,0.21,5.24-0.0601,7.86c1.76,1.95,2.38,4.47,2.8201,7.02c14,4.74,27.98,10,40.47,18.0499
		c11.65,7.27,20.6,18.4601,25.97,31.03c7.05,16.35,8.36,34.95,4.3101,52.24c1.8999,1.52,4.2,3.16,4.52,5.8101
		c0.8799,4-2.13,8-6.1101,8.62c1.77,2.59,0.2301,5.62-0.2699,8.39c8.6499,1.9199,17.1699,4.63,25.1799,8.4399
		c3.4301,1.59,6.48,3.88,9.23,6.49c-0.0699-9.5599,0.24-19.11,0.25-28.67c-4.88-3.6599-8.72-8.6299-10.99-14.2899
		c-4.02-9.53-4.48-20.13-3.51-30.3c5.4501,0,10.89-0.03,16.35,0.04c1.2401-47.58,2.2001-95.16,3.3501-142.73
		c-0.2201-3.4701,0.9399-7.28-0.5601-10.51c-19.4199-28.13-24.73-63.9601-20.77-97.4c1.9701-0.01,3.9701-0.01,5.98,0
		c0,4.92-0.0299,9.84,0.03,14.77c0.5901-0.1901,1.76-0.5701,2.35-0.76c0.5-4.65,0.0801-9.35,0.2101-14.01
		c2.53-0.01,5.08-0.01,7.65,0c-0.01,4.8101-0.04,9.63,0.0399,14.45c0.61,0,1.8401,0,2.4501-0.01
		c0.0399-4.8199,0.0299-9.6299,0.0399-14.4399c2.89-0.01,5.78-0.01,8.7001,0c0.02-40.39-0.03-80.78,0.02-121.17
		c-19.26-23.1899-24.6101-55.22-20.42-84.45c8.05,0.04,16.1,0.02,24.16,0.01c0.01-14.46,0-28.92,0.01-43.38
		c0.2999-14.72-1.17-29.53-4.5701-43.84c-3.39-4.85-7.6899-9.13-10.25-14.57c-4.39-7.77-6.51-16.72-6.1899-25.63
		c0.0399-13.4-0.0601-26.8,0.0499-40.1899c3.12,0.0099,6.26,0.0099,9.4-0.01c0.05,7.18-0.01,14.36,0.05,21.54
		c1.58-0.12,3.21-0.22,4.84-0.34c-0.08-7.06-0.04-14.11-0.03-21.16c3.5701-0.02,7.15-0.02,10.75-0.01c0,7.33,0.01,14.65-0.01,21.98
		c1.5801,0,3.1801,0.0099,4.8101,0.04c0.0499-7.34,0.02-14.67,0.03-22.01c3.5-0.01,7.0199-0.02,10.5499-0.04
		c-0.0599-8.93-0.01-17.86,0-26.78c0.0701-4.71-2.11-9.1-4.45-13.05c-1.75-3.18-5.3-4.45-7.88-6.76c1.84-3.64,5.7899-5.31,9.02-7.48
		c-5.38-3.04-10.37-7.27-12.91-13.02c-3.1901-6.97-2.8-15.48,1.27-22.01c5.3199-8.82,14.4099-14.53,23.63-18.61
		c-0.7201-3.01-1.4701-6.13-0.86-9.22c1.09-6.13,5.96-10.8,7.0499-16.92c-0.38-3.07-3.3099-5.58-2.52-8.91
		c0-3.23,2.12-5.78,4.8401-7.26c-0.03-1.4-0.04-2.78-0.03-4.16c-4-2.75-8.12-6.44-8.61-11.57c-0.3101-5.07,3.4199-9.04,5.51-13.33
		c2.4099-4.78,5.6799-10.19,3.71-15.7c-2.14-6.46-3.5699-13.25-3.04-20.09c0.35-7.02,2.86-13.69,5.99-19.9
		c-1.2999-1.45-1.7999-3.23-1.6599-5.14c-5.92-1.45-11.01-6.56-11.0901-12.87c-0.5-7.71,6.55-14.64,14.29-13.86
		c-4.4399,0.73-8.6,3.49-9.98,7.92c-2.83,7.02,2.64,15.6,10.1799,16.08c4.3101,0.69,8.0901-1.85,11.0801-4.67
		c-2.15,3.7-5.66,6.2599-9.76,7.38c0.41,1.95-0.26,3.71-1.48,5.22c5.0499,9.42,7.46,20.43,5.2899,31.03
		c-0.62,4.42-2.86,8.52-3.0399,13c1,7.75,6.34,13.91,9.33,20.91c2.37,6.52-3.01,12.31-8.05,15.62c-0.0399,1.32-0.0599,2.66-0.0399,4
		c2.58,1.67,4.86,4.1,4.84,7.4c0.6901,3.32-2.16,5.85-2.51,8.96c1.04,5.81,5.4401,10.3,6.86,15.99c0.85,3.35,0.11,6.8-0.6799,10.09
		c9.12,4.08,18.14,9.68,23.49,18.39c3.7899,6.07,4.58,13.87,2.08,20.59c-2.24,6.52-7.6799,11.21-13.4299,14.65
		c3.0599,2.35,7.09,3.82,8.88,7.51c-2.4801,2.13-5.77,3.37-7.5601,6.25c-2.77,4.33-5.03,9.32-4.76,14.58
		c0.08,8.6-0.04,17.2,0.09,25.8c3.4601-0.04,6.9301-0.04,10.42-0.03c0,7.33-0.02,14.67,0.01,22c1.59,0,3.2,0.01,4.84,0.03
		c0.0901-7.36-0.08-14.72,0.12-22.07c3.53,0.04,7.0801,0.04,10.64,0.01c0.0601,7.16,0.01,14.32,0.04,21.49
		c1.58-0.08,3.21-0.13,4.85-0.19c-0.0599-7.09-0.04-14.18-0.03-21.27c3.14-0.01,6.3-0.01,9.4601,0
		c-0.02,14.41,0.0599,28.82-0.03,43.23c-0.0701,13.12-6.39,25.46-14.99,35.0699c-1.8,1.77-2.0901,4.34-2.5601,6.7
		c-1.74,9.61-3.0699,19.34-3.39,29.12c-0.0599,17.82,0,35.64-0.0299,53.46c8.08,0.06,16.1699-0.04,24.26,0.07
		c3.0699,23.18,0.58,47.6-10.15,68.63c-2.65,5.78-6.78,10.65-10.2201,15.92c-0.4099,40.3101-0.0599,80.66-0.1699,120.98
		c2.9199,0.01,5.85,0.02,8.7999,0.0801c-0.0499,4.9299-0.12,9.86,0.0601,14.7999c0.5599-0.22,1.67-0.66,2.22-0.87
		c0.37-4.67,0.05-9.35,0.15-14.01c2.5601,0.01,5.14,0.02,7.74,0.0701c-0.05,4.9199-0.09,9.84,0.03,14.7699
		c0.58-0.21,1.73-0.6399,2.3099-0.86c0.39-4.6599,0.0601-9.35,0.14-14.01c1.9601,0.02,3.92-0.01,5.92,0.1901
		c3.84,30.11-0.35,61.97-15.27,88.72c-1.78,4.15-6.1801,7.35-6.11,12.12c1.1899,49.88,2.28,99.75,3.47,149.63
		c5.4401-0.02,10.89-0.01,16.34-0.02c1.13,11.1801,0.4,23-4.7999,33.17c-2.27,4.53-5.7001,8.39-9.7001,11.48
		c0.9501,76.05,1.9501,152.1,2.89,228.15c6.13,0.02,12.27-0.04,18.41,0.0599c-0.05,20.51,0,41.03-0.02,61.55
		c-663.4399-0.01-1326.87,0.02-1990.2999-0.01c0.05-20.54-0.05-41.08,0.05-61.62c14.43,0.0601,28.86,0.02,43.29,0.02
		c0.68-52.4501,1.31-104.91,2.03-157.36c0.61-3.24-2.87-4.72-4.43-7c-6.17-7.78-6.9-18.3101-6.13-27.8401c3.97,0,7.94,0,11.91,0.01
		c0.72-30.4199,1.4-60.84,2.11-91.26c-0.25-6.5,1.14-13.25-0.17-19.58c-13.94-20.35-17.79-46.08-15.09-70.22
		c1.48-0.09,2.96-0.16,4.44-0.2001c-0.01,3.6101-0.06,7.2201,0.16,10.8401c3.3-2.3401,1.04-7.3101,1.66-10.77
		c1.86-0.02,3.73-0.03,5.59-0.01c0.53,3.5601-1.48,8.22,1.6,10.95c0.3-3.63,0.25-7.26,0.19-10.88c2.13-0.0699,4.25-0.11,6.38-0.1599
		c-0.13-28.66,0-57.3301-0.06-86c0.13-1.26-0.55-2.3-1.27-3.23c-12.92-16.67-16.37-39-13.52-59.5
		c5.83,0.0299,11.66,0.0099,17.49,0.0199c-0.47-20.3899,1.65-41.0699-2.79-61.1499c-0.53-2.89-2.92-4.79-4.53-7.0701
		c-5.68-7.35-8.51-16.72-7.86-25.99c0.03-9,0.01-17.99,0.01-26.99c2.28-0.01,4.55-0.01,6.83,0c0,5.1899,0,10.38,0,15.58
		c0.86,0,2.6,0.01,3.47,0.02c0-5.1899,0.02-10.37-0.04-15.5399c2.62-0.05,5.24-0.0701,7.86-0.0801
		c0.01,5.3201,0.02,10.65-0.03,15.99c1.18-0.02,2.36-0.03,3.55-0.02c-0.07-5.3199-0.04-10.6399-0.04-15.95
		c2.53-0.01,5.05-0.01,7.58,0c-0.05-6.65,0.11-13.3-0.03-19.94c-0.31-5.91-4.06-11.08-9.11-13.97c2.07-1.94,4.36-3.6,6.82-4.9901
		c-4.48-2.84-8.84-6.59-10.21-11.93c-1.83-5.99,0.22-12.56,4.4-17.05c3.93-4.39,9.07-7.45,14.35-9.93
		c-0.31-2.42-0.97-4.91-0.33-7.33c1.03-3.83,3.73-6.97,4.77-10.79c0.11-2.78-2.34-5.16-1.54-7.99c0.18-2.08,1.9-3.4,3.34-4.66
		c-0.03-0.95-0.06-1.88-0.09-2.79c-3.26-2.45-7.14-5.98-5.93-10.53c1.89-5.54,6.43-10.11,6.94-16.12c-0.52-4.03-2.3-7.8-2.56-11.88
		c-0.82-6.65,0.98-13.29,3.93-19.21c-0.4-1.39-0.78-2.79-1.13-4.17c-4.54-1.53-8.53-5.71-7.74-10.81c0.35-5.08,5.01-8.36,9.74-8.92
		c-2.46,1.29-5.3,2.56-6.4,5.33c-2.37,4.65,0.54,10.82,5.58,12.06c3.23,1.08,6.3-0.77,9.19-1.97c-1.91,1.7401-4.04,3.21-6.41,4.27
		c-0.38,1.29-0.78,2.58-1.21,3.87c3.05,6.35,5.04,13.45,3.89,20.54c-0.51,5.2-4.07,10.5-1.21,15.6c1.66,5.15,7.12,9.51,5.51,15.31
		c-0.84,3.93-6.22,5.1-6.01,9.39c1.53,1.23,3.39,2.53,3.54,4.71c0.74,2.77-1.55,5.15-1.56,7.86c1,3.71,3.49,6.8,4.66,10.45
		c0.79,2.57,0.16,5.28-0.19,7.88c6.43,2.85,12.69,6.84,16.61,12.83c3.55,5.37,3.74,12.77,0.28,18.24c-1.84,3.39-5.31,5.32-8.08,7.84
		c2.33,1.48,4.71,2.98,6.41,5.23c-5.47,2.67-9.01,8.5-9.05,14.56c-0.04,6.31,0.08,12.62-0.04,18.9301
		c2.54,0.0499,5.09,0.0699,7.64,0.11c0,5.33,0,10.6699,0,16.02c1.19-0.0701,2.38-0.12,3.58-0.16c-0.08-5.3-0.05-10.6-0.04-15.89
		c2.58-0.01,5.16-0.01,7.74,0c0.02,5.1899,0.01,10.39,0.01,15.6c1.15-0.01,2.3,0,3.45,0.03c0.03-5.22,0.02-10.4401,0.03-15.65
		c2.28,0.01,4.56,0.03,6.85,0.0601c-0.08,10.3099,0,20.62-0.03,30.9299c0.09,9.42-4.33,18.29-10.41,25.26
		c-2.04,2.13-2.23,5.1801-2.75,7.9301c-3.41,18.7999-1.52,37.97-2.05,56.96c5.86,0.14,11.72,0.0601,17.57,0.08
		c2.87,21.13-0.83,44.3101-14.82,61.0601c-0.05,29.24,0.01,58.48-0.03,87.73c2.13-0.01,4.25-0.01,6.37,0.01
		c0.49,3.58-1.39,8.12,1.52,10.96c0.32-3.64,0.26-7.2899,0.23-10.9299c1.87-0.03,3.74-0.04,5.61-0.04
		c0.31,3.6901-1.09,8.01,1.44,11.14c0.5-3.7,0.4-7.4301,0.39-11.14c1.45-0.01,2.91,0,4.37,0.02
		c2.84,24.4299-1.09,50.6799-15.61,71.05c0.82,36.71,1.68,73.4199,2.53,110.1399c3.98-0.01,7.95-0.01,11.93,0.01
		c1.1,11.4501-0.79,24.8401-10.59,32.25c0.7,53.3201,1.3,106.64,2.1,159.9601c4.78-0.03,9.56-0.01,14.34-0.0701
		c-0.06-108.45,0-216.89-0.16-325.33c-0.59-6.59,4.36-11.6901,9.41-15.0601c2.64-1.2999,0.58-4.5699,0.7-6.7999
		c-1.91-1.29-4.39-2.5701-4.64-5.14c-0.51-2.71,1.78-4.55,3.42-6.27c-4.48-19.3,0.46-41.35,15.05-55.23
		c11.01-9.77,25.34-14.4501,39.11-18.8201c0.68-1.97,1.44-3.8999,2.37-5.76c-0.39-4.45,0.51-8.87,1.13-13.2599
		c-2.59-1.4701-5.88-3.2201-5.85-6.66c-0.4-3.9501,3.34-6.2001,6.57-7.28c-1.49,1.39-3.32,2.53-4.31,4.38
		c-1.45,3.23,0.98,7.26,4.46,7.67c1.84,0.02,3.54-0.8101,5.3-1.23c-1.85,1.12-3.77,2.11-5.76,2.97c0.28,3.2899,0.52,6.6,1.23,9.85
		c-0.18,1.17-0.37,2.35-0.56,3.5599c0.92,1.8501,1.68,3.79,2.31,5.79c14.94,5.13,30.93,10.88,41.2,23.5601
		c11.3,13.9399,14.61,33.25,10.69,50.5399c1.57,1.6801,3.79,3.4701,3.29,6.0901c-0.15,2.3099-2.33,3.58-3.86,5.01
		c-0.23,2.0399-0.46,4.09-0.7,6.1499c5.22,3.41,11.22,8.01,11.02,14.9501c-0.05,45.3199-0.01,90.64-0.1,135.96
		c11.49-0.03,22.97,0.09,34.45-0.0599c3.05-130.9701,6.37-261.9301,9.42-392.9c0.1-11.65,0.88-23.3101,0.59-34.9401
		c-3.18-8.76-9.15-16.2-13.03-24.64c-0.56-1.47-1.38-2.97-1.13-4.5499c0.98-2.0701,3.41-2.67,5.45-3.09
		c3.71-0.65,7.5-0.41,11.25-0.4301c0.08-5.63,0.03-11.25,0.14-16.88c2.69-0.46,5.37-0.93,8.06-1.38
		c1.82-160.67,3.5-321.36,5.27-482.02c-0.89-9.22-3.13-18.54-7.96-26.54c-3.14-5.23-7.82-9.6-13.56-11.8
		c-6.09-2.33-10.54-7.43-14.08-12.71c-2.58-3.99-4.94-8.34-5.51-13.12c0.41-11.43,9.16-21.42,20.16-24.14
		c0.05-8.28,0.23-16.55,0.33-24.83c7.26,0.28,14.53,0.15,21.8,0.53c0.24-23.04,0.25-46.08,0.39-69.12
		c-7.01-1.63-14.94-2.94-19.97-8.59c-3.25-3.52-2.42-8.9,0.03-12.61c8.17-13.12,19.02-24.68,31.95-33.2
		c0-7.77,0.09-15.55-0.06-23.33c-2.8-0.59-6.54-0.6-7.92-3.63c-0.91-1.3,0.04-2.81,0.64-4.01c3.72-6.16,8.99-11.14,13.89-16.34
		c2.23-1.9,1.71-5.05,2.11-7.64c2-21.73,4.73-43.4,8.78-64.84c3.38-16.39,7.14-32.7,11.23-48.92c-2.09-2.6-4.08-5.72-3.42-9.21
		c0.31-3.81,3.32-6.45,6.3-8.4c0.29-2.12,0.58-4.23,0.86-6.35c-2.86-1.84-5.62-4.66-5.2-8.36c-0.11-3.3,2.91-5.16,4.73-7.46
		c0.72-4.46,0.65-9.02,1.03-13.52c-2.16-1.76-4.68-3.88-4.26-7.01c0-3.2,2.81-5.15,5.34-6.48c0.13-4.36,0.09-8.72,0.06-13.08
		c-5.91-0.84-11.87-3.32-15.4-8.34C362.48,25.98,362.67,15.27,368.47,8.49 M368.91,263.38c-0.19,9-0.04,18-0.09,27
		c1.76,0.01,3.53,0.01,5.29,0.02c-0.02-9,0.09-18.01-0.07-27.02C372.33,263.38,370.62,263.38,368.91,263.38 M382.3,263.39
		c0.03,9.01-0.1,18.03,0.08,27.05c1.73-0.01,3.45-0.02,5.19-0.02c0.17-9,0.04-18.01,0.08-27.02
		C385.86,263.4,384.08,263.39,382.3,263.39 M394.36,263.39c0.02,9.01-0.08,18.02,0.05,27.03c1.72,0,3.44,0,5.17,0
		c0.15-9,0.02-18.01,0.07-27.01C397.88,263.4,396.12,263.39,394.36,263.39 M406.68,263.52c0.06,8.96,0,17.92,0.04,26.88
		c1.75-0.01,3.51-0.01,5.28-0.01c-0.04-9.03,0.09-18.07-0.08-27.1C410.17,263.36,408.42,263.44,406.68,263.52 M1459.89,263.24
		c-0.15,9.05-0.04,18.1-0.0601,27.15c1.74,0,3.5,0,5.28,0.01c-0.08-8.92,0.17-17.84-0.09-26.75
		C1463.3101,263.38,1461.58,263.35,1459.89,263.24 M1473.3,263.39c-0.03,8.97,0.0299,17.94-0.03,26.92
		c1.75,0.06,3.51,0.11,5.2999,0.17c0.16-9.02,0.04-18.05,0.0801-27.08C1476.85,263.4,1475.0699,263.39,1473.3,263.39
		 M1485.36,263.39c0.02,9.01-0.09,18.02,0.0601,27.03c1.7,0,3.4199,0,5.1599,0c0.14-9.01,0.03-18.01,0.0701-27.02
		C1488.86,263.39,1487.1,263.39,1485.36,263.39 M1497.6801,263.5c0.0499,8.96,0,17.93,0.0399,26.9c1.74-0.01,3.5-0.01,5.28,0
		c-0.04-9.04,0.08-18.07-0.08-27.1C1501.16,263.36,1499.42,263.43,1497.6801,263.5 M355.59,263.39c0,9.01-0.01,18.02,0.01,27.02
		c1.76-0.02,3.53-0.03,5.3-0.04c-0.02-8.98-0.04-17.96,0.01-26.93C359.13,263.42,357.36,263.4,355.59,263.39 M1446.59,263.39
		c-0.01,9,0,18,0,27c1.74,0,3.52,0,5.3-0.01c-0.01-8.98-0.04-17.96,0.02-26.94C1450.12,263.42,1448.34,263.4,1446.59,263.39
		 M323.77,425c-0.01,11.33-0.01,22.66,0,34c2.74,0,5.48,0,8.23,0c0-11.33,0-22.67,0-34C329.25,425,326.51,425,323.77,425
		 M344.21,425.03c0.04,11.31,0.04,22.63,0,33.94c2.73,0.02,5.46,0.03,8.19,0.04c0.02-11.34,0.01-22.68,0.01-34.02
		C349.67,424.99,346.94,425,344.21,425.03 M365,425c0,11.33,0,22.67,0,34c2.74,0,5.48,0,8.23,0c0.01-11.33,0.01-22.67,0-34
		C370.48,425,367.74,425,365,425 M382.66,424.99c-0.02,11.34-0.01,22.68-0.01,34.02c2.73-0.01,5.46-0.02,8.2-0.04
		c-0.04-11.31-0.04-22.63-0.01-33.95C388.11,425,385.38,424.99,382.66,424.99 M400.21,425.03c0.04,11.31,0.04,22.62,0,33.94
		c2.75,0.02,5.5,0.03,8.25,0.04c0.02-11.34,0.01-22.68,0-34.02C405.71,424.99,402.96,425,400.21,425.03 M417.89,425
		c-0.01,11.33-0.01,22.67-0.01,34c2.75,0,5.49,0,8.24,0c0-11.33,0-22.67,0-34C423.37,425,420.63,425,417.89,425 M433.71,425
		c-0.01,11.33-0.01,22.67,0,34c2.74,0,5.49-0.01,8.24-0.01c-0.02-11.33-0.01-22.66-0.01-33.99C439.2,425,436.45,425,433.71,425
		 M1414.77,425c-0.01,11.33-0.01,22.67,0,34c2.73,0,5.47,0,8.23,0c0-11.33,0-22.67,0-34C1420.24,425,1417.5,425,1414.77,425
		 M1435.21,425.03c0.04,11.31,0.04,22.63,0,33.94c2.7201,0.02,5.4501,0.03,8.1901,0.04c0.01-11.34,0.02-22.68,0-34.02
		C1440.66,424.99,1437.9301,425,1435.21,425.03 M1456,425c0,11.33-0.01,22.67,0,34c2.73,0,5.48,0,8.23,0c0.01-11.33,0.01-22.67,0-34
		C1461.47,425,1458.73,425,1456,425 M1473.65,425c-0.01,11.33-0.01,22.67,0,34.01c2.72-0.01,5.45-0.02,8.1899-0.03
		c-0.0399-11.33-0.02-22.65-0.01-33.97C1479.1,425,1476.37,425,1473.65,425 M1491.21,425.03c0.04,11.31,0.04,22.63,0,33.94
		c2.74,0.02,5.49,0.03,8.25,0.04c0.01-11.34,0.02-22.68-0.01-34.03C1496.6899,424.99,1493.95,425,1491.21,425.03 M1508.89,425
		c-0.01,11.33-0.01,22.67-0.01,34c2.74,0,5.48,0,8.23,0c0.01-11.33,0.01-22.67,0-34C1514.36,425,1511.62,425,1508.89,425
		 M1524.71,424.99c-0.02,11.34-0.01,22.68,0,34.01c2.73,0,5.48-0.01,8.24-0.01c-0.0199-11.33-0.0199-22.65,0-33.98
		C1530.1899,425,1527.45,425,1524.71,424.99 M372.65,516.64c-6.46,3.6-9.27,11.31-9.43,18.35c0.02,22.33,0.03,44.66-0.01,66.98
		c12.05,0.0601,24.09,0.01,36.14,0.03c0.02-22.66-0.02-45.32,0.02-67.98c0.05-4.71-1.03-9.58-4.1-13.26
		C390.08,514.07,379.86,512.18,372.65,516.64 M1457.17,523.3c-1.8,3.6-2.9401,7.62-2.9501,11.67c0.02,22.33,0.03,44.67,0,67.01
		c12.04,0.05,24.0801,0,36.12,0.02c0.01-23,0.02-46,0.01-69c0.2001-7.46-4.26-14.95-11.37-17.58
		C1471.0699,512.13,1461.12,515.7,1457.17,523.3 M366.34,667.42c-2,3.88-3.22,8.25-3.13,12.64c0.07,22.18-0.01,44.37,0.04,66.56
		c12.04-0.07,24.08,0.05,36.12-0.07c-0.04-20.87-0.02-41.74-0.01-62.61c-0.03-4.65,0.37-9.47-1.32-13.9
		c-2.3-6.25-8.47-10.83-15.1-11.31C376.35,658.13,369.64,661.72,366.34,667.42 M1463.96,660.96c-6.5299,3.42-9.47,11.02-9.74,18.04
		c0.04,22.54-0.02,45.08,0.04,67.62c12.03-0.08,24.0699,0.06,36.11-0.07c-0.03-22.18-0.04-44.35,0.01-66.52
		c0.13-4.86-0.52-10-3.49-14.01C1481.91,658.92,1471.45,656.43,1463.96,660.96 M371.03,819.04c-5.11,3.61-7.27,10.02-7.79,16.01
		c-0.04,22.76,0.04,45.53-0.03,68.3c12.04,0.11,24.09,0.03,36.13,0.05c0.01-23.14,0.03-46.27,0-69.41c0-6.03-2.79-12.13-7.94-15.44
		C385.41,814.32,376.82,814.56,371.03,819.04 M1456.9301,825.02c-1.55,3.44-2.7101,7.18-2.7101,10.99
		c0.02,22.45,0.04,44.89-0.01,67.34c12.04,0.1,24.0901,0.03,36.14,0.04c0.01-20.14,0-40.28,0-60.42c-0.1-5.06,0.51-10.27-1-15.1899
		c-1.84-6.03-7.22-10.72-13.37-11.9301C1468.53,814.22,1460.34,818.24,1456.9301,825.02 M1913.8,858.93
		c-5.28,15.36-6.77,31.86-6.4501,48.04c0,13.55,0,27.09,0.01,40.64c4.47-0.04,8.9501-0.05,13.4401,0.01
		c0.0399-9.86,0.01-19.73,0.0199-29.59c-0.13-12.86,0.6801-25.8-1.59-38.52C1917.88,872.57,1917.52,865.11,1913.8,858.93
		 M1886.16,876.1c-1.26,7.88-2.3401,15.84-2.23,23.84c0.0399,15.96-0.02,31.91,0.0299,47.86c3.7001-0.01,7.4-0.01,11.12,0.01
		c0.0601-17.58,0.05-35.17,0.01-52.75c-0.5299-11.92-2.76-23.68-4.8199-35.4C1888.1,864.9,1887.15,870.54,1886.16,876.1
		 M1937.96,859.65c-2.5399,14.31-5.36,28.75-4.85,43.36c0.01,14.93,0,29.86,0.01,44.8c3.6901-0.02,7.38-0.02,11.09,0
		c0-17.92,0.11-35.85-0.0499-53.77C1943.2,882.44,1941.95,870.64,1937.96,859.65 M331.45,1022.12c1.19,11.71,0.38,23.51,0.6,35.26
		c3.35,0.01,6.71,0.02,10.06,0.02c0-10.8,0.02-21.59,0.02-32.37c0.12-2.63-0.68-5.75-3.32-6.8701
		C335.9,1016.53,331.52,1018.7,331.45,1022.12 M354.34,1021.9c1.19,11.78,0.35,23.66,0.6,35.49c3.35,0,6.7,0,10.06,0.01
		c0-10.79,0-21.5801,0.02-32.36c0.13-2.59-0.61-5.66-3.18-6.83C358.97,1016.55,354.69,1018.55,354.34,1021.9 M375.47,1022.12
		c1.15,11.71,0.36,23.51,0.58,35.27c3.37,0,6.75,0.01,10.12,0c0-10.79,0.01-21.59,0.02-32.39c0.13-2.61-0.68-5.71-3.31-6.83
		C379.95,1016.53,375.6,1018.69,375.47,1022.12 M396.62,1022.01c1.19,11.73,0.41,23.55,0.58,35.33
		c3.36,0.0601,6.72,0.0601,10.09,0.0601c0.01-10.8,0-21.6,0.03-32.39c0.14-2.64-0.69-5.76-3.34-6.87
		C401.08,1016.58,396.88,1018.67,396.62,1022.01 M419.54,1022.09c1.1,11.72,0.37,23.53,0.57,35.29c3.35,0.01,6.7,0.02,10.06,0.02
		c0.01-10.8,0-21.6,0.03-32.4c0.13-2.64-0.67-5.78-3.34-6.87C423.95,1016.57,419.67,1018.71,419.54,1022.09 M1422.45,1022
		c1.1901,11.75,0.37,23.59,0.6001,35.39c3.35,0,6.7,0,10.0699,0c-0.01-10.78,0-21.5701,0.01-32.35
		c0.11-2.6201-0.67-5.7401-3.3-6.8701C1426.9399,1016.55,1422.63,1018.64,1422.45,1022 M1445.34,1022.06
		c1.2001,11.73,0.3401,23.56,0.6,35.34c3.3501-0.01,6.7001-0.01,10.0601,0c0.01-10.48-0.03-20.9601,0.03-31.4301
		c0.0499-2.61-0.1-5.78-2.51-7.36C1450.63,1016.29,1445.55,1018.31,1445.34,1022.06 M1466.48,1022.03
		c1.12,11.74,0.36,23.5699,0.5701,35.36c3.37,0.01,6.74,0,10.13,0c0-10.49-0.03-20.97,0.0299-31.46
		c0.04-2.65-0.1599-5.8801-2.6799-7.4C1471.62,1016.34,1466.7,1018.35,1466.48,1022.03 M1487.62,1022.04
		c1.1901,11.72,0.4,23.55,0.59,35.32c3.3501,0.03,6.7101,0.04,10.0801,0.04c0-10.8201-0.01-21.63,0.02-32.4401
		c0.1399-2.6199-0.7001-5.71-3.3101-6.8199C1492.0699,1016.57,1487.84,1018.68,1487.62,1022.04 M1510.54,1022.07
		c1.1,11.73,0.38,23.53,0.5599,35.3c3.35,0.02,6.7001,0.03,10.0701,0.03c0.01-10.79,0-21.5701,0.0299-32.35
		c0.1101-2.6401-0.6399-5.8-3.3199-6.91C1514.97,1016.56,1510.6801,1018.7,1510.54,1022.07 M1617.4301,1039.9301
		c-6.3,17.9399-3.5,37.23-4.15,55.84c1.34,0,2.71,0.01,4.1,0.04c0.22,30.37-0.0601,60.74,0.11,91.11
		c0.0701-30.39,0.15-60.77-0.02-91.15c1.41,0,2.8401,0.01,4.3,0.03c-0.0701-11.29,0.1-22.5801-0.0701-33.87
		C1621.08,1054.5,1620.4399,1046.84,1617.4301,1039.9301 M1602.41,1040.5699c-5.75,17.9301-3.3101,36.9601-3.8101,55.4601
		c2.3201-0.04,4.67-0.0601,7.03-0.1C1605.2,1077.45,1607.08,1058.6801,1602.41,1040.5699 M1632.5601,1040.6
		c-1.3601,7.4301-2.77,14.89-3.03,22.4601c-0.02,10.99,0,21.98,0.01,32.97c2.33-0.04,4.6799-0.0701,7.0399-0.11
		C1635.87,1077.49,1638.64,1058.41,1632.5601,1040.6 M82.25,1113.55c-0.46,13.6599-0.04,27.35-0.21,41.0199
		c3.22,0,6.43,0.01,9.65,0.0801c0.16-8.54,0.04-17.0701,0.07-25.6c0.32-12.9-0.44-26.0701-4.58-38.38
		C83.46,1097.66,83.29,1105.86,82.25,1113.55 M100.69,1115.95c-0.09,12.9501-0.05,25.91,0,38.87
		c2.67-0.0299,5.35-0.0299,8.03-0.0399c-0.53-21.3301,2.05-43.1901-4.37-63.92C102.54,1099.11,101.26,1107.51,100.69,1115.95
		 M65.12,1154.8c2.66-0.01,5.31-0.01,7.96,0.01c0.05-12.9301,0.08-25.8501,0-38.77c-0.49-8.42-1.94-16.75-3.49-25.02
		C62.76,1111.6,65.78,1133.54,65.12,1154.8 M1900.41,1106.89c-0.1801,15.73,0.0299,31.46-0.0901,47.1799
		c1.55,0.0601,3.12,0.1101,4.7201,0.1901c0.01,4.73-0.02,9.47,0.09,14.22c0.61-0.02,1.83-0.0499,2.4399-0.0699
		c0.01-4.75,0-9.49,0.05-14.23c4.34,0,8.6901-0.01,13.05,0.0399c-0.03,4.87-0.0901,9.74,0.0499,14.62
		c0.5801-0.22,1.73-0.65,2.3-0.87c0.38-4.5699,0.0699-9.1699,0.15-13.74c1.5199-0.04,3.08-0.0699,4.6699-0.08
		c-0.0699-15.74,0.05-31.48-0.0499-47.22c-0.01-7.1801-6.52-13.6001-13.73-13.37C1906.9,1093.39,1900.47,1099.76,1900.41,1106.89
		 M1608.97,1196.01c-0.25,9.92-0.01,19.85-0.09,29.78c0.72-0.02,2.17-0.04,2.89-0.05c0.03,2.96,0.0499,5.92,0.0699,8.9l1.5901-0.1
		c-0.03-2.88-0.04-5.74-0.0601-8.5901c1.25-0.0699,2.52-0.1,3.8199-0.12c0.6101,29.7301,0.0801,59.4801,0.25,89.2201
		c0.0801,51.2899-0.1299,102.5699,0.0801,153.85c0.03-56.63,0.0499-113.25,0.01-169.88c0.2-24.38-0.3201-48.76,0.2899-73.13
		c0.9501-0.03,2.8601-0.11,3.8101-0.14c-0.01,3.16-0.05,6.33,0.2,9.5c2.4601-2.37,1.0801-6.09,1.4401-9.08
		c0.6799-0.17,2.0499-0.51,2.74-0.6801c0.38-9.48,0.08-18.99,0.16-28.48c0.3999-4.73-3.4301-9.28-8.2101-9.4
		C1613.29,1187.27,1608.9301,1191.33,1608.97,1196.01 M502.44,1244.4301c-3.19,1.1499-1.74,6.0499,1.6,5.3899
		C507.53,1248.74,505.91,1243.3199,502.44,1244.4301 M1147.5,1244.63c-3.26,1.3099-0.71,6.6801,2.41,4.83
		C1153.22,1248.1801,1150.52,1242.87,1147.5,1244.63 M546.62,1246.75c-1.08,1.73,0.88,3.0601,1.79,4.3199
		c-8.69,8.8401-11.43,21.63-12.48,33.5601c8.81-0.1,17.63,0.0599,26.44-0.1c0.59-12.22-3.49-24.72-12.25-33.42
		c0.62-1.4399,2.36-2.88,1.27-4.5C550.59,1244.73,547.37,1244.8101,546.62,1246.75 M597.42,1245.65
		c-2.74,1.5399-0.52,6.24,2.46,4.78C603.56,1249.21,600.57,1243.46,597.42,1245.65 M646.37,1245.4399
		c-1.32,0.38-2.27,2.16-1.54,3.4401c0.51,2.38,4.39,2.29,5.01,0.05C650.9,1246.9399,648.39,1244.38,646.37,1245.4399
		 M692.45,1245.5699c-3,1.4501-0.71,6.3601,2.41,4.9C698.26,1249.08,695.57,1243.6899,692.45,1245.5699 M1191.9301,1247.01
		c-1.0901,1.54,1.22,2.8099,1.7599,4.15c-8.6499,8.83-11.23,21.5699-12.49,33.4399c8.8301,0,17.66,0,26.5,0
		c0.6101-11.66-2.98-23.7-11.1-32.26c-2.37-1.52,1.15-3.52,0.3-5.4199C1196.22,1244.67,1192.49,1244.6899,1191.9301,1247.01
		 M1243.45,1245.36c-1.9199,0.4301-2.51,3.04-1.22,4.4501c1.24,1.45,4.03,0.9399,4.5801-0.9601
		C1247.6801,1246.9,1245.4399,1244.5699,1243.45,1245.36 M1291.4399,1245.54c-3.0699,1.5-0.8099,6.26,2.42,5
		C1297.2,1248.99,1294.6,1243.8101,1291.4399,1245.54 M1338.35,1245.35c-3.52,0.85-1.77,6.48,1.66,5.2101
		C1343.3,1249.54,1341.62,1244.2,1338.35,1245.35 M489.38,1284.5601c8.83,0.09,17.67,0,26.5,0.0499
		c0.8-12.58-3.48-25.63-12.62-34.49C493.79,1258.91,491.02,1272.27,489.38,1284.5601 M693.58,1250.78
		c-9.3,8.9199-12.32,22.11-13.99,34.4099c8.84,0.01,17.68,0.01,26.52,0.01C706.74,1272.6899,702.79,1259.5601,693.58,1250.78
		 M1134.89,1284.62c8.75-0.03,17.51-0.05,26.27,0.02c1.0299-12.6-3.4401-25.5701-12.42-34.53
		C1139.2,1258.85,1136.21,1272.27,1134.89,1284.62 M1230.33,1285.1899c8.8401,0,17.67,0.03,26.51-0.0199
		c0.6901-12.53-3.49-25.3201-12.27-34.41C1234.89,1259.4,1232.09,1272.9,1230.33,1285.1899 M1278.5699,1285.2
		c8.8301,0,17.67,0,26.52,0c0.6901-12.59-3.6-25.47-12.58-34.45C1282.98,1259.48,1280.15,1272.9,1278.5699,1285.2 M584.98,1285.2
		c8.82,0,17.65,0.01,26.48-0.01c0.68-12.5399-3.43-25.46-12.39-34.4399C589.58,1259.54,586.65,1272.88,584.98,1285.2 M633.2,1285.2
		c8.84-0.0399,17.69,0.0801,26.54-0.08c0.6-12.54-3.63-25.48-12.67-34.38C637.6,1259.54,634.77,1272.9,633.2,1285.2
		 M1324.97,1285.1899c8.8401,0.01,17.67,0.01,26.51,0.01c0.6901-12.5299-3.4199-25.47-12.37-34.45
		C1329.59,1259.53,1326.64,1272.87,1324.97,1285.1899 M77.45,1267.24c-0.58,2.1901-0.51,4.49-0.54,6.75c0.06,10,0.02,20,0.03,30
		c0.86,0.01,2.57,0.01,3.42,0.02c0.56,3.53-1.57,8.3099,1.65,10.89c0.22-3.63,0.18-7.26,0.15-10.88c3.16-0.03,6.32-0.03,9.48-0.03
		c0.46,3.61-1.31,8.0601,1.47,11.02c0.41-3.61,0.33-7.25,0.25-10.86c1.17-0.11,2.34-0.2001,3.51-0.28
		c-0.17-11.29,0.1-22.6-0.11-33.89c0.05-5.1799-4.58-9.84-9.77-9.76C82.71,1260.08,78.63,1263.15,77.45,1267.24 M165.32,1294.33
		c0.14,0.9,0.31,1.8201,0.51,2.75c-3.63,4.3101-5.04,9.8401-5.78,15.3101c4.08,0.01,8.17,0.01,12.26-0.01
		c0.04-5.79-1.86-11.46-5.81-15.74c0.42-0.47,1.24-1.42,1.66-1.89C167.21,1294.5699,166.27,1294.4301,165.32,1294.33 M208.28,1294.8
		c0.33,0.6,0.98,1.7999,1.31,2.3999c-3.86,4.3-5.39,10-6.12,15.6101c4.08-0.01,8.16,0,12.25-0.0601c0.01-5.41-1.52-10.8-5.02-14.98
		c0-1.03-0.01-2.03-0.06-3.01C209.85,1294.74,209.07,1294.75,208.28,1294.8 M185.89,1294.4301c0.25,0.99,0.49,2,0.74,3.0299
		c-3.62,4.14-4.81,9.62-5.51,14.9301c4.09,0.01,8.19,0.02,12.28-0.02c-0.06-5.33-1.65-10.53-5.06-14.65
		C188.42,1295.91,188.07,1294.36,185.89,1294.4301 M231.17,1297.35c-3.63,4.34-5.04,9.9-5.85,15.39c4.11,0.08,8.22,0.08,12.32,0
		c-0.25-3.25-0.45-6.61-1.82-9.61c-1.25-2.9-4.16-5.29-3.1-8.77C231.04,1294.67,230.52,1295.67,231.17,1297.35 M251.35,1294.88
		c0.32,0.5699,0.97,1.71,1.29,2.29c-3.87,4.3099-5.46,10.01-6.17,15.64c4.08-0.01,8.17,0,12.25-0.0701
		c-0.23-3.03-0.33-6.13-1.48-8.97c-1.08-3.03-4.04-5.4301-3.36-8.9C253.25,1294.87,251.98,1294.87,251.35,1294.88 M1207.4,1301.51
		c-1.9601,2.3199-0.3301,5.28,0.3199,7.76C1208.61,1306.89,1210.95,1302.78,1207.4,1301.51 M495.28,1309.9301l0.91-2.8601
		c0.54,1.15,1.03,2.39,0.91,3.7301c-0.46,0.61-1.38,1.84-1.84,2.45c-1.53-3.11-1.43-7.6801-5.52-8.65c0.15,2.54,2.42,3.75,4.09,5.27
		c-3.56-0.26-7.05,1.39-10.54,0.91c-0.24-1.27-0.42-2.53-0.55-3.79c0.67,0,2.01,0.01,2.68,0.01c-0.06,0.7-0.19,2.09-0.25,2.78
		c1.12-0.87,1.51-2.16,1.76-3.47c-1.34-0.0701-2.67-0.0701-3.99,0.0099c-1.1,1.14-0.55,2.91-0.81,4.37
		c1.11,0.6001,2.22,1.2001,3.34,1.8401c0.48,1.6-0.01,4.1899,2.09,4.74c1.63,0.41,2.73-0.98,3.91-1.77
		c1.88,2.98,5.34,0.6801,8.05,0.6899c1.55,0.2101,3.11,0.41,4.68,0.64c0.36-3.12,2.67-4.98,4.87-6.87
		c1.4-2.7799-1.87-4.4099-4.26-4.11c-0.35,1.54-0.5,3.11,1.3,3.88c-0.01-0.8099-0.01-2.4399-0.02-3.26
		c1.39,0.4301,2.33,1.3201,2.82,2.67c-0.76,0.8199-1.56,1.63-2.38,2.41c-2.59-1.37-5.53-1.41-8.35-1.78
		c-0.3-2.14,4.41-2.48,2.68-4.8c-0.85,0.4401-1.69,0.92-2.49,1.4601c-0.45,0.2899-1.35,0.87-1.8,1.1599c-0.04-1.86,1.4-4.5-0.6-5.89
		C492.27,1302.54,495.4,1307.49,495.28,1309.9301 M527.99,1302.09c-1.02,2.53,0.37,5.0901,1.14,7.49
		C529.79,1307.3,532.34,1301.0601,527.99,1302.09 M561.02,1302.14c0.03,2.61,0.6,5.1799,1.63,7.6c0.7-2.47,1.16-4.98,1.36-7.52
		C563.26,1302.2,561.76,1302.16,561.02,1302.14 M594.93,1301.9399c-1.06,2.53,0.24,5.1001,1.05,7.4901
		C596.6,1307.17,599.27,1301.14,594.93,1301.9399 M628.2,1302.12c-0.71,2.63,0.4,5.22,1.52,7.58l0.29-3.47
		c0.61,0.9501,1.19,1.9301,1.78,2.9301c1.2401-1.2001,3.5-1.9301,3.2-4.01c-1.51,0.3199-2.98,0.7999-4.44,1.26
		c0.03-1.0601,0.09-3.16,0.13-4.2201C630.06,1302.17,628.82,1302.14,628.2,1302.12 M661.84,1301.8
		c-1.03,2.8099,0.3,5.6599,0.94,8.4099C663.23,1307.59,666.38,1301.77,661.84,1301.8 M695.92,1301.97
		c-1.06,2.55,0.29,5.14,1.09,7.5601C697.58,1307.25,700.36,1301.13,695.92,1301.97 M1139.91,1302.0601
		c-0.98,2.3799,0.2,4.7799,1.1899,6.96C1141.88,1307.01,1144.17,1301.02,1139.91,1302.0601 M1174.39,1310.09
		c0.72-2.5599,1.77-5.1799,1.29-7.87C1170.89,1300.83,1173.97,1307.85,1174.39,1310.09 M1240.24,1302.1801
		c-0.91,2.72,0.5601,5.47,1.13,8.13c0.5-2.1101,1.1901-4.1901,1.3-6.3501C1243.3,1302.41,1241.47,1301.23,1240.24,1302.1801
		 M1273.27,1301.98c0.1,2.8101,0.6799,5.55,1.37,8.28c0.74-2.5601,1.87-5.2,1.38-7.91
		C1275.33,1302.26,1273.96,1302.0699,1273.27,1301.98 M1307.09,1302.03c-0.88,2.7899,0.55,5.5699,1.27,8.25
		c0.54-2.6,1.38-5.1801,1.21-7.85C1308.95,1302.33,1307.71,1302.13,1307.09,1302.03 M478.34,1305.03
		c-0.46,0.5699-1.38,1.71-1.84,2.2899c0.32,1.8201,2.51,1.87,3.5,0.55C479.51,1306.87,478.92,1305.95,478.34,1305.03
		 M523.21,1305.27c-0.11,2.48,2.97,2.9399,4.55,4.11C526.68,1307.67,525.89,1304.5,523.21,1305.27 M530.19,1309.52
		c2.04-1.05,4.2-2.2001,5-4.51C532.38,1304.91,531.12,1307.28,530.19,1309.52 M556.48,1306.24c0.9,1.3,3.59,1.72,3.32,3.53
		c-2.81,0.35-5.72,0.4299-8.27,1.8199c-0.82-0.83-1.61-1.6799-2.34-2.5499c0.68-1.25,1.68-2.15,3.02-2.6901
		c0.0099,0.86,0.04,2.5801,0.05,3.4401c1.37-0.9501,1.36-2.4,1.09-3.8401c-1.14,0.13-2.27,0.3-3.39,0.49
		c-0.69,0.77-1.39,1.54-2.09,2.3201c-0.46-0.67-1.38-2.01-1.84-2.67c-2.76,0.61-1.59,2.88-0.09,4.27l0.76-1.87
		c1.89,1.47,3.78,2.97,5.81,4.29c0.36,1.26,0.47,2.61,1.01,3.86c1.36,0.41,2.83,0.02,4.25,0.11c0.04-1.34,0.07-2.66,0.08-3.97
		c-1.03,0.34-2.18,0.58-2.85,1.53c0.44,0.23,1.31,0.7,1.75,0.9399c-0.26,1.2-1.09,1.38-2.51,0.54c-1.57-2.13,0.22-5.25,2.82-5.0701
		c2.89-0.9299,4.31,1.97,5.37,4.0801c-0.89-0.1101-2.69-0.3201-3.59-0.4301c0.34,0.9301,0.7,1.87,1.09,2.8199
		c0.91-0.2,1.77-0.58,2.67-0.85c0.78,0.3201,1.57,0.62,2.38,0.9301c0.42-0.9401,0.77-1.89,1.16-2.8101
		c-0.89,0.0701-2.69,0.23-3.58,0.3101c0.5-0.79,1.5-2.37,2-3.15c2.14-1.98,5.01-0.5599,7.01,0.85c-0.2,0.99-0.6,2.97-0.8,3.9601
		c-1.33,0.08-2.18-0.3101-2.54-1.1901c0.47-0.23,1.4-0.6899,1.87-0.91c-0.7-0.95-1.87-1.23-2.89-1.58
		c-0.03,1.33-0.02,2.6801,0.03,4.04c1.32-0.1001,2.65-0.12,3.98-0.28c0.26-0.86,0.78-2.58,1.05-3.4401
		c2.11,2.03,4.46,4.5701,7.73,3.8c2.51,0.5601,3.85-2.86,5.91-2.7c0.45,0.7799,0.91,1.58,1.38,2.3999
		c5.79,0.37,11.6-0.4199,17.39,0.14c0.32-1.23,0.65-2.4399,0.98-3.64c2.09,1.7201,4.1201,4.3601,7.15,4.2001
		c2.62-0.03,4.46-2.21,6.45-3.6c0.7,1.0199,0.55,4.12,2.71,3.1899c0.67-0.0499,2.01-0.14,2.67-0.1799c0.02-1.28,0.04-2.54,0.06-3.78
		c-1.36,0.2-2.66,0.61-3.36,1.9199c0.83-0.1,2.48-0.3099,3.31-0.4099c-0.83,1.75-1.98,2.21-3.44,1.37
		c-1.66-2.15,0.16-5.3301,2.85-4.97c2.82-0.91,4.16,2.0299,5.36,3.96c-0.77-0.12-2.32-0.35-3.1-0.46
		c-0.04,0.5599-0.14,1.6799-0.18,2.25c2.23-0.0901,4.47-0.0901,6.72-0.01l0.01-1.76c1.06,0.9199,2.14,1.89,3.22,2.85
		c1.23-0.49,2.94-0.76,2.85-2.5c0.14-2.41,2.24-3.55,3.98-4.77c-0.14-1.3099-0.24-2.62-0.47-3.88c-1.15-0.05-3.3-1.3099-3.77,0.27
		c-1.16,1.33,0,2.16,1.16,2.9299c-0.04-0.8199-0.1-2.47-0.14-3.2999c2.94-0.27,3.59,5.4399,0.37,4.5599
		c-3.85-0.8099-8.54-2.0299-11.16,1.9401c-0.83-3.15-1.42-6.47-4.46-8.27c-0.26,0.51-0.77,1.52-1.02,2.03
		c1.01,0.65,2.08,1.25,3.03,2.0599c1.23,1.53-1.68,1.42-2.34,1.52c-2.62-0.29-6.61,2.35-7.96-1.08c0.42-1.29,1.27-2.2101,2.56-2.75
		c0.0601,0.8199,0.2,2.48,0.26,3.2999c1-0.8199,2.48-1.58,1.16-2.87c-0.86-1.5199-4.22-0.9099-4.33,1.0701
		c-1.08,2.77,2.61,3.98,4.32,5.23c-1.62,0.63-3.16,1.4301-4.6,2.41c-0.3101-0.78-0.95-2.3301-1.26-3.11
		c-2.65-1.6901-4.36,1.0599-4.36,3.5099c-1.33-1.23-2.66-2.4299-3.99-3.62c0.64-0.23,1.92-0.6699,2.56-0.8999
		c-2.99-0.75-6-1.4-9.04-1.8101c0.22-0.51,0.65-1.52,0.87-2.03c0.62-0.84,1.24-1.6699,1.84-2.51c-1.52,0.3401-2.95,0.9401-4.26,1.76
		c0.12,1.29,0.25,2.61,0.37,3.9401c2.48-0.3101,4.97,0.02,6.82,1.91c-1.5,0.24-2.99,0.48-4.48,0.73c1.39,0.88,2.89,1.6899,4.14,2.83
		c-2.33-0.1899-4.52-0.84-6.55-1.9399c-0.04,0.4299-0.11,1.2899-0.15,1.72c-1.9-0.39-1.14-2.6801-1.53-3.99
		c-0.28,0.03-0.84,0.1-1.13,0.13c-0.5,1,0.85,4.08-1.1,3.58c-0.17-0.3-0.51-0.91-0.6801-1.21c-2.08,0.88-6.42,3.27-6.73-0.53
		c0.28-3.8,5.04-3.01,7.68-3.5601c-3.21-0.5599-6.54-0.45-9.55,0.8501c-0.65-0.38-1.96-1.13-2.61-1.51c0.53-1.74,1.73-2.86,3.5-3.23
		c-0.18,0.6-0.56,1.8099-0.75,2.4099c0.6,0.02,1.78,0.05,2.38,0.0701c0.18-3.23-4.69-4.2001-5.22-0.9301
		c-1.22,2.48,2.1,3.34,3.48,4.54c-1.38,1.15-2.75,2.2999-4.09,3.49c-0.09-0.98-0.25-2.9401-0.33-3.92c-1.3,0-2.59-0.0399-3.85,0.16
		c-0.41,1.17-0.76,2.38-1.05,3.62c-1.28-1.16-2.56-2.27-3.87-3.35c2.74-0.14,4.04-2.4,5.5-4.33l0.97,2.0499
		c0.53-1.04,2.83-2.52,1.14-3.58c-1.39-1.4501-2.65,0.99-3.14,1.96c-0.71-0.85-1.39-1.71-2.05-2.5599
		c-1.01,0.2599-2.77-0.62-3.22,0.6499c-1.16,1.2101,0.02,2.05,0.97,2.89c0.02-0.83,0.06-2.51,0.08-3.35
		c1.94,0.53,3.66,2.61,1.95,4.42c-2.29,0.7799-4.57-0.8401-6.9-0.74c-2.38-0.4501-4.12,1.4299-5.94,2.58
		c-0.86-2.09-1.17-4.39-2.35-6.3199C558.93,1305.11,556.95,1304.6,556.48,1306.24 M563.63,1309.4399c2.02-1.1,4.76-1.98,4.62-4.8199
		C565.99,1305.42,564.44,1307.21,563.63,1309.4399 M590.16,1305.17c-0.34,2.5299,2.83,3,4.38,4.2
		C593.64,1307.52,592.77,1304.74,590.16,1305.17 M657.17,1305.0601c-0.73,2.72,2.81,3.12,4.42,4.36
		C660.49,1307.66,659.77,1304.86,657.17,1305.0601 M663.84,1309.36c2.12-0.91,4.37-1.92,5.15-4.28
		C666.24,1304.9399,664.9,1307.22,663.84,1309.36 M691.27,1305.17c-0.62,2.61,2.92,3.01,4.43,4.2699
		C694.66,1307.6899,693.88,1304.75,691.27,1305.17 M698.1,1309.55c2.05-1.04,4.1-2.26,5.09-4.4401
		C700.3,1304.9,698.97,1307.17,698.1,1309.55 M1123.4,1305.6801c-2.17,0-1.67,3.98,0.5,3.0699
		C1125.9399,1308.87,1125.36,1305.33,1123.4,1305.6801 M1134.74,1304.97c0.6901,2.35,2.91,3.41,4.95,4.42
		C1138.83,1307.12,1137.37,1305.0699,1134.74,1304.97 M1142.1801,1309.46c1.6499-1.1499,4.35-1.71,4.6499-4.08
		C1144.08,1304.29,1143.21,1307.72,1142.1801,1309.46 M1168.95,1304.9c-0.58,1.9199,0.3,3.03,2.64,3.3199
		c-2.7799,1.65-6.15,3.23-9.4199,2.64c-1.1001-1.87-0.25-4.14,2.01-4.38c0,0.8,0,2.42,0,3.22
		c0.3899-0.3899,1.1799-1.1599,1.58-1.5499c-0.28-2.34-2.55-2.02-4.3201-2.03c-0.1,1.48-0.1699,2.98-0.22,4.49
		c1.74,1.14,3.8301,2.24,3.92,4.65c0.11,2.37,2.99,1.14,4.52,1.51c0.0699-1.2001,0.1-2.39,0.11-3.55
		c-0.6801-0.03-2.02-0.09-2.6901-0.12c-0.0399,0.4501-0.1,1.34-0.13,1.79c0.5701-0.02,1.6901-0.05,2.25-0.0601
		c-0.6399,1.3201-1.6399,1.65-3,1.01c-1.38-2.23,0.13-5.37,2.88-5.22c2.87-0.8099,4.13,2.21,5.41,4.12
		c-0.9299-0.08-2.78-0.26-3.71-0.35c0.39,0.9399,0.77,1.92,1.27,2.87c0.8999-0.36,1.7699-0.79,2.6799-1.17
		c0.5-2,0.71-4.88,3.28-5.26c2.9299-1.2,6.91,1.89,4.76,4.9601c-1.48,0.87-2.3101,0.6899-2.51-0.55
		c0.4299-0.27,1.29-0.8,1.72-1.0699c-0.86-0.61-1.85-1.0901-2.78-1.4701c-0.0399,1.27-0.0499,2.5701-0.0199,3.89
		c1.2599,0.1,2.5399,0.2201,3.83,0.3401c1.25-1.17,0.7-3.4301,2.23-4.4501c0.95-1.12,2.67-1.9,2.39-3.7
		c1.5,0.1699,3.02,0.5,4.5699,0.58c0.24-1.04,0.4501-2.0699,0.64-3.1c-1.5299,0.23-3.1,0.55-3.65,2.3099
		c-1.5699-1.1399-2.9099-3.11-5.09-2.5c-1.15,1.4-1.11,2.78,0.7001,3.64c-0.01-0.84-0.04-2.51-0.0601-3.34
		c2.9401-0.15,3.5,5.3199,0.34,4.61c-3.6499-0.78-8.23-2.14-10.73,1.64c-0.41-0.4399-1.24-1.3099-1.66-1.74
		c0.0701-0.7,0.2101-2.1,0.28-2.8C1171.79,1306.8101,1170.73,1305.29,1168.95,1304.9 M1175.59,1309.46
		c1.99-1.11,4.67-2.0499,4.67-4.7999C1177.92,1305.38,1176.37,1307.1899,1175.59,1309.46 M1202.16,1305.0601
		c-0.54,2.6699,2.7899,3.12,4.4199,4.33C1205.58,1307.51,1204.6899,1304.98,1202.16,1305.0601 M1209.05,1309.55
		c2-1.0601,3.9399-2.3301,5.2-4.26C1211.23,1304.65,1209.91,1307.13,1209.05,1309.55 M1235.62,1304.9
		c0.01,0.58,0.04,1.72,0.05,2.2999c1.48,0.64,2.97,1.29,4.49,1.92C1239.09,1307.23,1237.9,1305.33,1235.62,1304.9 M1242.48,1309.4
		c2.02-1.0801,4.64-1.9301,4.75-4.67C1244.85,1305.34,1243.27,1307.12,1242.48,1309.4 M1268.9301,1304.58
		c-0.3101,2.87,2.58,3.6901,4.59,4.77C1272.62,1307.2,1271.08,1305.48,1268.9301,1304.58 M1275.84,1309.4399
		c1.77-0.9299,3.67-1.7799,5-3.34C1278.47,1303.37,1276.8101,1307.76,1275.84,1309.4399 M1302.24,1305.27
		c0.13,2.54,2.97,2.98,4.79,4.0499C1305.85,1307.48,1304.97,1304.6,1302.24,1305.27 M1309.36,1309.4399
		c2.02-1.0699,4.48-2.0199,4.8-4.6299C1311.5601,1305.11,1310.24,1307.21,1309.36,1309.4399 M1343.49,1309.45
		c1.99-1.11,4.58-1.99,4.8101-4.6699C1345.77,1305.1899,1344.3101,1307.1899,1343.49,1309.45 M511.53,1306.3101
		c-2.32,1.5099,0.5,4.6699,2.24,2.6699C514.68,1307.04,513.15,1306.42,511.53,1306.3101 M514.8,1310.21
		c1.03-1.64,2.24-3.1599,4.17-3.73c-0.1899,0.61-0.5699,1.8201-0.75,2.4301c0.58,0.0499,1.76,0.15,2.35,0.21
		c-0.65-1.26-0.62-3.53-2.63-3.02C515.56,1305.75,515.43,1308.64,514.8,1310.21 M537.49,1308.8c0.6,0.0699,1.8,0.2,2.41,0.26
		c-0.19-0.6101-0.56-1.8301-0.75-2.4501c1.0099,0.37,2.0099,0.79,3,1.27c0.14,1.49-0.83,2.58-1.76,3.63
		c-3.07-1.46-6.51-1.67-9.82-1.0601c3.13,0.17,6.38,0.4701,8.35,3.26c-0.91,1.0601-1.83,2.14-2.74,3.2201
		c-1.7-0.9501-3.38-1.88-5.05-2.8301c0.1,0.47,0.31,1.4,0.41,1.86l-1.53,0.02c-0.29-1.63-0.57-3.23-1.18-4.75
		c-0.33,1.67-0.65,3.36-0.94,5.0601l-0.95-1.9601c-1.8,0.8501-3.64,1.6801-5.62,2c-0.02-0.2699-0.06-0.7999-0.07-1.0699
		c1.11-0.72,2.26-1.38,3.37-2.09c-1.31,0.11-3.93,0.3099-5.24,0.4199c1.78-3.0599,5.28-2.73,8.26-3.1699
		c-3.75-0.67-7.54-0.01-11.19,0.9099c0.66,0.26,1.97,0.76,2.63,1.01c-1.33,1.2001-2.66,2.39-3.99,3.61
		c-0.34-1.6399-0.63-4.49-3.05-3.9399c-1.89-0.23-1.78,2.51-2.65,3.65c-0.77-0.5-2.32-1.5-3.1-2c1.65,1.9,3.83,3.9199,6.58,3.59
		c2.49,0.05,3.94-2.8199,6.09-3.12c0.53,0.83,1.05,1.67,1.58,2.54c5.27-0.03,10.81-1.17,15.88,0.75
		c1.05-1.2101,2.05-2.4701,3.02-3.7301c2.89,4.02,9.61,4.63,12.24,0c-0.77,0.5601-2.32,1.67-3.09,2.2201
		c-0.69-1.35-0.4901-4.25-2.67-3.91c-2.35-0.47-2.53,2.47-2.84,3.99c-1.28-1.15-2.56-2.25-3.85-3.34
		c1.07-0.9601,2.68-1.37,3.43-2.66c0.2401-1.42-0.35-2.76-0.58-4.1C540,1306.03,537.86,1306.34,537.49,1308.8 M606.69,1309.5
		c-0.13-0.76-0.39-2.28-0.52-3.04c1.92,0.6001,3,2.1901,3.96,3.88c-0.62-1.6799-0.55-4.73-3.12-4.23
		C604.42,1305.5601,604.03,1309.35,606.69,1309.5 M612.46,1306.51c-2.01-0.2-1.94,3.12,0.03,2.99
		C614.85,1310.51,614.74,1305.3101,612.46,1306.51 M644.78,1309.17c2.23,1.64,2.92-1.11,3.0099-2.91
		C646.01,1306.3101,643.62,1306.91,644.78,1309.17 M649.38,1306.33c-0.52,2.79,0.15,5.4501,3.26,6.2301
		c-1.3,1.1399-2.59,2.2899-3.85,3.49c0.38-3.03-1.75-4.39-4.48-4.0701c-0.25,1.3-0.48,2.61-0.7,3.9501
		c-0.84-0.54-2.54-1.6101-3.38-2.14c2.85,4.8199,9.69,3.6599,12.58-0.5c0.45,1.1699,0.92,2.35,1.4,3.5399
		c1.31-0.1599,2.63-0.24,3.96-0.3999c4.44,0.61,8.94-0.39,13.4,0.22c0.3-1.23,0.6-2.4401,0.91-3.63c2.16,1.85,4.32,4.51,7.52,4.2
		c2.76,0.17,4.73-1.9199,6.62-3.58c0.92,1.26,1.89,2.54,2.93,3.74c3.86-1.36,8-0.13,11.95-0.97c2.36,0.72,4.7,0.35,5.62-2.2101
		c1.49-0.45,2.63,1.9601,3.93,2.7201c1.57-0.3,3.48,0.26,4.79-0.9c0.04-1.21-0.01-2.4-0.16-3.5601c-1.16-0.35-2.33-0.45-3.51-0.2999
		c0.01,0.73,0.01,2.1799,0.02,2.9099c1.01-0.73,1.94-1.5699,2.92-2.33c0,0.9,0,2.6901,0,3.58c-3.41,0.4801-5.97-1.71-8.27-3.88
		c0.68-0.25,2.03-0.7699,2.7-1.0199c-3.6-1.02-7.37-1.66-11.09-0.9801c2.95,0.38,6.21,0.27,8.27,2.8701
		c-0.9399,0.1399-2.83,0.4199-3.77,0.5699c0.42,0.34,1.27,1.02,1.69,1.37c1.45,2.79-2.42,0.26-3.23-0.61
		c-0.68,0.01-1.34-0.09-2-0.02c-0.17,0.28-0.5099,0.84-0.68,1.12c-2.07,0.59-0.63-2.61-1.09-3.64c-0.32,0-0.94,0.01-1.26,0.02
		c-0.51,1,0.87,4.25-1.12,3.61c-0.18-0.33-0.56-0.98-0.74-1.2999c-1.58,0.7799-3.14,1.6-4.67,2.47
		c-0.93-1.0801-1.85-2.15-2.75-3.2101c1.98-2.85,5.29-3.0599,8.46-3.25c-3.35-0.6-6.85-0.47-9.93,1.1001
		c-0.78-1.0801-2.08-2.0701-1.77-3.55c0.93-0.6,1.93-1.08,2.98-1.45c-0.16,0.74-0.48,2.21-0.64,2.9399
		c1.88-0.37,2.24-1.58,1.41-3.1799c-1.43-0.14-3.58-0.6901-4.08,1.1499c-1.4901,2.51,1.4399,4.3,3.3,5.27
		c-1.59,1.23-3.17,2.48-4.76,3.73c-0.09-1.3899-0.22-2.74-0.39-4.08c-1.24-0.2-2.48-0.34-3.7-0.42c-0.09,1.5-0.17,3.01-0.24,4.54
		c-1.7-1.33-3.35-2.71-4.98-4.11c0.68-0.27,2.02-0.8101,2.69-1.08c-3.62-0.8601-7.35-1.53-11.06-0.9401
		c2.03,0.75,5.21-0.3099,6.38,2.02c-0.14,0.4-0.42,1.2-0.56,1.61c0.14,0.42,0.43,1.27,0.57,1.7
		c-0.9301,0.1901-1.8701,0.1801-2.8101-0.0099c0-0.3101-0.0099-0.9301-0.0099-1.25c-1.51,0.23-3.02,0.38-4.53,0.46
		c0.12-0.6,0.36-1.8,0.48-2.39c-3.54-2.86-8.31-3.1899-12.2599-0.96c-2.29-1.36-2.36-5.1001,0.97-4.9401
		c-0.11,0.73-0.32,2.2001-0.43,2.9301c0.46-0.27,1.37-0.8101,1.83-1.0801C654.41,1305.4,651.32,1306.35,649.38,1306.33
		 M671.36,1309.15c0.58-0.0801,1.73-0.23,2.31-0.3c-0.16-0.61-0.49-1.8199-0.65-2.4199c1.71,0.7999,3.02,2.1699,4.3,3.5499
		c-0.9-1.35-1.07-4.1899-3.28-3.87C671.95,1305.54,671.92,1307.79,671.36,1309.15 M679.41,1306.4
		c-2.03,1.11,0.1201,4.5399,1.7401,2.8099C683,1308.21,681.14,1305.77,679.41,1306.4 M706.32,1306.3199
		c-0.94,1.51-0.38,2.8201,1.44,3.1101c-0.16-0.7401-0.47-2.2201-0.62-2.9501c1.97,0.5701,3.06,2.2001,4.06,3.9
		c-0.41-1.37-0.73-2.76-1.39-4.01C708.64,1306.0601,707.48,1306.04,706.32,1306.3199 M713.57,1306.27
		c-0.24,0.4199-0.7,1.26-0.93,1.6799c-0.29,2.3401,3.85,1.9701,3.27,0.03C716.44,1306.38,714.44,1306.62,713.57,1306.27
		 M1127.28,1308.02c-0.9501,2.4199,2.0399,3.61,3.5599,4.6799c-2.2,2.1101-4.74,3.9801-7.97,3.6801
		c0.02-0.98,0.0699-2.9301,0.09-3.91c0.5901,0.7101,1.76,2.14,2.3401,2.85c0.23-1.0399,0.45-2.08,0.62-3.1
		c-1.25-0.28-2.4501-0.2-3.6001,0.24c-0.1399,1.5601-0.8899,4.6801,1.6801,4.38c3.11,0.5801,5.21-1.9299,7.28-3.7799
		c0.2999,1.2,0.63,2.3999,0.98,3.62c5.8099-0.6101,11.63,0.25,17.47-0.0801c0.39-0.95,0.8301-1.86,1.3301-2.73
		c2.08,0.7,3.48,3.35,6.0099,3.37c2.7401,0.36,5.02-1.51,6.5901-3.54c-0.8201,0.5701-2.4501,1.7001-3.26,2.26
		c-0.42-1.49-0.8-2.9399-1.2101-4.39c-2.5199,0.27-4.37,1.63-4.1699,4.4c-1.26-1.14-2.5-2.25-3.75-3.35
		c1.77-0.98,4.6799-2.76,3.1799-5.21c-1.3099-2.4601-4.3199-1.17-5.22,0.9299c0.64,0.23,1.9301,0.6801,2.5701,0.9
		c-0.17-0.6799-0.5-2.05-0.67-2.74c1.03,0.4301,2.04,0.92,3.05,1.47c0.0499,1.41-1.04,2.4401-1.75,3.55
		c-1.3601-0.09-2.9301-1.87-4.1901-0.72c0.89,0.98,1.62,2.08,2.2,3.2899c-1.2899,3.36-4.72,1.5-7.0099,0.48
		c-0.1801,0.29-0.53,0.88-0.7001,1.17c-1.98,0.49-0.6699-2.54-1.13-3.55c-0.2899-0.0499-0.87-0.1499-1.16-0.1899
		c-0.5099,1.27,0.7301,4.02-1.46,4.03c-0.12-0.4301-0.35-1.3-0.47-1.73c-1.9301,1.08-4.01,2.36-6.3101,1.5199l0.8201-0.6
		c1.1-0.5599,2.24-1.0599,3.37-1.59c-0.79-0.22-2.37-0.65-3.16-0.87c-0.13-0.3-0.38-0.89-0.5-1.1901
		c2.23-0.6699,4.5601-0.84,6.87-1.21c-3.38-0.49-6.87-0.34-9.99,1.15c-0.84-1.0601-1.83-2.0701-1.85-3.48
		c0.73-0.4,2.2-1.2001,2.9299-1.5901c-0.09,0.7401-0.2699,2.2101-0.36,2.9501c0.4601-0.2001,1.38-0.62,1.8401-0.8201
		C1132.78,1305.3101,1127.78,1305.24,1127.28,1308.02 M1155.55,1307.47c0.73,1,1.51,2.1901,2.9299,2.27
		c1.0601-1.21,0.38-2.5599-0.0699-3.8199C1157.6899,1306.3101,1156.26,1307.08,1155.55,1307.47 M1194.86,1305.85
		c-0.24,1.35-0.61,2.7001-0.52,4.11c0.48,1.4301,2.29,1.64,3.3201,2.64c-1.28,1.11-2.54,2.24-3.77,3.4
		c-0.33-1.61-0.55-4.47-2.9501-4.01c-2.1399-0.47-1.7699,2.6801-2.5299,3.9301c-0.79-0.5601-2.36-1.6801-3.15-2.24
		c1.38,1.7899,3.21,3.63,5.6799,3.5699c3.0601,0.22,5.0901-2.47,7.2201-4.2c0.26,1.1399,0.5399,2.2999,0.84,3.47
		c1.24,0.04,2.5,0.11,3.77,0.2l-0.66-2.09c1.27,1.03,2.73,2.5699,4.62,2.0699c3.24-0.34,6.51-0.22,9.78-0.0599
		c0.49-1.01,1-2,1.52-2.97c1.9099,1.35,3.64,3.46,6.1699,3.59c2.03,0.1799,3.76-1.13,5.4701-2.02c-0.64,0.12-1.91,0.36-2.55,0.48
		c-0.58-1.15-0.09-3.99-2.11-3.7c-2.48-0.65-2.83,2.24-3.1901,3.9199c-1.33-1.23-2.6599-2.45-3.97-3.6499
		c0.66-0.23,1.99-0.7001,2.66-0.9401c-3.61-0.9399-7.35-1.5599-11.05-0.9299c2.8101,0.3999,5.92,0.33,7.99,2.6899
		c-0.5499,0.33-1.6599,0.99-2.21,1.33c0.15,0.2101,0.4401,0.63,0.59,0.8401c-0.6499,0.9099-1.72,1.26-3.22,1.0399
		c0.09-0.71,0.27-2.12,0.35-2.8199c-0.2799,0.4399-0.86,1.34-1.14,1.79c-1.11-0.27-2.2-0.52-3.2799-0.75
		c-0.01-0.8201-0.02-2.4601-0.02-3.28c-0.97,1.38-1.05,3.3199-2.1801,4.5599c-0.1799-0.33-0.5399-1-0.72-1.34
		c-0.35,0.0801-1.0599,0.24-1.42,0.3201c-1.58-2-3.6-1.91-5.5699-0.2001c0.34-4.5,4.77-3.5599,7.88-4.16
		c-3.34-0.5699-6.8201-0.47-9.87,1.1101c-2.24-1.4601-2.3-4.9301,0.96-5.05c-0.11,0.66-0.3099,1.96-0.4199,2.62
		c0.59-0.09,1.7699-0.28,2.37-0.37C1198.97,1306.4399,1196.9399,1305.96,1194.86,1305.85 M1216.42,1309.12
		c0.58-0.0599,1.73-0.1801,2.3099-0.24c-0.1799-0.6-0.54-1.8101-0.72-2.41c1.91,0.61,3.09,2.17,4.23,3.75
		c-0.78-1.63-0.8199-4.5-3.3-4.11C1216.9399,1305.59,1217.04,1307.9301,1216.42,1309.12 M1223.22,1306.0601
		c-0.78,1.72,0.92,5.08,2.53,2.8999C1227.83,1307.33,1224.3199,1306.4,1223.22,1306.0601 M1228.52,1306.59
		c-2.4301,2.35,0.13,5.5,2.87,5.87c-0.27,0.2201-0.8201,0.65-1.1,0.86c1.1599,1.1001,1.5299,3.9301,3.6599,3.3401
		c3.4301-0.49,6.8601,0.33,10.3-0.11c1.42-2.2101,3.02,1.25,4.83,0.5299c1.8501,0.01,1.3-2.89,2.28-3.8199
		c1.9301,1.64,3.8101,4.16,6.64,4c2.83,0.21,4.72-2.3201,6.64-3.99c0.11,2.9399,3.14,5.27,5.58,2.98
		c1.04-0.3,1.78,0.8199,2.6901,1.21l0.33-0.26c3.3-1.38,6.95-0.6499,10.41-0.46c0.1899-0.85,0.5699-2.54,0.76-3.38
		c0.5,0.3201,1.51,0.9501,2.02,1.27c3.24,4.3,9.4099,2.14,12.1499-1.63c0.2301,1.23,0.4801,2.48,0.77,3.74
		c3.89-0.23,8.0601-1.05,11.72,0.8c0.2001-0.5701,0.6101-1.7201,0.8101-2.29c1.39,0.79,2.7,2.5,4.55,1.92
		c1.9399-0.16,1.1899-2.7201,1.84-3.8501c2.99,4.37,10.29,5.25,13.25,0.41c-1.42,0.8201-2.8201,1.6901-4.1801,2.59
		c-0.0599-1.4399-0.11-2.87-0.1599-4.2799c-1.3101,0.0499-2.6001,0.11-3.87,0.2c-0.05,1.38-0.0801,2.77-0.0901,4.1801
		c-1.61-1.2001-3.1899-2.42-4.7999-3.5701c1.23-1.16,3.48-1.8099,3.39-3.84c1.0199-2.55-2.5901-3.9301-4.15-2.42
		c-1.54,1.14-0.16,2.5801,1.1899,3c-0.11-0.6699-0.33-2.01-0.4399-2.6899c0.76,0,2.2999,0,3.0599,0c-0.35,1.7-0.78,3.4399-2.01,4.76
		c-1.7999-0.75-3.6-1.7101-5.59-1.63c-2.64-0.28-4.6801,1.6899-7.12,2.27c0.3101,0.62,0.91,1.87,1.22,2.49
		c-0.53-0.0601-1.6-0.16-2.13-0.2101c-1.6899,1.8301-2.6699-1.76-4.45-1.71c-0.24,0.58-0.72,1.75-0.96,2.33
		c0.6599-0.2999,1.98-0.9199,2.63-1.22c0.08,0.51,0.25,1.54,0.33,2.05c-0.99,0.03-2.97,0.08-3.96,0.11
		c0.1899-1.59-0.15-3.4401,1.0099-4.72c2.17-1.11,4.65-0.2201,6.9601-0.26c-3.63-1.99-7.63-0.4601-11.41-0.0701
		c-1.73-2.2-0.45-4.3099,2.21-4.59c-0.24,0.53-0.71,1.6-0.95,2.13c0.61,0.15,1.8199,0.45,2.4301,0.6
		c-0.2401-0.73-0.7201-2.1899-0.9601-2.9299c-1.53-0.52-3.99-0.28-4.15,1.71c-0.85,2.51,1.91,3.61,3.5701,4.72
		c-1.37,1.05-2.73,2.12-4.05,3.23c-0.1899-0.86-0.5599-2.58-0.74-3.4399c-2.6699-1.8-4.9199,0.73-4.63,3.47
		c-1.34-1.33-2.74-2.54-3.97-3.9299c1.45-0.5701,4.08-1.0701,3.8-3.25c0.1599-2.3101-2.39-3.3-4.27-2.53
		c-1.42,1.37-0.4401,2.7899,1.2999,3.11c-0.14-0.74-0.4199-2.2001-0.5599-2.9401c1.01,0.4801,2,1.0601,2.95,1.7201
		c-0.21,0.95-0.51,1.89-0.9,2.8099c-3.6-0.36-7.2-1.21-10.8099-0.63c2.21,0.6901,5.17-0.08,6.9,1.8
		c0.23,1.3199,0.38,2.66,0.4299,4.0399c-0.98-0.0599-2.95-0.1799-3.9299-0.24c0.0699-0.5199,0.2-1.5499,0.27-2.0699
		c0.5599,0.34,1.6899,1.01,2.25,1.35c-0.04-0.7-0.14-2.1-0.1801-2.7999c-1.73,0.85-3.08,2.21-4.34,3.62l-0.05-1.6901
		c-0.6,0.14-1.8199,0.41-2.4299,0.55c0.23-0.76,0.6899-2.28,0.9199-3.03c-0.36,0.12-1.09,0.36-1.46,0.48
		c-2.66-3.53-7.5601-2.5599-10.96-0.76c-2.41-1.27-2.41-5.0599,0.83-5.12c-0.11,0.66-0.3201,1.97-0.4301,2.63
		c0.5901-0.0599,1.77-0.2,2.36-0.26c-0.49-2.39-2.5299-2.9399-4.6599-3.0499c-0.16,1.5399-0.8,3.1799-0.3101,4.75
		c0.9601,0.75,1.97,1.45,3.05,2.1c-1.37,1.16-2.75,2.3199-4.0801,3.52c-0.0399-0.9501-0.11-2.87-0.1499-3.8301
		c-1.53-0.0299-3.04-0.02-4.54,0.05c-0.01,0.92-0.03,2.75-0.04,3.67c-1.4199-1.13-2.7799-2.2101-4.1899-3.28
		c2.63-1.0901,4.08-3.41,3.04-6.24c-1.4701-0.28-2.9501-0.3301-4.39-0.39c0.0599,1.41,0.2999,2.7999,1.6699,3.59
		c-0.0699-0.77-0.2-2.3199-0.27-3.1c3.4601-0.3201,3.03,3.65,0.8501,5c-3.9701-2.62-8.7101-1.59-12.4601,0.83
		c0.28,0.6,0.8501,1.8101,1.14,2.41c-0.7-0.16-2.08-0.48-2.78-0.64l-0.0499,1.98c-1.21-1.21-1.86-3.1699-3.76-3.3099
		c-0.25,0.5699-0.74,1.7-0.99,2.26c0.64-0.28,1.9299-0.8501,2.58-1.14c0.0601,0.5599,0.17,1.6799,0.22,2.24
		c-0.7699-0.12-2.33-0.38-3.11-0.5c-1.0599-1.27-0.8099-3.16,0.3101-4.27c2.0699-1.25,4.58-0.29,6.85-0.38
		c-3.62-1.96-7.62-0.37-11.39-0.0699c-1.53-1.9301-0.28-3.92,1.72-4.6801c0.0701,0.84,0.1901,2.52,0.25,3.37
		C1234.79,1308.46,1230.67,1304.26,1228.52,1306.59 M1257.47,1306.49c-0.99,0.55-1.77,1.8101-0.52,2.6
		c1.02,1.5701,2.26-0.13,2.9801-1.0599C1259.4301,1307.3101,1258.4399,1305.5601,1257.47,1306.49 M1290.48,1306.4301
		c-1.39,1.63-0.0699,3.96,2.02,3.0499C1293.85,1307.8199,1292.51,1305.66,1290.48,1306.4301 M1324.47,1306.08
		c-0.13,0.8501-0.38,2.53-0.5,3.37c1.36-0.0199,3.0701,0.3301,3.49-1.51C1326.91,1306.6899,1325.54,1306.52,1324.47,1306.08
		 M1359.4301,1306.53c-3.28,0.15,0.08,4.88,1.5199,2.4399C1362.3199,1308.12,1360.65,1305.5699,1359.4301,1306.53 M477.32,1312.55
		c-1.41,1.0199-0.41,2.8999-0.46,4.33c2.93,0.08,5.95-0.23,7.88-2.7c-2.36,0.7999-4.94,3.21-7.44,1.48
		c-0.17-1.17,0.37-2.2101,0.82-3.2101c0.47,0.77,1.41,2.3101,1.89,3.0801c0.22-1.3301,0.37-2.6901,0.5-4.01
		C479.72,1311.78,478.12,1312.29,477.32,1312.55 M534.58,1313.1c-0.44,1.34,0.06,1.84,1.5,1.5
		C536.52,1313.23,536.02,1312.73,534.58,1313.1 M588.96,1313.1899c-0.5,1.38-0.03,1.8201,1.41,1.3201
		C590.87,1313.1,590.4,1312.67,588.96,1313.1899 M689.92,1313.23c-0.44,1.39,0.05,1.8101,1.48,1.25
		C691.83,1313.0601,691.34,1312.64,689.92,1313.23 M1146.5601,1313.11c-0.4,1.36,0.11,1.85,1.5299,1.49
		C1148.48,1313.21,1147.97,1312.71,1146.5601,1313.11 M177.92,1320.48c-1.83,1.0801,0.85,4.04,2.33,2.61
		C180.56,1321.86,179,1320.66,177.92,1320.48 M192.89,1320.76c-1.11,1.38,1.96,3.84,2.61,1.9399
		C195.14,1321.72,194.03,1320.33,192.89,1320.76 M208.14,1320.62c-0.88,1.2-0.62,1.87,0.78,2.01
		C209.79,1321.41,209.53,1320.74,208.14,1320.62 M223.07,1322.64c1.43-0.14,1.73-0.8,0.89-1.99
		C222.56,1320.76,222.26,1321.42,223.07,1322.64 M238.53,1320.58c-0.78,0.4701-2.96,2.0901-1.32,2.8101
		C239.01,1324.23,240.96,1320.1801,238.53,1320.58 M254.06,1320.62c-0.87,1.2-0.6,1.87,0.81,2.01
		C255.71,1321.41,255.44,1320.74,254.06,1320.62 M154.3,1322.26C154.45,1325.59,157.25,1320.6801,154.3,1322.26 M170.08,1322.35
		C168.63,1325.34,173.44,1322.35,170.08,1322.35 M191.24,1322.26C191.82,1322.8101,191.82,1322.8101,191.24,1322.26 M206.34,1322.29
		C206.9,1322.84,206.9,1322.84,206.34,1322.29 M210.13,1322.2C210.69,1322.75,210.69,1322.75,210.13,1322.2 M221.3,1322.26
		C221.86,1322.79,221.86,1322.79,221.3,1322.26 M225.15,1322.3199C225.76,1322.84,225.76,1322.84,225.15,1322.3199 M231.12,1322.35
		C229.5,1325.23,234.49,1322.5601,231.12,1322.35 M252.23,1322.27C252.82,1322.8,252.82,1322.8,252.23,1322.27 M256.05,1322.33
		C256.66,1322.8101,256.66,1322.8101,256.05,1322.33 M261.9,1322.34C260.46,1325.34,265.25,1322.34,261.9,1322.34 M189.29,1324.3
		C189.85,1324.83,189.85,1324.83,189.29,1324.3 M250.2,1324.46C250.78,1324.96,250.78,1324.96,250.2,1324.46 M170.25,1325.4301
		C170.85,1325.97,170.85,1325.97,170.25,1325.4301 M184.45,1326.6801c1.23,0.71,2.13,0.46,2.7-0.76
		C186.98,1323.9,183.23,1324.92,184.45,1326.6801 M198.95,1326.38c0.51,0.26,1.52,0.76,2.03,1.01c0.49-0.24,1.48-0.73,1.97-0.98
		C201.67,1324.92,200.27,1324.97,198.95,1326.38 M215.26,1325.38C215.45,1328.72,218.23,1323.73,215.26,1325.38 M230.26,1325.0699
		c-2.46,1.2401,1.16,3.2101,2.28,1.5701C233.43,1325.3199,231.23,1324.35,230.26,1325.0699 M253.65,1326.27
		c0.47,0.15,1.39,0.45,1.85,0.6C256.6,1325.42,253.53,1324.39,253.65,1326.27 M261.48,1325.3101
		C262.06,1325.8199,262.06,1325.8199,261.48,1325.3101 M181.78,1397.05c-4.05,6.9299-6.75,14.7999-6.66,22.8999
		c-0.02,22.3501,0.02,44.6901-0.01,67.04c23.67,0.02,47.34,0,71.01,0.01c0-18.99,0-37.98,0-56.97c-0.03-8.01,0.59-16.29-2.36-23.91
		c-6.16-16.52-19.17-29.36-32.94-39.85C199.44,1374.6801,188.92,1384.72,181.78,1397.05 M542.26,1462.38
		c-11.36,17.04-19.83,36.8099-19.83,57.6c-0.01,52.48-0.06,104.96,0.03,157.4401c52.05-0.01,104.1-0.0701,156.15,0.0299
		c0.2-53.1699,0.07-106.34,0.07-159.51c-0.85-28.5199-16.4-54.08-34.48-75.1599c-12.81-14.85-27.44-28.0801-43.26-39.65
		C578.41,1419.5601,557.87,1439.16,542.26,1462.38 M1185.14,1466.1899c-9.89,15.8301-17.1,33.9301-17.3101,52.8101
		c-0.0199,52.8-0.01,105.59,0,158.39c52.0901,0.01,104.1901,0.02,156.29,0c0-47.8101,0-95.61,0-143.41
		c-0.0699-10.3099,0.52-20.76-1.83-30.88c-5-23.7999-18.91-44.61-34.73-62.63c-12.3701-13.89-26.2401-26.48-41.3501-37.33
		C1222.5601,1420.55,1200.97,1441.3101,1185.14,1466.1899 M1690.37,1409.84c-5.55,5.61-7.39,13.5701-8.42,21.13
		c5.51,0.04,11.03,0.03,16.55,0.02c0.27-7.6-2.23-15.17-7.3-20.87c0.87-1.38,1.5901-4.8-1.12-3.79
		C1688.11,1406.7,1689.36,1408.9301,1690.37,1409.84 M1717.23,1407.42c0.26,1.0499,0.59,2.1,1.01,3.14
		c-5.0599,5.58-6.72,13.1699-7.5599,20.4299c5.49,0.01,11,0.01,16.5099,0c0.29-7.52-2.2699-14.95-7.3199-20.54
		c0.25-0.99,0.47-1.96,0.67-2.9199C1719.46,1406.6,1718.36,1406.5699,1717.23,1407.42 M1748.0601,1411.99
		c-4.4601,5.47-5.9301,12.54-7,19.34c5.5099,0.11,11.0199,0.0701,16.5399,0.05c0.2101-7.5-2.0399-15.12-7.1699-20.72
		c0.4299-1.41,1.6499-3.37-0.4701-3.99C1746.3,1406.73,1750.29,1410.42,1748.0601,1411.99 M1778.8,1410.64
		c-5.0701,5.72-6.9401,13.35-7.91,20.74c5.5,0.02,11.01,0.03,16.53,0c0.21-7.51-2.12-15.0699-7.2201-20.67
		c0.6101-1.48,1.9-3.1899-0.1699-4.1C1777.33,1406.55,1778.4399,1409.01,1778.8,1410.64 M1806.29,1407.8
		c0.52,0.87,1.0599,1.76,1.64,2.6699c-5.4501,5.5801-7.25,13.4501-8.3,20.92c5.5,0.01,11,0.01,16.51,0
		c0.22-7.4301-2.0601-14.87-6.92-20.54c0.26-1.25,0.52-2.5,0.72-3.73C1808.62,1406.76,1807.42,1407.28,1806.29,1407.8
		 M1684.97,1444.89c-1.1599-0.35-2.2999-0.65-3.4399-0.91c1.35,1.4301,3.26,1.63,5.13,1.75c-0.0701-1.37-0.0701-2.72-0.2001-4.0499
		C1684.5699,1441.11,1685.38,1443.8,1684.97,1444.89 M1706.3,1441.76c-0.9801,0.89-0.8401,2.6899,0.0199,3.67
		C1707.83,1445.4301,1707.87,1441.72,1706.3,1441.76 M1747,1442.02c0.08,0.72,0.25,2.15,0.34,2.87
		c-1.2899-0.3-2.5599-0.55-3.8199-0.74c1.4399,1.12,3.22,1.45,5.03,1.62c0-1.46,0.01-2.89,0.0399-4.3101
		C1748.1899,1441.6,1747.4,1441.88,1747,1442.02 M1768.36,1441.73c-0.96,0.92-0.88,2.7001-0.03,3.71
		C1769.83,1445.42,1769.9301,1441.71,1768.36,1441.73 M1726.2,1444.79c-0.7899-0.2001-2.38-0.6001-3.1699-0.8
		c2.13,2.38,6.2,2.16,8.45,0.04c-1.1899,0.24-2.35,0.52-3.48,0.85c-0.09-0.95-0.29-2.83-0.39-3.78
		C1726.9,1442.23,1726.4399,1443.46,1726.2,1444.79 M1788.8199,1446.14c1.66-0.49,3.41-0.98,4.7101-2.23
		c-0.8201,0.27-2.47,0.7999-3.29,1.0599c-0.23-1.2899-0.45-2.5599-0.64-3.8099C1788.02,1442.47,1788.64,1444.41,1788.8199,1446.14
		 M1809.45,1444.97c-0.72-0.3199-2.1499-0.96-2.87-1.28c0.38,0.63,1.16,1.89,1.54,2.51c0.24-0.22,0.72-0.6599,0.96-0.88
		c2.0601,0.3501,4.3101,0.64,5.41-1.6499c-1.1799,0.4399-2.3199,0.9199-3.4299,1.45c-0.02-1.01-0.0701-3.02-0.0901-4.02
		C1809.9301,1442.16,1809.42,1443.45,1809.45,1444.97 M1674.29,1444.26c-0.5601,1.61-0.01,2.16,1.64,1.6799
		C1676.4399,1444.29,1675.89,1443.73,1674.29,1444.26 M1703.3199,1444.11c-0.34,1.37,0.1901,1.86,1.6101,1.48
		C1705.23,1444.1899,1704.7,1443.6899,1703.3199,1444.11 M1708.22,1444.2c-0.5499,1.4-0.09,1.8301,1.35,1.3
		C1710.08,1444.0699,1709.63,1443.64,1708.22,1444.2 M1733.24,1444.34C1731.77,1447.37,1736.59,1444.1801,1733.24,1444.34
		 M1737.1801,1444.28c-0.8501,0.99-1.7001,1.99-2.4801,3.0499c0.38-0.38,1.15-1.1599,1.53-1.5499c1.36,0.28,2.72,0.52,4.12,0.7899
		C1739.28,1445.78,1738.22,1445.02,1737.1801,1444.28 M1750.02,1443.89c-1.5601,0.3099-1.0801,2.8099,0.54,1.9299
		C1752.09,1445.52,1751.5601,1443.02,1750.02,1443.89 M1757.33,1444.65c-0.45,1.63,0.13,2.15,1.76,1.5699
		C1759.49,1444.5601,1758.9,1444.04,1757.33,1444.65 M1761.4399,1444.23c-0.37,1.37,0.15,1.88,1.55,1.53
		C1763.33,1444.36,1762.8101,1443.86,1761.4399,1444.23 M1765.37,1444.09c-0.36,1.36,0.17,1.86,1.6,1.49
		C1767.29,1444.1801,1766.75,1443.6899,1765.37,1444.09 M1770.26,1444.21c-0.58,1.38-0.14,1.8301,1.3199,1.3301
		C1772.12,1444.12,1771.6801,1443.67,1770.26,1444.21 M1773.3199,1445.85c0.8201-0.26,2.4801-0.78,3.3-1.0399
		c-0.25,2.1899-1.64,2.95-3.72,2.6299c-0.12,0.4601-0.35,1.38-0.47,1.8401c-1.26,0.3199-2.4301,0.73-3.63,1.12
		c1.48,0,3,0.02,4.5299,0.0499l0.1901-1.6799c1.2,0.66,2.4399,1.33,3.71,2.02c2.01-0.23,3.99-0.6901,5.98-1.17
		c1.64,0.28,3.17,0.95,4.8,1.4301c0.4399-0.15,1.3199-0.4401,1.75-0.5901c-0.02-0.5699-0.0701-1.7-0.1-2.27
		c-0.91-0.48-1.8-0.9299-2.6801-1.37c0.6,0.7001,1.79,2.0901,2.38,2.78c-0.97,0.02-2.91,0.04-3.88,0.05
		c-0.09-0.55-0.26-1.64-0.34-2.1901c-0.79-0.02-2.37-0.08-3.16-0.1c0.0801-0.28,0.24-0.83,0.3301-1.11
		c0.33-0.27,1.0099-0.83,1.35-1.11c-0.92-0.38-2.02-0.79-2.86-1.04c0.4199,1.8301,1.35,3.5,1.6699,5.38
		c-1.83-0.13-3.49-1.6799-5.27-0.4399c-2.49-0.36-0.4399-3.62-0.2799-5.0601C1775.65,1444.5,1774.4301,1445.08,1773.3199,1445.85
		 M1785.6899,1444.05c-0.7799,1.1399,1.16,2.49,2.1001,1.6C1788.52,1444.47,1786.58,1443,1785.6899,1444.05 M1794.95,1445.6801
		c1.3501,0.3999,1.89-0.0901,1.62-1.4601C1795.15,1443.8,1794.61,1444.28,1794.95,1445.6801 M1816.13,1444.35
		c-0.5601,1.4-0.11,1.8301,1.34,1.29C1817.98,1444.22,1817.53,1443.79,1816.13,1444.35 M1687.55,1444.9301
		C1688.05,1445.5,1688.05,1445.5,1687.55,1444.9301 M1716.22,1445.08C1716.1801,1448.42,1719.27,1443.66,1716.22,1445.08
		 M1778.15,1444.76c-0.59,1.5699-0.04,2.12,1.63,1.67C1780.34,1444.8199,1779.79,1444.26,1778.15,1444.76 M1799.2,1444.78
		c-0.5199,1.59,0.04,2.13,1.6901,1.62C1801.38,1444.77,1800.8199,1444.22,1799.2,1444.78 M1820.29,1444.76
		c-0.5601,1.58-0.02,2.14,1.6499,1.6799C1822.47,1444.8199,1821.92,1444.26,1820.29,1444.76 M1699.8,1447.85
		c0.62,1.25,1.3199,1.25,2.11,0C1701.27,1446.5601,1700.5699,1446.5601,1699.8,1447.85 M1732.67,1447.51
		c-1.04,1.25-2.36,2.1899-3.61,3.21c1.1299-0.15,2.2899-0.26,3.46-0.35c0.7-1.03,1.45-2.03,2.1799-3.04
		C1734.1899,1447.38,1733.1801,1447.46,1732.67,1447.51 M1752.61,1447.27c-1.01,1.72,1.86,2.6899,2.63,1.08
		C1756.38,1446.6899,1753.34,1445.95,1752.61,1447.27 M1761.39,1447.73c-0.01,1.4,2.39,1.39,2.5,0.03
		C1763.87,1446.3101,1761.42,1446.3101,1761.39,1447.73 M1814.98,1447.84c0.1901,1.25,2.52,1.36,2.67,0.01
		C1817.47,1446.5,1815.04,1446.41,1814.98,1447.84 M1706.13,1448.51c-0.97,1.13-0.74,1.8,0.6899,1.99
		C1707.75,1449.33,1707.52,1448.67,1706.13,1448.51 M1734.96,1450.6801c1.7001-0.05,3.42-0.0901,5.14-0.15
		c-0.76-0.97-1.53-1.89-2.3099-2.77C1736.65,1448.52,1735.83,1449.64,1734.96,1450.6801 M1747.29,1448.29
		c-0.2201,0.2999-0.67,0.9099-0.89,1.21C1747.08,1452.63,1750.54,1447.5,1747.29,1448.29 M1756.27,1450.89
		c1.35,0.21,2.6799,0.22,4.0699,0.29c-0.4399-1.0801-0.9-2.12-1.38-3.13C1756.96,1447.48,1756.72,1449.49,1756.27,1450.89
		 M1820.01,1448.13c-0.47,1.37,0.02,1.8199,1.46,1.36C1821.89,1448.08,1821.41,1447.63,1820.01,1448.13 M1702.37,1449.0601
		c-0.79,1.1899,1.22,2.4099,2.17,1.5399C1705.25,1449.41,1703.23,1448.05,1702.37,1449.0601 M1709.25,1448.85
		c-1.5601,0.27-1.12,2.72,0.5,1.9601C1711.3101,1450.58,1710.8101,1448.02,1709.25,1448.85 M1764.34,1449.11
		c-0.71,1.21,1.3201,2.4,2.23,1.48C1767.21,1449.38,1765.1801,1448.05,1764.34,1449.11 M1813.28,1448.84
		c-1.52,0.35-1.01,2.77,0.5699,1.9501C1815.39,1450.47,1814.8101,1447.91,1813.28,1448.84 M1029.6899,1482.61
		c-6.83,4.84-10.9899,13.08-10.9099,21.4501c-0.01,48.9099-0.0601,97.83,0.02,146.75c17.7401-0.03,35.4901-0.01,53.2401,0
		c0.0499-48.5901,0.01-97.17,0.02-145.76c0.1899-8.1101-3.27-16.3401-9.6801-21.41
		C1053.42,1475.84,1039.11,1475.37,1029.6899,1482.61 M853.34,1504.87c-0.11,49.24-0.02,98.49-0.04,147.73
		c17.76-0.01,35.53,0.01,53.3,0c-0.0099-47.87-0.03-95.74,0-143.61c0.07-4.79-0.35-9.71-2.43-14.08
		c-4.39-9.9701-15.41-16.52-26.27-15.51C864.84,1480.11,853.5,1491.74,853.34,1504.87 M778.07,1487.0699
		c-5.72,4.9-8.95,12.42-8.89,19.9301c0,48.87-0.02,97.74,0.02,146.62c17.74-0.08,35.49,0.0601,53.23-0.0699
		c-0.05-46.17-0.01-92.3401-0.02-138.51c-0.05-6.0901,0.55-12.4501-1.93-18.1801c-3.26-8.12-10.78-14.42-19.39-16.04
		C793.01,1479.1899,784.15,1481.4301,778.07,1487.0699 M946.72,1486.72c-5.93,4.9-9.35,12.55-9.3,20.22
		c-0.03,48.89,0,97.77-0.01,146.66c17.76,0,35.52-0.01,53.29,0.01c0.02-45.87,0-91.74,0.01-137.6c-0.11-5.52,0.47-11.15-1.07-16.52
		c-2.45-8.78-9.8-16.03-18.65-18.27C962.67,1478.95,953.19,1480.9399,946.72,1486.72 M1716.88,1537.87
		c-8.17,11.42-14.53,24.86-14.45,39.1801c-0.01,33.45-0.0701,66.9099,0.0299,100.37c32.2201-0.05,64.4301,0,96.66-0.03
		c0-30.8101-0.01-61.61,0-92.42c-0.02-6.37,0.27-12.8199-1.15-19.0699c-2.22-10.3301-7.3099-19.8-13.39-28.35
		c-9.23-12.8501-20.9199-23.75-33.5599-33.1801C1738.14,1513.84,1726.24,1524.86,1716.88,1537.87z"/>
	<path stroke="#000000" stroke-width="0.0938" d="M1916.88,522.84c1.52,1.16,1.91,2.9,1.95,4.75c-1.24,0.03-2.46,0.06-3.6599,0.11
		c-0.3301-1.05-0.6001-2.09-0.88-3.12C1914.9301,524.14,1916.23,523.27,1916.88,522.84z"/>
	<path stroke="#000000" stroke-width="0.0938" d="M933.36,716.31c1.51-2.65,3-5.31,4.57-7.93c1.53,2.62,3.01,5.27,4.52,7.92
		c2.95,0.54,5.92,1.11,8.88,1.72c-1.97,2.35-4.55,4.29-6.01,7c0.01,2.94,0.57,5.83,0.91,8.75c-2.78-1.24-5.53-2.51-8.27-3.81
		c-2.8,1.27-5.58,2.55-8.38,3.81c0.36-3.01,0.75-6.02,1.14-9.02c-2.08-2.22-4.15-4.45-6.15-6.74
		C927.49,717.39,930.42,716.83,933.36,716.31z"/>
	<path stroke="#000000" stroke-width="0.0938" d="M1617.62,831.78c0.04-1.7,1.21-2.5,2.71-2.92c0.05,0.68,0.17,2.03,0.2301,2.71
		C1619.83,831.62,1618.36,831.72,1617.62,831.78z"/>
	<path stroke="#000000" stroke-width="0.0938" d="M87.66,847.67c1,0.4,2,0.82,3.01,1.25c-0.26,0.65-0.77,1.95-1.03,2.6
		C87.53,851.04,86.97,849.61,87.66,847.67z"/>
	<path stroke="#000000" stroke-width="0.0938" d="M487.21,1315.79c-1.83-2.6001,1.07-5.55,3.81-5.14c3.31-0.38,3.86,3.45,4.65,5.76
		l-2.59,0.36c0.21-0.64,0.65-1.91,0.87-2.55c-0.61,0.11-1.82,0.3401-2.43,0.4601c-0.69-2.55-3.02-1.38-4.2-0.3101
		c1.02,0.11,3.07,0.3199,4.1,0.4301C490.06,1316.41,488.66,1316.74,487.21,1315.79z"/>
	<path stroke="#000000" stroke-width="0.0938" d="M495.63,1314.62c1.14-2.42,3.3-5.04,6.29-3.7c2.84,0.1699,2.38,3.49,2.32,5.5
		c-1.45,0.11-2.47-0.28-3.04-1.17c0.38-0.13,1.14-0.41,1.52-0.55c0.01-0.5599,0.03-1.6799,0.04-2.24
		c-1.9,0.27-2.95,4.1801-4.79,2.27C497.38,1314.7,496.21,1314.64,495.63,1314.62z"/>
	<path stroke="#000000" stroke-width="0.0938" d="M632.08,1311.13c2.36-1.3,4.75,0.29,6.71,1.5599
		c-0.2599,0.77-0.78,2.3101-1.03,3.0901c-1.47,0.9399-2.85,0.59-4.15-1.03c1.02-0.08,3.06-0.24,4.08-0.3199
		c-1.42-1.29-3.26-2.2401-4.23,0.2699c-0.55-0.09-1.65-0.2899-2.2-0.38c0.04,0.4,0.12,1.2201,0.16,1.63l-1.72-0.09
		C630.3,1314.23,630.22,1311.89,632.08,1311.13z"/>
	<path stroke="#000000" stroke-width="0.0938" d="M653.17,1312.9c2.3-1.9301,6.18-3.55,8.37-0.5601c0.46,0.86,1.86,4.2201-0.27,3.38
		c-0.18-0.2999-0.53-0.9-0.71-1.2c-0.25,0-0.76-0.01-1.02-0.02c-1.3-0.49-2.63-1.8-4-0.72c1.09,0.86,1.29,1.64,0.58,2.35
		C654.08,1316.46,653.93,1314.1899,653.17,1312.9z"/>
	<path stroke="#000000" stroke-width="0.0938" d="M1242.2,1315.76c-0.8099-2.0701,0.5801-4.66,2.8301-4.9301
		c2.01-0.8099,3.7899,0.77,5.4299,1.7101c-0.12,1.0399-0.37,3.1-0.49,4.14c-1.6799-0.3101-3.21-0.9301-4.61-1.8601
		c1.08-0.12,3.24-0.37,4.3201-0.5c-1.92-2.12-3.9501-0.5099-5.7201,0.87C1243.52,1315.33,1242.64,1315.62,1242.2,1315.76z"/>
	<path stroke="#000000" stroke-width="0.0938" d="M1265.3,1312.76c2.1-1.45,4.87-3.23,7.2999-1.3101
		c1.23,0.87,2.61,3.87,0.72,4.5901c-0.23-0.3301-0.7-0.98-0.9299-1.3101c-1.67-0.78-3.27-1.9299-5.1901-1.66
		c0.24,0.9301,2.3601,2.29,0.9,3.0801C1265.73,1316.99,1265.92,1314.1899,1265.3,1312.76z"/>
	<path stroke="#000000" stroke-width="0.0938" d="M1310.38,1311.47c2.45-1.83,5.23-0.15,7.38,1.28c-0.26,0.75-0.76,2.26-1.02,3.02
		c-1.58,0.97-3.11,0.63-4.58-1.05c1.12-0.1,3.34-0.2999,4.46-0.39c-1.92-1.9399-4.1801-0.4399-6.17,0.5
		c-0.1599,0.27-0.48,0.8201-0.6399,1.1001C1307.72,1315.29,1309.08,1312.3101,1310.38,1311.47z"/>
	<path stroke="#000000" stroke-width="0.0938" d="M679.18,1313.62c1.4-0.9399,2.45,1.59,1.34,2.45
		C679.05,1317.03,677.92,1314.45,679.18,1313.62z"/>
	<path stroke="#000000" stroke-width="0.0938" d="M1325.35,1313.5c1.4,0.05,1.23,2.49-0.09,2.62
		C1323.76,1316.0699,1324.09,1313.66,1325.35,1313.5z"/>
	<path stroke="#000000" stroke-width="0.0938" d="M511.45,1315.12c1.17-0.96,1.84-0.73,2.02,0.6801
		C512.29,1316.73,511.62,1316.5,511.45,1315.12z"/>
	<path stroke="#000000" stroke-width="0.0938" d="M545.14,1315.01C548.17,1313.5,545.23,1318.34,545.14,1315.01z"/>
	<path stroke="#000000" stroke-width="0.0938" d="M578.49,1315.0601C581.44,1313.36,578.82,1318.35,578.49,1315.0601z"/>
	<path stroke="#000000" stroke-width="0.0938" d="M611.94,1315.11C614.99,1313.52,612.14,1318.4,611.94,1315.11z"/>
	<path stroke="#000000" stroke-width="0.0938" d="M645.29,1315.05C648.27,1313.4301,645.5,1318.37,645.29,1315.05z"/>
	<path stroke="#000000" stroke-width="0.0938" d="M1156.96,1315.08C1160.0699,1313.61,1157.01,1318.37,1156.96,1315.08z"/>
	<path stroke="#000000" stroke-width="0.0938" d="M1190.3199,1315.08C1193.33,1313.5699,1190.4,1318.4301,1190.3199,1315.08z"/>
	<path stroke="#000000" stroke-width="0.0938" d="M1223.52,1315.1c1.1699-0.91,1.85-0.6699,2.04,0.75
		C1224.36,1316.74,1223.6899,1316.49,1223.52,1315.1z"/>
	<path stroke="#000000" stroke-width="0.0938" d="M1257.38,1315.11C1260.39,1313.5699,1257.49,1318.45,1257.38,1315.11z"/>
	<path stroke="#000000" stroke-width="0.0938" d="M1290.47,1315.09c1.16-0.9399,1.85-0.71,2.0601,0.6901
		C1291.35,1316.6899,1290.66,1316.46,1290.47,1315.09z"/>
</g>
</svg>
