<?xml version="1.0" encoding="utf-8"?>
<svg version="1.1" id="Layer_1" xmlns="http://www.w3.org/2000/svg" xmlns:xlink="http://www.w3.org/1999/xlink" x="0px" y="0px"
	 viewBox="0 0 2640 744.45" enable-background="new 0 0 2640 744.45" xml:space="preserve">
<path d="M2597.961,585.289c-6.093-1.8-12.911-1.493-18.611,1.357c-16.875-1.675-14.151,0.41-19.362,1.63
	c-13.05-1.029-9.915-2.221-18.167,1.553c-5.973-1.382-12.57-2.039-18.04,1.263c-4.557-0.435-9.523-2.697-13.875-0.316
	c-4.139,2.688-8.994,0.034-13.5,0.384c0.025-2.261-0.836-4.011-3.209-4.378c-0.563,0.947-1.101,1.894-1.613,2.859
	c-0.478,0.017-1.451,0.06-1.928,0.077c-1.929,1.997-4.472,2.995-7.185,2.193c-0.964-3.541-4.471-5.06-7.851-5.094
	c-0.077,1.05-0.137,2.116-0.154,3.183c-1.399,1.357-2.705,2.799-3.9,4.318c-3.61-0.649-7.304-0.623-10.854,0.213
	c-0.85-6.778-3.494-71.359-3.106-81.69c0.478-0.307,1.425-0.922,1.895-1.229c-0.358-1.348-0.717-2.688-1.024-4.028
	c6.506-7.569-0.503-9.679,13.815-19.482c-0.196-5.393-2.227-10.47-3.012-15.778c-0.938,0.674-1.877,1.365-2.739,2.074
	c-3.567,0.026-7.117,0.034-10.658,0.085c-2.919-7.383-5.1-48.688-5.069-54.357c0.487,1.041,1.05,2.108,1.57,3.174
	c-0.015-0.145-6.341-62.153-6.383-62.293c0.559-3.803,0.168-4.406,0.094-12.715c0.981-0.486,2.082-0.853,3.166-1.254
	c-0.503-0.017-1.51-0.06-2.014-0.077c1.169-2.927,2.381-5.845,3.302-8.858c0.256,0.009,0.777,0.043,1.041,0.051
	c0.418-1.186,0.896-2.355,1.383-3.524c0.341,0.111,1.032,0.35,1.374,0.469c0.529-1.254,1.101-2.492,1.69-3.729
	c0.828-0.444,1.681-0.879,2.56-1.306c0.483-6.845-2.117-13.015-2.927-19.977c-0.862,0.785-1.698,1.587-2.483,2.398
	c-0.307-0.333-0.913-0.998-1.22-1.34c-3.183,0.179-6.383,0.239-9.498-0.358c-0.521-1.451-1.058-2.884-1.596-4.301
	c-0.504-18.769-10.063-113.614-9.498-124.075c0.683-1.886,0.563-3.908,0.452-5.871c3.038-4.71,3.704-10.59,7.322-14.976
	c1.086-1.213,8.691-4.313,3.328-15.437c-0.085-3.439-0.623-6.861-2.125-9.984c-0.452,0.521-1.374,1.553-1.835,2.074
	c-2.637,0-5.265,0-7.876,0.009c-0.35-0.461-1.05-1.382-1.4-1.843c-0.333,0.239-0.981,0.725-1.314,0.973
	c-0.93-0.367-1.834-0.725-2.713-1.084c0,0-0.375-5.143,0.136-30.208c4.796-2.825,9.779-5.308,14.541-8.209
	c-0.452-3.934-1.05-7.859-1.954-11.716c-4.25-0.128-8.491-0.213-12.706-0.64c-2.419-7.457,1.975-5.314-5.589-18.918
	c-0.341-0.043-1.032-0.137-1.374-0.179c-2.916-2.54-6.564-4.772-6.656-4.855c-0.981-0.068-1.92-0.128-2.833-0.179
	c-0.026-0.41-0.094-1.246-0.128-1.655h-6.699c-0.026-0.427-0.085-1.289-0.119-1.724c-1.101,0.017-2.176,0.043-3.217,0.06
	c-0.29-0.307-0.862-0.913-1.144-1.22c-1.877-0.205-3.755-0.427-5.589-0.64c-1.903-1.203-3.772-2.458-5.436-3.951
	c0.401-0.495,1.195-1.493,1.587-1.988c-0.921-1.033-1.809-2.057-2.73-3.046c-0.41-3.106-0.922-6.204-1.417-9.293
	c-0.58,3.004-1.383,6.076-0.828,9.148c-0.691,2.108-1.587,4.284-0.879,6.519c-0.205,0.725-0.384,1.451-0.512,2.176
	c-1.365,1.724-2.594,3.541-3.746,5.393c-14.15,6.748-26.408,25.572-27.264,26.573c-0.375,4.224-1.604,8.329-1.74,12.57
	c-0.734,1.775-1.51,3.516-2.313,5.248c-4.087,2.15-7.987,4.642-12.083,6.75c0.64,2.859,1.596,5.623,2.458,8.414
	c0.717,0.998,1.425,2.005,2.184,3.012c3.32-0.017,6.639,0,9.984,0.094c0.172,1,5.127,20.403,1.656,31.002
	c-1.417,0.734-2.816,1.502-4.173,2.278c-0.281-0.239-0.836-0.725-1.118-0.964c-2.321,3.354-6.298,4.489-9.856,5.956
	c0.034,1.673,0.316,3.328,0.521,4.992c-1.519,4.105,1.365,7.774,2.765,11.452c1.543,4.879,12.451,1.563,11.58,23.629
	c0,0.001-0.418,124.45-0.418,124.45c-2.065,0.009-4.096,0.307-5.7,1.673c-4.335,1.625-4.593,1.423-8.499,2.466
	c-0.179,1.741-0.009,3.49,0.136,5.24c-1.57,4.77,2.236,8.593,4.753,12.177h2.014c0.836,0.606,1.758,1.22,2.663,1.826
	c1.485,3.029,3.123,5.982,4.599,9.028c-0.384,0.316-1.16,0.947-1.553,1.263c3.798,6.057-0.2,114.761,0.29,121.907
	c-0.094,0.35-0.29,1.05-0.393,1.399c-4.008-1.141-6.346,3.418-13.141,1.272c-0.734,3.746-0.93,7.637-0.358,11.426
	c2.697,3.029,7.492,3.985,8.917,8.141c1.357,3.499,3.311,6.707,5.376,9.839c-0.683,0.555-1.34,1.118-1.963,1.681
	c4.752,6.44,0.878,2.379,3.226,54.921c-0.35,7.33,2.62,14.703,0.563,21.956c0.725,2.159,0.691,4.437,0.537,6.69
	c-1.282,0.631-242.056,0.786-245.069-0.043c-2.031-0.862-2.27-3.191-1.775-5.06c-1.551-1.592-7.047-113.615-0.435-123.255
	c-1.092-1.51-2.185-2.995-3.277-4.471c-0.409-8.328-1.809-16.717-0.409-25.037c0.469-1.391-0.529-2.577-1.033-3.763
	c0.717-3.994,0.623-8.081-0.384-12.006c-1.382-1.314-2.782-2.586-4.198-3.823c-0.043-1.186-0.051-2.355-0.026-3.516
	c0.64-0.691,1.297-1.382,1.98-2.065c-0.973-0.666-1.928-1.331-2.842-1.997c-0.07-5.928-0.723-49.353-1.638-55.774
	c0.905-0.853,1.834-1.698,2.782-2.543c-0.99-0.597-1.954-1.186-2.901-1.766c-0.085-2.662,0.154-5.35,1.553-7.68
	c1.889-7.548,7.148-14.02,13.85-17.732c1.351-5.621,0.265,1.218-0.461-11.153c-1.152-1.289-2.466-2.406-3.584-3.703
	c-0.367-0.034-1.109-0.111-1.476-0.145c-0.256-2.202-1.63-3.465-3.78-3.738c-0.06-0.674-0.179-2.005-0.239-2.679
	c-0.708,0.725-1.383,1.459-2.031,2.21c-2.662-0.026-5.308-0.06-7.936-0.137c-0.041-1.001-0.547-21.022,0.247-22.519
	c0.905-4.267,0.409-8.653,0.521-12.979c5.606-2.679,10.974-5.828,16.606-8.465c-2.884-3.447-6.204-6.46-9.31-9.668
	c-3.687,0.017-7.637,0.401-10.863-1.698c0.617-22.478-9.253-24.042-18.125-30.601c-0.504-0.043-1.51-0.128-2.005-0.171
	c-1.024-1.092-2.022-2.185-2.995-3.277c-2.458-0.41-4.898-0.853-7.339-1.212c-1.101-1.263-2.176-2.543-3.2-3.84
	c-1.024-0.128-2.014-0.256-2.978-0.375c0.418-1.835,0.879-3.661,1.289-5.504c-0.572-0.375-1.707-1.118-2.27-1.493
	c0.222-1.545,0.478-3.081,0.811-4.608c-0.41-1.476-0.785-2.944-1.16-4.412c0.111-0.324,0.333-0.99,0.444-1.314
	c-0.538-0.811-1.05-1.621-1.527-2.423c-0.141,11.508-0.783,4.023-0.017,13.295c-0.64,0.768-1.22,1.57-1.741,2.398
	c0.469,0.777,0.99,1.545,1.579,2.295c0.051,0.418,0.154,1.254,0.213,1.673c-1.075,0.759-2.116,1.527-3.149,2.287
	c-3.664,6.041-0.865,2.811-9.327,7.373c-3.164,6.112-23.876,17.231-20.514,37.572c-0.725,0.7-1.442,1.399-2.108,2.099
	c0.009,0.563,0.017,1.69,0.026,2.253c-4.838,3.729-10.658,5.922-15.471,9.626c2.611,3.618,6.775,5.999,10.01,9.139
	c1.792,0.094,3.593,0.137,5.427,0.154c0.16,4.059,4.426,24.899,1.784,34.543c-0.845-0.282-1.672-0.563-2.475-0.836
	c-0.102,0.777-0.307,2.33-0.401,3.106c-1.587-0.734-3.14-1.502-4.668-2.27c-0.102-1.357-0.188-2.705-0.23-4.053
	c-0.563-0.017-1.681-0.051-2.236-0.068c-8.659,8.963-4.999,13.954-7.108,21.018c5.423,6.953,13.516,4.782,18.193,23.142
	c-0.751,0.853-1.459,1.715-2.15,2.577c2.89,4.49,2.557,56.625,2.568,57.626c-3.208,1.391,0.981,3.849,0.862,6.067
	c-0.25,1.767-2.101,5.995-6.938,7.518c-1.374-1.101-2.739-2.176-4.121-3.226c-0.836,0.247-1.639,0.486-2.415,0.734
	c-0.136,1.186-0.247,2.372-0.333,3.558c-3.695-1.807-2.222-1.251-6.869-3.601c-4.642,2.125-9.609,3.635-13.909,6.443
	c-0.802,0.017-1.579,0.043-2.321,0.077c-3.396-2.108-6.391-7.552-10.931-5.188c-3.891,1.783-8.328,2.679-11.349,5.922
	c-3.097-1.775-5.913-4.011-8.217-6.733c-2.534,0.222-5.018,0.649-7.484,1.135c-0.41-2.091-1.084-4.113-1.835-6.093
	c-1.886-0.435-3.78-0.802-5.649-1.135c-2.261,2.483-3.439,5.717-5.786,8.124c-2.586-1.118-5.547-2.748-8.303-1.212
	c-3.413,1.775-7.561,2.492-10.155,5.495c-3.797-0.631-6.161-3.874-8.858-6.255c-3.021,0.384-6.98-0.188-8.858,2.756
	c-1.161-0.393-2.279-0.794-3.388-1.186c2.279-3.883,5.214-7.398,9.233-9.566c-0.196-3.072-0.119-6.144,0.043-9.216
	c-0.811,0.341-1.596,0.691-2.355,1.041c-0.35-0.401-1.032-1.22-1.382-1.621c-0.862-0.026-1.698-0.043-2.5-0.06
	c-0.589-1.638-1.937-1.553-3.319-1.195c-0.29-0.683-0.546-1.357-0.777-2.031c-1.05,0.358-2.022,1.254-3.123,0.717
	c-0.154-6.076-1.852-12.16-0.58-18.21c0.503-2.961,0.401-5.965,0.358-8.951c3.831-2.065,7.586-4.318,11.631-5.982
	c-2.603-2.227-5.777-3.584-8.764-5.163c-0.512-0.026-1.527-0.077-2.031-0.102c-0.41-0.683-0.785-1.348-1.143-2.014
	c-3.268-1.109-1.886-4.813-2.313-7.407c-0.844-10.458-16.68-19.565-20.121-19.874c-1.587-1.502-3.141-3.038-4.71-4.548
	c0.367-1.007,0.734-2.005,1.16-3.004c-0.614-0.657-1.212-1.306-1.775-1.954c0.239-1.058,0.478-2.116,0.776-3.166
	c-0.324-0.435-0.981-1.306-1.306-1.741c0.145-0.589,0.435-1.766,0.58-2.364l-0.87-0.009c-0.838,9.532-0.838,10.523-0.256,12.245
	c-2.466,3.268-4.941,6.818-9.225,7.714c-0.017,0.418-0.043,1.263-0.06,1.681c-14.764,9.117-13.614,20.07-13.73,25.361
	c-0.751,1.058-1.417,2.159-2.014,3.294c-3.584,2.355-7.424,4.284-11.059,6.536c3.738,1.801,7.526,3.524,11.358,5.154
	c-0.145,5.307,4.247,21.016,0.264,27.716c-0.725-0.034-2.184-0.111-2.918-0.145c0.418-0.956,0.853-1.903,1.306-2.85
	c-1.4-0.196-2.808-0.666-4.19-0.375c-1.145,1.209-2.579,4.11-3.226,5.572c-0.734,0.742-1.442,1.493-2.125,2.244
	c0.102,2.799,0.102,5.598,0.213,8.397c-2.5-2.031-6.52-2.91-9.028-0.444c-2.722,1.826-2.398,5.35-2.935,8.192
	c-2.756-1.783-5.163-4.019-7.851-5.854c-3.371,0.905-6.238,2.953-9.293,4.506c16.019-52.864-4.01-108.492-63.531-134.144
	c-0.751-1.169-1.485-2.321-2.227-3.465c0.239-0.29,0.708-0.879,0.939-1.169c-0.649-0.034-1.946-0.102-2.594-0.137
	c-0.23-0.41-0.7-1.22-0.93-1.621c0.179-0.418,0.521-1.263,0.691-1.681h-5.043c-0.026-0.683-0.077-2.039-0.102-2.722
	c-1.869,0.188-3.72,0.384-5.547,0.589c-2.517-3.302-7.433-1.237-9.907-4.437c-16.089-17.87-6.75-12.795-21.7-22.861
	c-0.495-0.888-0.973-1.775-1.417-2.654c-1.203-0.469-2.398-0.956-3.533-1.451c0.947-0.64,1.903-1.272,2.901-1.877
	c0.009-0.512,0.026-1.519,0.034-2.022c-0.811-0.111-2.423-0.333-3.234-0.444c4.142-3.388,8.051-3.525,6.545-12.245
	c-5.597-6.415-6.863-3.348-6.588-8.977c0.486-0.759,0.964-1.536,1.417-2.338c-0.785-1.886-1.664-3.729-2.441-5.598
	c0.845-0.811,1.69-1.621,2.569-2.423c0-1.254,0.026-2.5,0.085-3.746c-1.161-0.819-2.304-1.63-3.456-2.406
	c-0.043-0.853-0.06-1.698-0.051-2.534c0.435-0.435,0.896-0.862,1.391-1.289c-3.33-3.211,0.23,1.641-3.234-24.67h-0.597
	c-1.119,18.069-2.288,7.218-0.777,23.484c-0.657,0.563-1.288,1.135-1.903,1.707c0.529,0.435,1.579,1.306,2.108,1.741
	c-0.597,4.777-7.021,5.52,0.555,10.965c-0.316,0.341-0.939,1.024-1.254,1.365c0.273,0.282,0.828,0.862,1.109,1.152
	c-0.922,1.22-1.784,2.466-2.637,3.721c0.836,0.333,1.69,0.666,2.56,0.998c0.043,1.365,0.111,2.722,0.196,4.087
	c-9.887,7.283-9.073,12.25,0.273,17.297c-1.135,0.93-2.185,1.894-3.251,2.884c0.845,0.265,2.526,0.785,3.362,1.05
	c-21.483,20.676-19.404,27.554-30.293,36.019c-2.278,0.452-4.565,0.862-6.844,1.22c-0.009,0.631-0.017,1.886-0.026,2.517
	c-1.766-0.179-3.499-0.375-5.231-0.58c-0.367,0.367-1.101,1.109-1.468,1.476c-0.085,0.546-0.256,1.63-0.341,2.176
	c-1.178,0.119-2.33,0.239-3.473,0.358c0.384,0.785,0.785,1.57,1.212,2.355c-0.879,0.367-1.732,0.734-2.568,1.101
	c0.333,0.802,0.683,1.604,1.05,2.415c-39.408,28.26-56.122,50.082-61.141,98.517c0,0-0.556,10.231,1.203,26.146
	c-0.247,0.299-0.742,0.887-0.99,1.186c0.401,0.384,1.195,1.152,1.596,1.536c0.034,0.538,0.12,1.604,0.162,2.142
	c-1.212,0.008-2.381,0.026-3.541,0.051c-2.788-3.502-3.62-4.83-8.073-6.989c-0.017-0.623-0.043-1.86-0.06-2.483
	c-0.759-0.026-2.296-0.068-3.063-0.085c-1.997,1.732-4.011,3.439-6.059,5.111c-0.597-0.009-1.8-0.017-2.406-0.017
	c-0.068,0.589-0.213,1.775-0.282,2.364c-1.365,0.444-2.705,0.964-3.703,2.022c-0.427,0.051-1.271,0.162-1.698,0.213
	c-0.009-0.563-0.017-1.69-0.026-2.253c-7.197-4.909-3.445-3.718-11.341-7.108c-1.092,0.299-2.176,0.589-3.234,0.896
	c-0.06,0.469-0.171,1.417-0.23,1.886c-5.793,2.292-5.11,6.833-14.217,1.664c-0.017-0.853-0.017-1.698,0.008-2.543
	c0.427-0.145,1.289-0.444,1.715-0.589c-1.553,0.009-3.098,0.009-4.616,0.009c0.563-1.86,1.186-3.695,1.818-5.538
	c-2.166-10.721-0.569-84.258-4.309-96.128c0.538-0.418,1.621-1.263,2.167-1.69c-0.256-1.886-0.478-3.857-1.826-5.325
	c-1.172-3.573-1.734-31.988-0.196-36.079c-0.213-0.768-0.401-1.536-0.58-2.295c0.017-0.367,0.051-1.109,0.068-1.485
	c4.196-4.826,2.495-7.502,9.993-21.53c-0.435-0.299-1.314-0.887-1.758-1.186c0.077-2.594,0.171-5.197,0.205-7.791
	c-0.435,0.307-1.314,0.93-1.758,1.237c-1.143-0.717-2.33-1.348-3.319-2.244c-0.606-4.958-0.29-10.018,0.674-14.908
	c0.998-0.444,2.014-0.887,3.046-1.323c0.742-2.022,1.545-4.028,2.304-6.059c-13.918-6.639-0.204-10.285-20.514-21.965
	c-0.452-2.441-1.024-4.855-1.775-7.219c-0.188,2.321-0.205,4.659-0.205,6.989c-7.279,8.1-11.843,5.72-13.389,19.191h-0.998
	c-0.034-0.341-0.094-1.033-0.128-1.382c-1.681-0.247-3.311-0.717-4.531-1.929c-1.92,2.952-3.55,6.187-3.337,9.83
	c0.427-0.085,1.271-0.247,1.698-0.333c0.614,1.254,1.246,2.509,1.928,3.738c1.835,0.435,3.618,1.118,5.316,1.971
	c-0.154,2.62,0.043,5.495-1.886,7.561c-0.213,2.108-0.171,4.224,0.068,6.332c1.348,1.911,2.5,4.702,0.239,6.46
	c-0.179-1.365-0.324-2.739-0.435-4.105c-0.35,0.282-1.041,0.845-1.391,1.126c-1.417,3.644-0.486,7.697-2.005,11.281
	c5.97,4.329,5.151,11.369,10.257,18.039c-1.212,1.51-2.406,3.038-3.609,4.54c-0.444,0.068-1.323,0.213-1.766,0.282
	c-2.27,1.988-4.028,4.454-5.069,7.287c-0.777-0.179-1.536-0.358-2.278-0.529c-18.453-46.416-43.793-60.004-59.511-71.629
	c-0.341-0.111-1.015-0.341-1.357-0.452c-1.161-0.776-15.059-9.201-20.54-10.214c-1.357-1.485-0.93-3.328-0.674-5.103
	c-2.543-2.227-6.212-1.374-9.293-1.562c-0.461-1.775-0.922-3.541-1.408-5.299c-1.476,0.222-2.918,0.452-4.369,0.683
	c-1.835-0.247-3.678-0.435-5.496-0.623c-19.071-20.884-15.448-22.434-28.16-30.396c-0.887-0.102-1.766-0.205-2.62-0.307
	c-1.434-1.894-3.362-3.285-5.444-4.386c1.186-0.751,2.355-1.51,3.575-2.253c-0.768-1.655-2.185-2.816-3.601-3.874
	c11.365-4.347,8.695-14.034,7.211-16.341c-2.031-2.381-4.932-3.755-7.39-5.606c0.017-1.613,0.051-3.226,0.06-4.83
	c0.76-0.435,1.536-0.87,2.338-1.297c0.384-0.674,0.776-1.34,1.195-2.014c-1.195-0.819-2.381-1.63-3.567-2.415
	c-0.043-1.434-0.068-2.867-0.085-4.292c0.905-0.819,1.818-1.647,2.765-2.466c0.478-3.729-1.135-7.27-4.446-9.114
	c0.051-0.401,0.145-1.212,0.196-1.621c0.657-0.922,1.331-1.852,1.997-2.79c-0.555-0.435-1.656-1.314-2.202-1.749
	c0.358-10.291,0.751-20.898-3.123-30.643c-0.171,9.25-2.748,18.697-0.341,27.836c-0.094,0.179-0.281,0.538-0.375,0.708
	c0.99,1.963-0.939,3.285-1.911,4.719c0.751,0.742,1.519,1.493,2.304,2.236c0.017,0.503,0.06,1.493,0.085,1.988
	c-1.178,1.024-2.347,2.039-3.516,3.046c-0.043,1.801-0.043,3.601,0.009,5.402c1.067,1.041,2.15,2.082,3.243,3.123
	c-0.154,1.05-0.222,2.116-0.307,3.183c-1.058,1.229-2.381,2.33-2.978,3.866c1.135,0.939,2.381,1.741,3.618,2.577
	c-0.23,0.495-0.444,0.998-0.631,1.502c1.955,4.305-21.283,13.639-0.777,24.977c-0.964,1.101-3.021,1.749-2.918,3.413
	c0.802,0.717,1.647,1.399,2.543,2.057c-0.375,0.41-0.734,0.828-1.067,1.246c-1.51,1.024-2.782,2.338-3.806,3.848
	c-0.845,0.102-1.673,0.205-2.475,0.316c-17.136,11.979-10.815,14.796-27.213,30.49c-2.628,0.111-5.256,0.154-7.868,0.239
	c-0.324,0.375-0.981,1.126-1.314,1.493c0.239,0.333,0.725,0.981,0.964,1.306c-0.145,0.512-0.427,1.545-0.572,2.065
	c-3.55,0.043-7.492-0.606-10.445,1.835c0.76,1.331,1.51,2.679,2.244,4.053c-2.142,0.478-4.309,0.853-6.46,1.152
	c0.367-0.521,1.101-1.545,1.468-2.057c-0.93,0.768-1.852,1.527-2.748,2.295c-1.05,3.379-4.958,3.661-7.714,4.949
	c-3.776,2.7-45.013,23.072-63.411,66.406c-0.67,1.689-6.108,12.553-9.054,12.791c-1.323-1.749-2.278-3.729-3.371-5.606
	c-0.819-0.614-1.604-1.237-2.381-1.869c-0.469-0.102-1.416-0.299-1.894-0.401c-1.084-1.596-2.133-3.2-3.149-4.83
	c2.458-4.25,4.019-8.926,5.376-13.619c1.579-1.399,3.217-2.739,4.89-4.036c-0.41-0.094-1.22-0.29-1.63-0.384
	c0.136-4.113,0.026-8.26-1.075-12.254c-2.918-2.057-2.304-6.007-3.687-8.951c0.367-2.483,0.495-4.992,0.546-7.492
	c1.92-0.956,3.84-1.92,5.751-2.927c-0.563-1.946-1.075-3.908-1.655-5.845c-1.681-0.768-3.354-1.545-4.983-2.372
	c0-3.394,1.211-11.245-11.768-17.877c-1.579-2.415-1.903-5.282-2.065-8.09l-0.503,0.026c-0.273,1.34-0.503,2.697-0.794,4.036
	c0.196,0.299,0.597,0.887,0.794,1.186c-3.081,3.567-7.151,5.999-10.684,9.045c-3.192,2.807-2.893,7.364-4.352,11.025
	c-1.656,1.442-3.951,1.86-5.717,3.14c0.273,2.142,1.05,4.19,1.775,6.221c1.485,0.435,3.61,0.538,3.789,2.526
	c0.947,5.914,0.742,12.075-0.563,17.928c-1.434,0.367-2.859,0.751-4.258,1.161c0.145,1.126,0.307,2.253,0.486,3.379
	c-0.256,0.282-0.768,0.853-1.024,1.135c0.387,1,6.835,18.563,9.293,21.965c-0.324,0.93-0.674,1.86-0.99,2.799
	c0.58,0.64,1.178,1.28,1.792,1.92c0,34.109,0.245,31.756-0.956,35.959c-0.461,0.401-1.391,1.203-1.852,1.613
	c0.666,1.843,1.519,3.635,1.946,5.572c-3.182,13.376-0.974,76.08-1.724,102.212c-5.361,5.299-8.4,10.415-8.567,10.581
	c-2.97-5.325-7.8-9.003-12.732-12.373c-3.311,2.142-6.511,4.471-9.464,7.1c0.034,0.563,0.111,1.69,0.145,2.253
	c-0.973,0.768-1.92,1.553-2.91,2.27c-3.994-4.011-7.859-8.9-13.338-10.735c-3.337,1.118-5.683,4.275-8.533,6.315
	c-0.026,0.495-0.077,1.493-0.102,1.988c-0.99,1.109-1.963,2.236-2.927,3.362c-6.875-8.759,24.917-75.134-61.764-131.951
	c0.521-0.896,1.067-1.792,1.613-2.68c-0.683-0.273-2.065-0.819-2.748-1.092c0.358-0.648,0.734-1.297,1.126-1.937
	c-1.485-0.341-2.935-0.674-4.386-1.024c0.034-0.589,0.111-1.775,0.145-2.364c-2.005-0.435-4.002-0.879-5.999-1.263
	c-0.034-0.572-0.12-1.715-0.154-2.287h-7.398c-0.128-0.521-0.384-1.57-0.512-2.091c-10.923-5.867-10.94-20.753-23.868-27.401
	c-1.169-2.423-3.26-4.122-5.137-5.948c0.802-0.802,1.63-1.587,2.483-2.347c-1.152-0.862-2.295-1.724-3.43-2.577
	c2.816-0.7,5.282-2.227,7.296-4.292c-0.183-8.771,0.643-5.849-6.955-12.774c0.06-0.649,0.128-1.297,0.205-1.937
	c-0.461-2.039,1.34-3.021,2.722-4.07c-0.973-0.649-1.946-1.289-2.901-1.911c0.043-0.529,0.137-1.604,0.179-2.133
	c-0.213-0.393-0.649-1.161-0.862-1.553c1.084-0.41,2.176-0.811,3.294-1.212c0-1.51,0.009-3.029,0.026-4.54
	c-1.169-0.981-2.321-1.954-3.473-2.918c0.094-0.478,0.282-1.417,0.375-1.886c2.057-1.57,0.196-3.166-0.23-4.915
	c1.604-7.552-0.785-15.121-1.442-22.656c-0.399,1.708-2.93,14.067-0.521,23.706c-0.973,0.384-1.937,0.777-2.884,1.161
	c0.794,0.828,1.587,1.638,2.415,2.458c-0.188,2.466-2.278,3.823-3.968,5.282c0.06,2.534,1.741,4.352,3.721,5.709
	c-0.29,0.358-0.87,1.084-1.161,1.442c0.316,0.384,0.939,1.143,1.246,1.527c-0.905,0.427-1.801,0.853-2.679,1.28v1.963
	c0.742,0.375,1.493,0.751,2.261,1.135c-0.145,1.254-0.273,2.517-0.333,3.789c-1.715,1.195-3.482,2.287-5.265,3.345
	c-4.98,9.856,1.966,11.734,5.53,13.901c-1.075,0.546-2.125,1.118-3.157,1.715c0.41,1.195,1.493,1.963,2.304,2.901
	c-2.159,1.246-4.164,2.79-5.436,4.983c-0.393,0.043-1.186,0.119-1.587,0.162c-10.533,7.96-15.147,19.923-21.163,24.457
	c-1.63,0.171-3.226-0.23-4.821-0.41c-1.382,3.379-5.197,2.159-8.038,2.347c0.034,0.657,0.094,1.98,0.128,2.645
	c-1.869-0.017-3.729-0.043-5.581-0.051c-0.077,1.135-0.136,2.278-0.188,3.422c-1.084-0.043-2.167-0.085-3.234-0.119
	c0.205,0.41,0.614,1.229,0.811,1.638c-0.376,1.092-0.742,2.193-1.075,3.294c-58.749,32.884-77.63,72.51-60.954,136.277
	c-4.207-2.867-8.422-5.837-13.338-7.356c-1.92,1.766-3.635,3.866-5.922,5.154c-2.244,0.384-4.523,0.213-6.767,0.256
	c0.461-0.845,0.939-1.681,1.425-2.517c1.382-0.427,2.756-0.853,4.156-1.254c-0.973-0.879-1.937-1.749-2.901-2.611
	c0.034-0.478,0.102-1.434,0.145-1.911c-1.135-1.417-2.406-2.697-3.814-3.814c-0.572,0.026-1.724,0.094-2.304,0.128
	c0.008-1.263,0.043-2.509,0.085-3.755c0.913-1.05,1.877-2.065,2.68-3.2c-1.033-2.236-3.465-3.84-5.965-3.268
	c-1.852,0.973-0.486,3.123-0.469,4.693c-4.253-1.434-5.605-1.825-9.148-4.079c0-0.001,1.041-25.514,1.041-25.515
	c3.763-2.039,7.936-3.26,11.537-5.606c-4.838-2.807-10.385-5.052-13.355-10.103c1.425-18.311-12.155-21.281-23.177-33.681
	c0.239-0.922,0.529-1.835,0.87-2.722c-0.597-1.553-1.212-3.098-1.784-4.642c-0.529,1.655-1.067,3.311-1.621,4.966
	c0.307,0.41,0.922,1.229,1.229,1.638c-2.705,2.458-4.941,6.11-9.003,6.221c-4.422,5.167-17.287,8.467-16.102,24.832
	c-0.76,0.862-1.502,1.732-2.236,2.611c-4.156,1.527-8.021,3.721-11.819,5.956c3.746,2.133,7.663,3.951,11.537,5.845
	c0,0,0.699,10.625,0.828,28.117c-1.186-0.367-2.347-0.734-3.507-1.109c-0.247,0.427-0.734,1.28-0.981,1.707
	c-0.469-0.017-1.408-0.043-1.877-0.06c-0.717,0.683-1.417,1.374-2.108,2.065c-0.35-0.307-1.058-0.93-1.408-1.237
	c-0.444,0.879-0.887,1.758-1.331,2.645c-0.563-0.102-1.707-0.316-2.278-0.418c-0.102,2.381-0.213,4.779-0.521,7.159
	c0.137,0.333,0.41,1.015,0.555,1.348c5.239,3.439,9.216,8.55,11.085,14.558c-4.881-2.79-9.873-5.359-15.181-7.253
	c-2.833,2.756-6.084,5.026-8.926,7.765c-4.548-3.243-9.685-5.973-15.172-7.014c-2.637,1.664-5.026,3.703-7.714,5.291
	c-0.341-0.973-0.666-1.937-0.981-2.901c0.896-0.649,1.826-1.28,2.739-1.911c-6.192-2.403-7.574-10.51-12.817-4.437
	c-0.512,1.792-0.316,3.678-0.29,5.521c-2.031-0.555-4.053-1.118-6.076-1.638c-2.654,2.5-5.495,4.787-8.329,7.083
	c-5.342-3.575-5.646-3.342-15.215-6.904c-16.59,14.468-5.364,0.297-26.18,0.7c-0.666,1.493-1.365,2.987-2.099,4.454
	c-0.666-0.026-2.005-0.077-2.671-0.102c0.205-0.41,0.623-1.212,0.828-1.621c-0.478-1.766-0.913-3.541-1.382-5.299
	c-0.879,0.41-1.741,0.811-2.603,1.22c-0.393,0.666-0.768,1.34-1.143,2.014c-1.63,0.922-3.302,2.483-5.222,1.28
	c-0.819-2.253-2.261-4.173-3.934-5.845c-0.026-1.314-0.034-2.62-0.026-3.925c2.295-0.597,2.039-3.081,0.06-3.891
	c0,0,0.183,3.382,0.845-54.622c0.905-0.768,1.801-1.536,2.722-2.295c-0.904-0.802-1.818-1.596-2.714-2.389
	c0.068-1.143,0.145-2.278,0.23-3.413c2.176-4.105,3.789-8.55,6.793-12.168c3.738-2.338,7.45-4.727,10.948-7.407
	c-0.768-3.055-1.698-6.408-0.205-9.404c1.126,0.512,2.176,1.152,3.251,1.792c0.504,0.094,1.51,0.29,2.005,0.384
	c1.493-3.098,1.698-7.1-0.879-9.711c-3.558,1.843-7.501,2.509-11.264,3.755c-0.307-0.623-0.606-1.246-0.896-1.86
	c-0.93,0.35-1.852,0.7-2.773,1.041c-0.333-0.41-1.007-1.22-1.34-1.63c1.024-0.41,2.057-0.819,3.098-1.229
	c-3.021-2.287-6.443-3.942-9.899-5.427c0-9.737,0.964-19.439,2.287-29.073c3.169-0.891,4.767,0.919,15.573-9.404
	c0.009-0.205,0.034-0.614,0.043-0.819c-4.881-3.482-10.411-5.905-15.428-9.165c0.043-0.555,0.128-1.655,0.171-2.21
	c-0.887-0.486-1.766-0.973-2.645-1.451c-0.066-27.73-17.032-28.874-31.462-46.234c-0.034-0.435-0.111-1.306-0.145-1.741
	c-0.435-0.324-1.323-0.981-1.758-1.314c0.555-0.649,1.126-1.297,1.707-1.937c-0.836-0.956-1.664-1.911-2.492-2.867
	c0.154-0.299,0.461-0.888,0.623-1.186c-0.068-3.149-0.358-6.298-0.179-9.438c-0.316-0.282-0.947-0.836-1.263-1.118
	c-0.017,1.69-0.017,3.379-0.017,5.069c-0.188,0.299-0.58,0.905-0.777,1.203c0.401,1.869,0.666,3.755,0.853,5.658
	c-0.563,0.256-1.69,0.768-2.253,1.024c-0.077,0.384-0.213,1.161-0.282,1.553c0.7,0.939,1.417,1.886,2.125,2.842
	c-2.338,1.348-4.25,3.234-6.195,5.069c-2.62,0.853-5.393,1.186-7.953,2.244c-2.934,3.824-18.519,7.198-22.067,22.135
	c-2.576,7.955,2.203,10.348-3.61,12.049c-2.705,0.546-5.521,0.316-8.201,0.939c-2.27,1.323-3.934,3.43-5.956,5.06
	c-1.041,1.459-2.176,2.859-3.029,4.429c5.564,2.756,10.982,5.82,16.64,8.397c1.869,8.098,1.411,34.47,1.399,35.473
	c-2.731,0.034-5.47,0.043-8.201,0.051c-0.555-0.683-1.109-1.357-1.647-2.031c-0.435,1.229-0.862,2.458-1.289,3.686
	c-0.58-0.085-1.732-0.256-2.313-0.341c-0.085,0.683-0.265,2.057-0.358,2.739c-0.981,0.128-1.954,0.247-2.918,0.384
	c-0.094,0.538-0.265,1.621-0.35,2.167c-0.828,0.393-1.647,0.794-2.449,1.195c0.243,11.063-2.57,9.216,1.126,12.399
	c1.553,1.153,13.754,8.031,15.71,23.919c-0.811,0.888-1.647,1.749-2.338,2.722c3.889,7.191,0.656,52.225,0.751,58.377
	c-1.197,1.795-3.393,0.797,0.137,3.934c0.623,3.567-2.347,5.709-4.378,8.098c-0.308,4.429-0.812,36.977-0.845,39.39
	c-1.143,1.408-2.236,2.859-3.362,4.284c0.008,0.35,0.043,1.041,0.06,1.391c1.869,0.845,1.621,2.884,1.801,4.591
	c0.265,0.316,0.794,0.956,1.058,1.272c-1.003,13.813-0.783,103.722-1.86,112.922c0.06,0.196,0.162,0.58,0.222,0.777
	c-0.427,3.089-0.503,6.221-0.512,9.353c-1.732-0.324-3.439-0.674-5.146-1.067c-2.176,0.93-4.275,2.244-6.656,2.552
	c-1.519-0.41-2.227-2.099-3.226-3.174c-1.673-0.538-3.362-1.015-5.069-1.399c-0.461-0.785-0.913-1.553-1.365-2.321
	c-1.357,0-2.714,0-4.053,0.009c-1.212,2.423-0.503,4.924,0.555,7.245c-1.487-0.573-9.821-4.902-15.957-0.461v-5.035
	c-2.654-0.009-5.308-0.009-7.953,0.043c0.418,0.896,0.853,1.801,1.289,2.705c-4.011,0.273-7.757,1.741-11.656,2.603
	c-0.401-0.486-1.22-1.459-1.63-1.937c-2.85,0.017-5.837-0.529-8.55,0.623c-7.327,2.179-11.902-4.044-19.089,1.809
	c-7.867-3.705-9.324-3.318-15.505-0.094c-1.05-0.742-2.091-1.502-3.115-2.261c-4.019-0.307-8.184-0.324-11.674,1.997
	c-8.865-2.882-9.755-2.981-15.633,0.265c-9.131-4.185-11.788-1.986-15.846,0.307c-0.64-0.563-1.289-1.109-1.92-1.655
	c-2.731-0.162-5.41-0.751-8.132-0.862c-1.792,0.555-3.405,1.536-5.06,2.389c-3.072-1.869-6.716-1.664-10.138-2.227
	c-1.903,0.751-3.763,1.63-5.589,2.552c-2.782-2.116-2.33-5.692-2.347-8.772c-0.193-0.005-33.212-1.835-33.212-1.835
	c-0.009-1.348-0.017-2.679-0.017-4.002c-1.714-0.298-25.182-1.99-28.996-0.956c0.008-14.417-0.562-65.807,2.193-70.605
	c0.538-0.973-1.084-1.57-1.417-2.347c11.319-15.998-2.629-2.325,14.575-18.244c0.171-3.652,0.145-7.33-0.154-10.974
	c-3.533,0.717-7.083,0.239-10.564-0.461c-0.708-0.631-1.408-1.254-2.108-1.86c-0.418,0.35-1.271,1.058-1.69,1.417
	c-0.437-4.647-2.79-103.411-2.85-104.414c2.268-41.99,5.941-17.211,14.788-38.903c-0.649-1.877-0.777-3.866-0.555-5.828
	c1.621,1.263,2.244,4.693,4.565,4.642c1.954-1.801,2.901-4.352,4.053-6.682c-1.033,0.307-2.057,0.614-3.081,0.922
	c1.271-2.816,2.065-5.803,2.56-8.841c-4.215,1.109-8.593,1.092-12.911,0.922c0.273,2.039,0.631,4.07,1.109,6.076
	c-2.466-0.811-4.915-1.698-7.202-2.918c-1.169-0.119-2.313-0.401-3.43-0.725c-0.683-9.65-1.515-63.647-1.946-73.216
	c-2.915-64.816-0.362-68.113,10.086-71.117c1.758-3.789,3.209-7.714,4.343-11.742c-0.256-0.375-0.768-1.143-1.024-1.527
	c0.06-2.202,0.119-4.403,0.171-6.605c-3.43-0.435-6.775-1.775-9.233-4.275c-1.971-0.614-4.403-0.657-5.854-2.287
	c-1.923-21.365,1.632-27.181,2.577-30.473c3.883,0.06,7.868,0.401,11.605-0.887c0.017-1.229,0.043-2.458,0.077-3.686
	c1.621-2.304,1.903-5.077,1.587-7.808c-31.432-15.383,5.622-10.483-38.801-48.179c-0.41-0.017-1.229-0.068-1.638-0.094
	c-0.879-0.657-1.758-1.297-2.637-1.937c-1.502-1.946-3.191-3.721-4.89-5.495c2.108-3.243-1.417-6.238-0.145-9.583
	c-0.358-2.466-0.614-4.949-0.964-7.424c-1.229,3.396-1.783,7.014-1.331,10.615c-0.486,0.333-1.468,0.998-1.954,1.323
	c0.299,1.391,0.606,2.773,0.939,4.156c-0.853-0.034-1.707-0.06-2.56-0.077c-0.939,1.143-1.946,2.236-2.867,3.388
	c-2.381,0.009-4.762,0.017-7.134,0.017c-0.299,0.375-0.887,1.126-1.186,1.51c-1.766,0.205-3.721,0.23-4.89,1.801
	c-1.297,0.06-2.586,0.094-3.874,0.137c-0.026,0.418-0.077,1.246-0.102,1.655c-1.297,0.017-2.586,0.034-3.874,0.051
	c-0.99,1.109-2.014,2.176-3.004,3.277c-0.393,0.06-1.186,0.171-1.579,0.23c-1.875,2.234-2.394,2.727-4.489,5.325
	c-2.116,4.787-1.451,10.189-3.473,14.976c-4.215,0.068-8.431,0.06-12.646,0.051c-0.896,4.079-1.425,8.235-1.092,12.416
	c4.787,2.082,9.028,5.163,13.747,7.364c0.059,2.377,0.944,22.233,1.493,23.697c-0.41,2.671-1.05,5.299-1.766,7.902
	c-0.887-0.222-1.766-0.444-2.654-0.666c-3.789,1.101-7.927,1.442-11.546-0.452c-0.569,3.857-2.795,9.644-2.688,21.205
	c12.007,8.852,6.995,11.156,12.698,18.731c0.171,2.15-0.171,4.591,1.596,6.229c0,0-10.137,127.921-10.138,127.923
	c-0.41-0.179-1.246-0.546-1.664-0.734c-0.469,0.563-0.93,1.135-1.399,1.707c-2.108-0.034-4.224-0.06-6.332-0.128
	c-3.774-4.001-2.678-0.731-16.051-4.463c0.939,3.26,2.142,6.502,4.523,9.011c-1.399-0.256-2.799-0.503-4.19-0.734
	c1.417,2.628,3.413,4.872,5.308,7.168c1.024,0.205,2.039,0.418,3.063,0.632c-0.299,1.263-0.597,2.526-0.913,3.789
	c1.118,3.738,5.402,4.676,7.415,7.765c3.209,3.942,3.191,9.549,6.793,13.244c-0.563,2.091-0.998,4.309,0.7,6.05
	c-0.65,15.389-8.216,93.131-8.235,112.418c-0.614,1.553-1.092,3.183-1.946,4.634c-4.625,0.708-9.737,1.485-14.063-0.811
	c-0.435,3.072-0.964,6.135-1.143,9.233c-0.375,0.384-1.126,1.152-1.502,1.536c0.529,1.988,1.015,3.994,1.596,5.973
	c10.609,4.739,8.52,12.621,13.389,17.92c-0.401,1.195-0.794,2.398-1.195,3.601c0.597,0.649,1.195,1.314,1.801,1.98
	c0,0.001-1.186,56.251-1.186,56.252c-23.745,0.712-35.435-4.027-46.413-0.324l-0.324,0.495c-0.478,5.606,0.009,11.264-0.213,16.887
	c-3.251,0.017-6.511,0.017-9.762,0.043c0.003-0.097,0.004-0.194,0.007-0.292c-0.749,0.071-0.879,0.04-1.27,0.023
	c-1.478,0.331-2.954,0.662-4.446,0.969c-0.469,0.606-0.939,1.22-1.408,1.843c-1.698,0.017-3.388,0.043-5.069,0.111
	c-2.952,3.558-8.021,2.014-12.032,2.859c-0.828-0.41-1.655-0.819-2.475-1.22c0.418-0.512,1.237-1.553,1.655-2.074
	c-0.802,0.683-1.596,1.374-2.398,2.074c-0.341-0.683-1.033-2.039-1.382-2.722c-1.613,0.068-3.226,0.119-4.847,0.188
	c-0.017-3.703-0.034-7.398-0.171-11.085c-6.616,0.35-19.95-1.81-31.582-0.777c-0.563,3.686,0.393,7.441,0.222,11.17
	c-1.946,0.299-3.9,0.521-5.854,0.751c-0.085-1.784-0.179-3.558-0.273-5.325c0.273-0.384,0.819-1.161,1.092-1.544
	c-0.213-0.427-0.64-1.289-0.845-1.724c0.085-4.745,0.009-9.489-0.239-14.225c-7.706-0.717-15.351-2.031-22.989-3.285V706.54h2560
	V584.351C2599.283,584.658,2598.609,584.974,2597.961,585.289z M239.45,144.773c-1.331,1.463-10.263,0.882-12.501,0.367
	c-0.051-4.113-0.119-8.235,0.196-12.339c2.62-1.075,1.306-4.378,1.63-6.562c2.492-0.691,4.531,0.563,6.366,2.099
	c3.487,5.349,2.953,3.946,1.988,10.189C238.562,140.259,240.064,142.401,239.45,144.773z M266.15,150.533
	c-6.4-1.058-12.587-3.098-18.517-5.709c0.614-3.217,0.734-6.494,0.683-9.762c10.383-3.32,16.783,3.379,16.043,7.552
	C265.86,144.987,266.27,147.76,266.15,150.533z M286.724,157.906c-3.695-0.068-6.69-2.423-9.916-3.9
	c-0.384-0.87-0.776-1.741-1.169-2.603c-0.623-4.053,0.085-8.124,0.009-12.186c1.271-0.887,2.944-2.654,4.54-1.229
	c1.809-1.314,3.917,0.563,4.915,2.031c0.043,1.493-0.119,2.987-0.205,4.48C288.294,148.135,286.793,153.46,286.724,157.906z
	 M561.105,313.827c0.051-5.009,0-10.018,0.026-15.027c0.418-0.051,1.254-0.137,1.672-0.188c-0.017,5.154,0,10.3,0.094,15.454
	C562.453,314.006,561.549,313.887,561.105,313.827z M572.011,315.576c-1.092,0.068-2.167,0.145-3.234,0.222
	c-2-4.197-0.933-22.289-0.35-25.583c3.567-1.793,1.317,7.105,1.348,9.105C573.632,303.928,571.644,310.132,572.011,315.576z
	 M585.647,314.109c-2.876,0.913-5.905,0.717-8.866,0.708c-0.162-5.41,0.137-10.872,2.159-15.949
	c0.265-0.273,0.802-0.828,1.067-1.101c0.37-1.848-0.553-5.903,6.34-4.685C586.364,300.088,586.526,307.154,585.647,314.109z
	 M597.807,317.104c-1.664-0.393-3.311-0.777-4.958-1.178c-0.538-0.896-1.067-1.801-1.596-2.688
	c0.051-6.391,0.136-12.783,0.188-19.174c1.818,1.348,4.147,2.782,3.968,5.385C595.263,305.675,599.429,303.366,597.807,317.104z
	 M613.286,316.967c-0.708,0.717-1.391,1.442-2.065,2.185c-2.91-0.495-5.828-0.956-8.721-1.527c0.077-3.362-0.222-6.767,0.358-10.086
	c0.58-0.759,1.314-1.382,2.005-2.039c0.077-2.765-0.077-5.632,1.161-8.183c2.022-1.28,4.053-2.935,6.562-2.97
	C614.141,294.793,614.455,293.76,613.286,316.967z M619.063,319.886c-0.418,0.009-1.254,0.026-1.681,0.034
	c-0.119-5.35,0.341-10.701-0.068-16.043c0.486-0.034,1.451-0.102,1.937-0.137C618.987,309.117,619.106,314.501,619.063,319.886z
	 M624.115,324.016c0.051-5.265,0.085-10.53,0.017-15.795c0.427-0.051,1.289-0.154,1.715-0.205
	c0.017,5.436-0.299,10.897,0.299,16.316C625.643,324.255,624.619,324.093,624.115,324.016z M769.216,417.217
	c0.304-16.537-0.372-16.564,1.835-20.062c-0.119-0.93-0.256-1.86-0.367-2.773c0.461,0.085,1.374,0.247,1.826,0.333
	c0.802,6.613,0.145,13.295,0.085,19.942C772.757,416.5,770.368,416.534,769.216,417.217z M788.928,415.058
	c-3.823-0.009-7.646,0.068-11.46,0.085c0.495-19.591-0.024-6.3,2.406-19.174c3.9-2.551,10.718-0.188,10.163,5.052
	C789.833,405.68,790.669,410.604,788.928,415.058z M807.479,415.178c-0.739,3.044-11.535,0.368-12.86-0.043
	c-0.678-9.821,1.072-8.078,2.5-17.101c5.546-2.895,4.104-2.902,9.139-0.247C807.65,403.478,808.145,409.349,807.479,415.178z
	 M814.852,420.05c-1.34-0.555-2.645-1.135-3.934-1.758c0.546-5.129-0.777-10.641,1.57-15.428c-0.026-0.759-0.077-2.278-0.102-3.038
	C815.657,401.383,815.766,399.542,814.852,420.05z M1147.388,243.359c-0.324,0.222-0.981,0.674-1.306,0.905
	c-0.06-1.476-0.102-2.944-0.145-4.412c0.64-0.051,1.903-0.137,2.534-0.188C1148.036,240.876,1147.669,242.104,1147.388,243.359z
	 M1159.283,246.363c-1.51-0.017-3.012-0.034-4.489-0.051c0.324-1.229,0.649-2.466,0.99-3.695c1.34-0.614,3.277-1.69,4.344,0
	C1160.06,243.905,1159.625,245.134,1159.283,246.363z M1167.893,247.301c-0.614,0.017-1.852,0.043-2.466,0.06
	c0.008-2.526-0.324-5.615,2.185-7.117C1168.013,242.574,1168.098,244.946,1167.893,247.301z M1475.699,243.939
	c-0.026-1.331-0.043-2.662-0.034-3.985c0.563-0.043,1.698-0.119,2.261-0.154c0.051,1.408,0.085,2.825,0.136,4.241
	C1477.466,244.016,1476.288,243.965,1475.699,243.939z M1484.173,243.956c0.034-0.981,0.094-2.944,0.128-3.925
	c1.314,0.384,2.68,0.777,4.045,1.178c0.009,1.254,0.043,2.517,0.111,3.78C1486.997,244.682,1485.572,244.357,1484.173,243.956z
	 M1496.58,243.538c-1.912-0.282-1.545-2.176-1.707-3.584c0.444-0.017,1.314-0.051,1.758-0.068
	C1496.606,241.098,1496.589,242.318,1496.58,243.538z M1833.579,415.075c-0.534-7.183-3.349-16.662,1.92-20.48
	c-0.009,0.777-0.017,2.33-0.017,3.106c2.21,4.821,1.084,10.291,1.613,15.42C1835.917,413.778,1834.739,414.427,1833.579,415.075z
	 M1853.521,410.058c-3.874,0.555-7.723,1.152-11.58,1.741c-2.466-5.47-1.408-11.836-0.691-17.613c0.29-2.534,3.08-3.243,5.094-3.977
	c1.766,0.887,3.78,1.69,4.966,3.388c0.359,1.51,0.307,3.081,0.486,4.634C1854.383,401.541,1853.291,406.141,1853.521,410.058z
	 M1860.169,409.656c-2.956-1.588-2.159-13.645-1.954-17.024c5.02-5.14,6.726-3.715,10.308-1.289
	c-0.222,2.261,0.674,4.309,1.527,6.34c0.768,3.917,0.521,7.953,0.691,11.938C1867.208,409.494,1863.684,409.742,1860.169,409.656z
	 M1878.763,411.483c-4.341-2.551-2.238,3.187-3.465-17.314c0.017-1.596-0.461-3.678,1.297-4.574
	C1877.614,394.286,1879.213,391.463,1878.763,411.483z M2018.496,316.967c-2.005-6.007-1.51-12.476-1.417-18.714
	c3.075,0.773,1.798,4.59,2.552,15.744C2019.827,315.184,2019.469,316.259,2018.496,316.967z M2023.633,314.954
	c0-11.66-1.454-17.851,2.765-18.876C2028.118,315.279,2027.385,314.439,2023.633,314.954z M2041.169,310.448
	c-2.688,0.341-5.333,0.956-7.902,1.766c-2.753-4.342-3.134-22.85-1.041-25.037c2.654,1.485,5.845,2.773,6.793,5.999
	c-0.162,1.681-0.188,3.379-0.256,5.069c0.614,0.461,1.263,0.93,1.929,1.408C2040.879,303.237,2042.167,306.872,2041.169,310.448z
	 M2051.307,308.656c-1.775,0.307-3.524,0.683-5.248,1.075c-0.885-10.658-0.134-7.506,2.347-15.65
	c-1.238-3.371,2.022-5.879,4.343-7.714c0.145,6.46,0.111,12.928,0.853,19.362C2052.8,306.685,2052.041,307.666,2051.307,308.656z
	 M2067.494,307.248c-3.149,0.666-8.619,1.869-9.464-2.475c-0.051-6.665-1.024-13.44,0.051-20.036
	c2.808-0.009,5.052,1.664,6.63,3.874c-0.196,0.375-0.589,1.126-0.785,1.51C2067.349,295.165,2067.554,301.36,2067.494,307.248z
	 M2072.103,308.255c0.461-5.487-2.167-12.041,2.142-16.529c-0.674-3.43-2.313-8.337,1.459-10.53
	C2079.028,306.102,2076.958,309.175,2072.103,308.255z M2358.882,146.002c-0.785-1.946-1.007-4.028-0.555-6.084
	c-1.195-2.773,0.452-5.385,1.724-7.791c-0.23-1.365-0.487-2.739-0.666-4.105c0.828-0.836,1.681-1.664,2.568-2.483
	c1.528,0.111,3.089,0.196,4.668,0.273c2.313,4.873,0.606,10.462,1.28,15.65C2364.967,143.126,2361.903,144.543,2358.882,146.002z
	 M2394.159,134.567c-5.487,0.93-10.769,2.722-16.23,3.729c0.162-2.236,0.64-4.429,1.254-6.579c0.358-0.324,1.075-0.964,1.425-1.289
	c-0.009-0.981,0.026-1.963,0.085-2.935c1.596-3.029,4.634-4.898,7.774-6.033c2.466-0.085,4.873,0.614,7.322,0.956
	C2395.567,126.444,2397.538,131.436,2394.159,134.567z M2405.414,132.042c0.179-1.502-0.196-3.251,0.905-4.48
	c2.347-2.347-0.7-5.641,0.649-8.329c1.177-2.867,3.473-6.118,6.929-6.093c0.666,0.905,1.254,1.877,1.894,2.842
	c-0.145,0.606-0.452,1.818-0.597,2.423c0.401,0.478,1.212,1.442,1.621,1.92c0.222,3.772,0.393,7.543,0.486,11.324
	C2413.385,132.511,2409.365,132.042,2405.414,132.042z"/>
<path stroke="#000000" stroke-width="0.0938" d="M2119.23,398.14C2119.77,398.71,2119.77,398.71,2119.23,398.14z"/>
</svg>
