?xml version="1.0" encoding="utf-8"?>
<svg version="1.1" id="Layer_1" xmlns="http://www.w3.org/2000/svg" xmlns:xlink="http://www.w3.org/1999/xlink" x="0px" y="0px"
	 viewBox="0 0 2167.004 1656.593" enable-background="new 0 0 2167.004 1656.593" xml:space="preserve">
<path d="M230.481,28.297c-40.228,27.645,10.272,75.023,35.216,35.652c-2.064,17.247-19.462,30.954-36.793,27.33
	c0.956,13.657,1.778,27.33,2.416,41.004c7.567,4.043,10.033,14.361,4.043,20.854c37.413,52.078,80.743,47.156,94.372,110.462
	c4.127,17.65,2.869,36.222-2.382,53.503c11.996,0,23.975-0.017,35.97,0c0.017,5.318,0.017,10.62,0.017,15.938
	c-7.734,0.034-15.435-0.117-23.153,0.151c0.201,54.895,0.017,109.774,0.101,164.669c7.684,0.017,15.368-0.034,23.069,0.067
	c-0.017,4.027-0.017,8.07-0.017,12.113c7.399,0,14.814-0.017,22.23,0c-0.017,12.315,0.067,24.629-0.067,36.944
	c-12.717-0.067-25.451-0.034-38.168-0.017c3.053,150.794,5.805,301.622,8.405,452.416c11.627,0.285,23.237,0.05,34.863,0.134
	c-0.017,21.408,0.05,42.799-0.034,64.207c-11.039-0.05-22.062-0.034-33.085-0.017c1.661,112.257,4.11,224.514,5.822,336.787
	c25.351-78.3,78.618-147.053,147.858-191.479c65.482-39.561,123.028-92.191,167.84-154.234
	c-21.673-23.245-14.256-54.884,8.254-67.277c1.342-1.258,4.178-1.795,3.926-4.11c2.953-48.973,6.795-97.929,9.211-146.936
	c-53.567-17.079-87.141-75.844-69.693-134.134c11.677-40.198,48.604-71.756,90.362-76.135
	c-50.475,25.417-65.216,84.018-39.628,127.491c33.622,58.322,122.95,65.043,161.112-6.896
	c-8.092,63.149-66.685,104.513-126.937,93.735c3.154,48.285,6.325,96.587,9.412,144.872c27.495,12.336,33.68,47.709,12.18,68.938
	c92.919,128.228,163.668,137.899,229.463,204.767c38.252,38.672,67.243,86.168,85.044,137.54
	c-0.185-78.182-0.067-156.348-0.067-234.513c-4.731-0.067-10.15-1.862-11.56-6.896c-5.33-23.985,12.921-18.804,22.784-19.562
	c-4.563-28.538,8.758-59.073,33.253-74.575c13.673-8.271,25.954-18.975,35.182-32.078c-4.429-5.151-2.231-11.727,2.634-15.553
	c1.795-10.905,1.007-22.146,2.869-33.034l1.829-1.661c2.198,11.442,1.862,23.203,2.919,34.779
	c5.352,3.439,6.778,10.234,3.121,15.502c6.442,8.976,14.21,17.012,22.934,23.807c5.128,4.083,54.559,28.78,45.165,83.031
	c11.214,0.261,28.208-4.38,23.253,19.294c-1.476,5.285-7.164,6.929-12.029,6.963c0.05,123.548-0.017,247.096,0.034,370.644
	c75.576-39.413,183.617-59.618,300.011-157.086c-9.056-21.959-0.391-38.399,15.653-46.188c2.869-42.665,5.771-85.329,8.204-128.011
	c3.389-0.168,6.778-0.269,10.2-0.352c3.02,42.799,5.57,85.631,8.473,128.447c16.555,8.05,24.668,26.24,15.67,45.467
	c64.291,54.644,140.527,93.701,219.262,123.078c2.567-143.278,5.52-286.556,8.523-429.818c-11.342-0.034-22.683-0.017-34.024,0
	c-0.05-21.408-0.017-42.799-0.017-64.19c11.576,0,23.153-0.017,34.746,0.017c1.088-42.781,8.436-411.259,8.858-452.148
	c-12.868-0.034-25.719,0-38.571-0.017c-0.034-12.281,0.034-24.545-0.034-36.826c7.667-0.151,15.368-0.084,23.069-0.067
	c0-4.211,0.034-8.439,0.084-12.633c7.248,0.034,14.496,0.034,21.76,0.017c-0.017-54.811,0.05-109.623-0.05-164.434
	c-7.265,0.05-14.512,0.034-21.743,0.034c-0.067-5.469-0.05-10.956,0.067-16.408c11.66,0.151,23.32-0.117,34.981,0.185
	c-7.902-26.961-5.402-56.976,8.624-81.504c23.167-42.113,49.95-35.852,83.752-82.376c-2.986-3.641-4.865-8.556-2.852-13.17
	c0.889-4.295,6.929-5.503,6.879-10.083c0.755-13.304,1.544-26.592,2.198-39.913c-32.544-11.448-24.714-58.684,5.604-60.851
	c-40.514,27.804,15.406,75.559,36.189,34.058c-2.242,16.579-14.583,30.028-36.726,28.236c0.638,13.673,1.577,27.347,2.332,41.004
	c7.5,4.144,9.983,14.311,3.976,20.854c9.009,12.382,19.663,23.572,31.709,33.034c11.055,8.956,83.601,43.292,60.398,130.578
	c11.929-0.034,23.891,0.05,35.853-0.05c0.067,5.469,0.051,10.939,0.034,16.408c-7.835,0-15.636,0-23.438,0
	c-0.067,54.795-0.017,109.606-0.017,164.401c7.802,0.017,15.619,0,23.455,0.017c0,4.194,0.017,8.405,0.084,12.6
	c7.382-0.034,14.764-0.017,22.163-0.017c-0.017,12.315,0.017,24.612-0.017,36.927c-12.768,0.017-25.518-0.101-38.252,0.067
	c3.087,150.677,5.621,301.354,8.523,452.031c11.442,0.067,22.901,0,34.36,0.034c-0.017,21.391,0.034,42.799-0.017,64.19
	c-10.855-0.067-21.693,0.101-32.514-0.134c0.44,58.195,8.15,472.092,8.624,494.091c16.626,0.252,33.269,0.034,49.912,0.117
	c0,21.391,0,42.782,0,64.156c-1075.976,0.435-786.353-4.631-2092.967-5.033c-0.017-21.374,0-42.765,0-64.156
	c16.492-0.017,33.001,0.017,49.493,0c2.869-164.568,6.442-329.103,9.697-493.655c-11.325-0.017-22.666-0.017-33.991,0
	c-0.134-21.357,0.084-42.698-0.101-64.039c11.643-0.319,23.304-0.134,34.964-0.101c3.272-150.861,5.805-301.756,9.11-452.601
	c-12.952,0-25.904-0.067-38.856,0.034c-0.252-12.315-0.067-24.629-0.117-36.944c7.634-0.017,15.251-0.101,22.884,0.101
	c0.151-4.094,0.218-8.187,0.218-12.281c7.248-0.017,14.496,0,21.76-0.017c0.134-54.862-0.201-109.723,0.168-164.585
	c-7.315-0.403-14.647-0.201-21.961-0.235c-0.017-5.318-0.017-10.62,0-15.938c11.811-0.067,23.622,0.134,35.417-0.117
	c-14.833-47.517,5.953-96.139,45.45-120.646c18.153-11.123,34.058-25.921,46.507-43.202c-6.745-9.994-3.118-14.438,3.909-20.804
	c3.537-49.961,3.356-40.708-1.762-44.393C194.055,75.888,197.641,33.487,230.481,28.297 M132.284,362.785
	c-0.101,45.013-0.034,90.044-0.034,135.074c7.248,0.017,14.512,0.017,21.777,0c-0.05-45.013,0.151-90.027-0.084-135.04
	C153.96,350.823,132.032,350.622,132.284,362.785 M173.774,362.718c-0.101,45.013,0.084,90.027-0.084,135.057
	c7.281,0.168,14.579,0.101,21.861,0.084c-0.05-44.997,0.151-89.993-0.084-134.99C195.769,350.706,173.606,350.672,173.774,362.718
	 M215.315,362.701c-0.084,45.047-0.017,90.111-0.034,135.158c7.265,0.017,14.529,0.017,21.81,0
	c0.054-141.959,1.987-140.444-5.302-143.06C225.566,352.3,214.828,354.229,215.315,362.701 M257.258,362.735
	c-0.084,45.047-0.017,90.094-0.034,135.141c7.265,0,14.546,0,21.81-0.017c0.055-143.23,1.571-139.115-4.11-142.473
	C268.65,351.947,256.939,353.81,257.258,362.735 M298.782,362.802c-0.067,45.013-0.017,90.044-0.017,135.057
	c7.281,0.017,14.563,0.067,21.844-0.084c-0.47-138.202,3.599-145.192-9.865-143.815
	C305.241,352.954,298.127,356.427,298.782,362.802 M1846.067,367.751c-0.084,44.896-0.017,89.826-0.034,134.722
	c7.265,0.017,14.529,0.017,21.811,0c-0.067-44.913,0.151-89.826-0.117-134.738C1867.777,355.739,1845.514,355.588,1846.067,367.751
	 M1887.591,367.852c-0.067,44.879-0.017,89.742-0.017,134.621c7.265,0.017,14.546,0.067,21.827-0.084
	c-0.168-44.896,0.151-89.792-0.151-134.688C1909.418,355.672,1886.82,355.588,1887.591,367.852 M1928.779,368.221
	c-0.302,44.711,0.017,89.457-0.151,134.168c7.399,0.151,14.814,0.101,22.247,0.084c0.109-142.755,1.31-138.269-3.624-141.818
	C1940.708,356.746,1928.41,358.641,1928.779,368.221 M1971.176,366.275c-0.352,45.399-0.067,90.799-0.134,136.198
	c7.248,0.017,14.512,0.017,21.777,0c0.109-142.057,1.741-139.244-4.664-142.473C1982.249,357.735,1971.83,358.138,1971.176,366.275
	 M2012.548,367.802c-0.017,44.879,0.017,89.775,0,134.655c7.114,0.034,14.244,0.034,21.391,0.017
	c-0.017-44.913,0.05-89.826-0.034-134.722C2034.694,355.588,2011.693,355.621,2012.548,367.802 M1102.783,1220.088
	c0.067,28.404-0.05,56.808,0.05,85.212c23.337-0.05,46.674,0,70.012-0.017c0-29.528,0-59.056,0-88.584
	c-0.235-20.485-15.469-39.007-34.93-44.644C1116.993,1177.709,1101.978,1198.496,1102.783,1220.088 M1063.457,1220.189
	c-0.168,28.37-0.084,56.741-0.033,85.111c9.06-0.05,18.136-0.017,27.213-0.017c-0.099-76.602,3.808-103.283-13.439-120.478
	C1066.88,1193.295,1064.531,1207.606,1063.457,1220.189 M1198.934,1184.822c-17.321,16.408-13.556,41.049-13.506,120.461
	c9.043,0.017,18.069-0.101,27.112,0.101C1213.379,1225.17,1215.633,1199.606,1198.934,1184.822z"/>
</svg>
